<svg id="eA5ceTOIWhg1" xmlns="http://www.w3.org/2000/svg" xmlns:xlink="http://www.w3.org/1999/xlink" viewBox="0 0 772 335" shape-rendering="geometricPrecision" text-rendering="geometricPrecision">
<style><![CDATA[
#eA5ceTOIWhg2_tr {animation: eA5ceTOIWhg2_tr__tr 3000ms linear infinite normal forwards}@keyframes eA5ceTOIWhg2_tr__tr { 0% {transform: translate(460.094289px,172.189149px) rotate(0deg);animation-timing-function: cubic-bezier(0.42,0,0.58,1)} 50% {transform: translate(460.094289px,172.189149px) rotate(15deg);animation-timing-function: cubic-bezier(0.42,0,0.58,1)} 100% {transform: translate(460.094289px,172.189149px) rotate(0deg)}} #eA5ceTOIWhg2_ts {animation: eA5ceTOIWhg2_ts__ts 3000ms linear infinite normal forwards}@keyframes eA5ceTOIWhg2_ts__ts { 0% {transform: scale(1,1);animation-timing-function: cubic-bezier(0.42,0,0.58,1)} 50% {transform: scale(1.2,1.2);animation-timing-function: cubic-bezier(0.42,0,0.58,1)} 100% {transform: scale(1,1)}} #eA5ceTOIWhg3_tr {animation: eA5ceTOIWhg3_tr__tr 3000ms linear infinite normal forwards}@keyframes eA5ceTOIWhg3_tr__tr { 0% {transform: translate(480.082px,135.176853px) rotate(0deg);animation-timing-function: cubic-bezier(0.42,0,0.58,1)} 33.333333% {transform: translate(480.082px,135.176853px) rotate(-7deg);animation-timing-function: cubic-bezier(0.42,0,0.58,1)} 66.666667% {transform: translate(480.082px,135.176853px) rotate(10deg);animation-timing-function: cubic-bezier(0.42,0,0.58,1)} 100% {transform: translate(480.082px,135.176853px) rotate(0deg)}} #eA5ceTOIWhg6_to {animation: eA5ceTOIWhg6_to__to 3000ms linear infinite normal forwards}@keyframes eA5ceTOIWhg6_to__to { 0% {transform: translate(480.010162px,159.042px)} 16.666667% {transform: translate(480.010162px,159.042px)} 20% {transform: translate(484.967198px,167.5px)} 50% {transform: translate(606.988234px,88.224935px)} 100% {transform: translate(606.988234px,88.224935px)}} #eA5ceTOIWhg8_to {animation: eA5ceTOIWhg8_to__to 3000ms linear infinite normal forwards}@keyframes eA5ceTOIWhg8_to__to { 0% {transform: translate(568.629748px,136.202221px);animation-timing-function: cubic-bezier(0.42,0,0.58,1)} 50% {transform: translate(480.112813px,135.819606px);animation-timing-function: cubic-bezier(0.42,0,0.58,1)} 100% {transform: translate(568.629748px,136.202221px)}} #eA5ceTOIWhg10_tr {animation: eA5ceTOIWhg10_tr__tr 3000ms linear infinite normal forwards}@keyframes eA5ceTOIWhg10_tr__tr { 0% {transform: translate(485.995119px,131.193px) rotate(0deg);animation-timing-function: cubic-bezier(0.42,0,0.58,1)} 50% {transform: translate(485.995119px,131.193px) rotate(-7deg);animation-timing-function: cubic-bezier(0.42,0,0.58,1)} 100% {transform: translate(485.995119px,131.193px) rotate(0deg)}} #eA5ceTOIWhg11_to {animation: eA5ceTOIWhg11_to__to 3000ms linear infinite normal forwards}@keyframes eA5ceTOIWhg11_to__to { 0% {transform: translate(439.105011px,152.384003px);animation-timing-function: cubic-bezier(0.42,0,0.58,1)} 50% {transform: translate(445.532612px,157.198375px);animation-timing-function: cubic-bezier(0.42,0,0.58,1)} 100% {transform: translate(439.105011px,152.384003px)}} #eA5ceTOIWhg11_ts {animation: eA5ceTOIWhg11_ts__ts 3000ms linear infinite normal forwards}@keyframes eA5ceTOIWhg11_ts__ts { 0% {transform: scale(1,1);animation-timing-function: cubic-bezier(0.42,0,0.58,1)} 50% {transform: scale(1.3,1.3);animation-timing-function: cubic-bezier(0.42,0,0.58,1)} 100% {transform: scale(1,1)}} #eA5ceTOIWhg29_tr {animation: eA5ceTOIWhg29_tr__tr 3000ms linear infinite normal forwards}@keyframes eA5ceTOIWhg29_tr__tr { 0% {transform: translate(480.328806px,131.193px) rotate(0deg);animation-timing-function: cubic-bezier(0.42,0,0.58,1)} 50% {transform: translate(480.328806px,131.193px) rotate(-7deg);animation-timing-function: cubic-bezier(0.42,0,0.58,1)} 100% {transform: translate(480.328806px,131.193px) rotate(0deg)}}
]]></style>
<g id="eA5ceTOIWhg2_tr" transform="translate(460.094289,172.189149) rotate(0)"><g id="eA5ceTOIWhg2_ts" transform="scale(1,1)"><path d="M425.553,159.455c2.946-4.714,7.344-.874,7.071,1.768-2.794,27.004,21.391,23.274,34.288,17.88l.477,20.42-20.624,18.267-19.445-15.32c-2.749-11.392-6.415-35.579-1.767-43.015Z" transform="translate(-460.094289,-172.189149)" fill="#991212"/></g></g><g id="eA5ceTOIWhg3_tr" transform="translate(480.082,135.176853) rotate(0)"><path d="M459.221,195.092c-7.55-24.635-1.987-56.125,18.377-61.092l2.484,11.424c-23.047,4.371-19.206,40.562-15.894,49.668h-4.967Z" transform="translate(-480.081993,-135.176852)" fill="#991212"/></g><g mask="url(#eA5ceTOIWhg9)"><g mask="url(#eA5ceTOIWhg7)"><g id="eA5ceTOIWhg6_to" transform="translate(480.010162,159.042)"><path d="M274.3193,325.1178v-321.14359h479.071v321.14359h-479.071ZM515.07255,139.88832c4.10765,0,7.43756-3.32991,7.43756-7.43756s-3.32991-7.43756-7.43756-7.43756-7.43756,3.32991-7.43756,7.43756s3.32991,7.43756,7.43756,7.43756Zm-15.16944,8.96022c2.4743,0,4.48011-2.00581,4.48011-4.48011s-2.00581-4.48011-4.48011-4.48011-4.48011,2.00581-4.48011,4.48011s2.00581,4.48011,4.48011,4.48011Z" transform="translate(-513.8548,-164.546005)" fill="#991212" stroke-width="0"/></g><mask id="eA5ceTOIWhg7"><g id="eA5ceTOIWhg8_to" transform="translate(568.629748,136.202221)"><path d="M280.299,53.78654q27.538-13.8812,43.895,0c16.357,13.8812,33.436,13.2707,47.621,0s33.806-13.316399,48.064,0s38.437602,13.270701,51.667301,0s31.254301-12.597799,43.819,0s42.938397,11.433601,55.423698,0s36.4933-12.597799,48.6213,0s38.856698,9.408101,43.308698,0q4.452-9.408101-.207,127.203459l-187.43797,64.495-221.691031-46.896L280.299,53.78654Z" transform="scale(0.55,0.55) translate(-458.952331,-144.650823)" fill="#fff" stroke-width="0"/></g></mask></g><mask id="eA5ceTOIWhg9"><g id="eA5ceTOIWhg10_tr" transform="translate(485.995119,131.193) rotate(0)"><path d="M510.5,96.5l14-15.5L623,38.5l17,53L559.5,131l-30,5-21-5-17,5-5-18.5l18-9l6-12Z" transform="translate(-485.995116,-131.192997)" fill="#fff" stroke-width="0"/></g></mask></g><g id="eA5ceTOIWhg11_to" transform="translate(439.105011,152.384003)"><g id="eA5ceTOIWhg11_ts" transform="scale(1,1)"><circle r="3.53546" transform="translate(0,0)" fill="#991212"/></g></g><path d="M21.281,314.122c-.552-.552-.828-1.311-.828-2.277c0-.691.034-1.277.103-1.76s.173-1.07.311-1.76c.69-3.175,1.035-6.384,1.035-9.628s.138-6.453.414-9.628c.138-1.932.242-3.865.311-5.797.069-1.933.103-3.865.103-5.798c0-11.456-.345-22.878-1.035-34.266s-1.035-22.879-1.035-34.474c0-8.006.138-16.046.414-24.121s.483-16.184.621-24.328c1.242-.691,2.76-.967,4.555-.829c1.794.138,3.244-.483,4.348-1.863.69-.138,1.38-.173,2.07-.103.691.069,1.381.103,2.071.103c1.518,0,2.968-.483,4.348-1.449c1.38-.967,2.899-1.795,4.555-2.485.828.276,1.415.38,1.76.311s.725-.104,1.139-.104s1.311.483,2.691,1.449c1.381.967,2.899,2.071,4.555,3.313c1.657,1.243,3.21,2.416,4.659,3.52s2.381,1.795,2.795,2.071c3.451,2.622,6.522,5.486,9.214,8.592s5.349,6.246,7.971,9.421c2.485,3.175,5.177,6.384,8.075,9.628c2.899,3.243,5.729,6.246,8.489,9.006.966,1.105,1.967,2.071,3.002,2.899c1.036.828,2.036,1.794,3.003,2.899.414.552.793,1.138,1.138,1.76.346.621.725,1.276,1.139,1.967.828.966,1.795,1.794,2.899,2.484s2.139,1.519,3.106,2.485c.69.552,1.725,1.656,3.105,3.313c1.381,1.656,2.071,2.898,2.071,3.726c0,.553-.138,1.036-.414,1.45s-.552.897-.828,1.449c-.138.414-.208,1.035-.208,1.864c0,.828-.069,1.38-.207,1.656-1.38,1.104-2.139,1.794-2.277,2.07s-.345.553-.621.829c-.414.552-.932,1-1.553,1.345-.621.346-1.07.863-1.346,1.553-.276.414-.38.829-.311,1.243.07.414-.034.897-.31,1.449-.69,1.518-1.794,2.968-3.313,4.348-1.518,1.38-2.83,2.899-3.934,4.555-1.518,2.485-3.037,4.969-4.555,7.454-1.518,2.484-3.244,4.9-5.176,7.247-.828,1.104-4.348,5.314-5.176,6.418-.69.828-1.312,1.691-1.864,2.588s-1.173,1.898-1.863,3.002c-1.519,1.933-7.178,9.456-8.696,11.388-1.657,2.347-3.451,4.659-5.384,6.936-1.932,2.278-3.657,4.59-5.176,6.936-1.518,2.485-3.106,4.763-4.762,6.833-1.656,2.071-3.451,4.072-5.383,6.004-.552.415-1.242,1.036-2.071,1.864-.828.828-1.656,1.242-2.484,1.242-.552,0-1.001-.207-1.346-.621s-.863-.621-1.553-.621c-.138,0-.552.069-1.242.207s-1.519.276-2.485.414l-3.727.414c-2.208,1.104-3.796,1.622-4.762,1.553s-1.932-.035-2.899.104c-.552.138-1,.345-1.345.621s-.725.414-1.139.414c-.966,0-1.726-.449-2.278-1.346s-1.38-1.277-2.484-1.139Zm62.114-89.445c0-.69-.655-1.656-1.966-2.899-1.312-1.242-2.313-2.139-3.003-2.691-.966-.829-2.105-1.622-3.416-2.381-1.311-.76-2.381-1.622-3.209-2.589-.69-.828-3.244-4.348-3.934-5.176-2.485-2.76-5.004-5.521-7.558-8.282-2.553-2.76-4.796-5.797-6.729-9.11-1.242-.828-2.415-1.794-3.519-2.899-1.105-1.104-2.416-2.001-3.934-2.691-.276.828-.38,1.691-.311,2.588s.104,1.76.104,2.588c0,3.175-.138,6.28-.415,9.317-.276,3.037-.414,6.074-.414,9.11c0,7.454.173,14.804.518,22.051s.518,14.528.518,21.844c0,2.76.034,5.521.103,8.282.069,2.76.311,5.521.725,8.282-.276.828-.414,1.587-.414,2.277s.138,1.588.414,2.692c1.104-.69,2.036-1.553,2.795-2.588s1.484-2.036,2.174-3.002c2.347-3.037,4.659-6.108,6.936-9.214c2.278-3.106,4.59-6.246,6.936-9.421c1.519-2.07,3.072-4.106,4.659-6.108c1.587-2.001,3.14-4.106,4.659-6.315.414-.552,1.069-1.518,1.966-2.898.898-1.381,1.795-2.796,2.692-4.245s1.726-2.795,2.485-4.037c.759-1.243,1.138-2.071,1.138-2.485Z" fill="#000000"/><path d="M158.761,170.844c0,1.242-.414,2.174-1.242,2.795s-1.587,1.415-2.277,2.381c-1.381,1.243-2.589,2.519-3.624,3.831-1.035,1.311-2.243,2.588-3.623,3.83-.552.552-1.312,1.277-2.278,2.174s-1.967,1.795-3.002,2.692-2.07,1.691-3.106,2.381c-1.035.69-1.898,1.035-2.588,1.035-1.104,0-2.519-.379-4.244-1.139-1.726-.759-3.21-1.276-4.452-1.552-.966-.138-1.829-.242-2.588-.311s-1.484-.449-2.174-1.139c-2.485-.552-4.072-1.415-4.762-2.588s-1.449-2.381-2.278-3.623c0-.552.207-.897.621-1.036.415-.138.76-.414,1.036-.828c1.38-1.794,2.553-3.278,3.52-4.451.966-1.174,2.07-2.381,3.312-3.624c2.347-2.07,4.59-4.21,6.729-6.418c2.14-2.209,4.383-4.279,6.73-6.212c1.104-.138,1.932-.552,2.484-1.242s1.38-1.035,2.485-1.035c1.104,0,2.036.345,2.795,1.035s1.449,1.484,2.07,2.381c.622.897,1.243,1.795,1.864,2.692s1.346,1.553,2.174,1.967c.966.69,2.277,1.587,3.934,2.691c1.656,1.105,2.484,2.209,2.484,3.313Zm-28.365,38.511c.966.552,1.691,1.277,2.174,2.174.483.898,1.207,1.553,2.174,1.967.828.414,1.725.621,2.691.621.967,0,1.795.138,2.485.415.552.276.966.621,1.242,1.035s.552.828.828,1.242c.829.69,2.105,1.311,3.831,1.864c1.725.552,2.864,1.173,3.416,1.863.966,1.242,1.691,2.83,2.174,4.762.483,1.933.863,3.969,1.139,6.108.276,2.14.483,4.279.621,6.419.138,2.139.345,3.968.621,5.486.276,3.175.621,6.315,1.035,9.421.415,3.106.622,6.246.622,9.421s-.138,6.418-.415,9.731c-.276,3.313-.414,6.557-.414,9.731c0,1.657-.034,3.727-.103,6.212s-.656,4.417-1.76,5.797c-.138.552-.207,1.519-.207,2.899v6.626c0,.828.414,4.21.414,5.176c0,1.518-.414,2.622-1.242,3.313-.414-.138-.863-.207-1.346-.207h-1.346c-1.518,0-2.623.276-3.313.828-1.518-.138-2.967-.276-4.348-.414-1.38-.138-2.829-.207-4.348-.207-2.346,0-4.9.345-7.661,1.035-.552-1.38-.793-2.83-.724-4.348.069-1.519-.242-2.899-.932-4.141-.138-.414-.242-.794-.311-1.139s-.103-.725-.103-1.139c.414-1.656.621-2.795.621-3.416v-1.967c0-1.932-.069-3.899-.207-5.901-.138-2.001-.069-3.968.207-5.901c0-.69.104-1.311.311-1.863s.31-1.174.31-1.864-.138-1.173-.414-1.449-.414-.621-.414-1.035.034-1.105.104-2.071c.069-.966.241-1.587.517-1.863c0-1.104.207-5.245.207-6.212c0-2.208-.069-4.417-.207-6.625-.138-2.209-.207-4.348-.207-6.419c0-.966-.069-1.587-.207-1.863s-.276-.483-.414-.621-.345-.242-.621-.311-.483-.311-.621-.725c.552-6.073.345-12.146-.622-18.22-.966-6.073-1.449-12.216-1.449-18.427c0-.967.138-1.691.414-2.174s.621-.863,1.035-1.139c.415-.276.794-.587,1.139-.932s.587-.863.725-1.553c1.104.276,2.07.276,2.899,0Z" fill="#000000"/><path d="M279.471,229.439c-.276.552-.552,1.07-.828,1.553s-.483,1.001-.621,1.553c.552.552,1.069,1.139,1.553,1.76.483.621.724,1.277.724,1.967c0,.552-.103,1.069-.31,1.553-.207.483-.242.931-.104,1.345-.552.967-1.139,1.864-1.76,2.692s-1.07,1.725-1.346,2.692c-.552.552-1,1.104-1.345,1.656-.346.552-.656,1.104-.932,1.656-.69.277-1.139.725-1.346,1.346s-.587,1.139-1.139,1.553c-.138.552-.828,1.864-2.07,3.934-1.243,2.071-2.623,4.279-4.141,6.626-1.519,2.346-2.968,4.624-4.348,6.832-1.381,2.209-2.347,3.658-2.899,4.348-.276.69-.587,1.243-.932,1.657s-.724.897-1.138,1.449c-.277.414-.484.863-.622,1.346s-.345.863-.621,1.139c-.276.552-.586,1.035-.931,1.449-.346.414-.656.966-.932,1.656-1.381,1.795-2.761,3.934-4.141,6.419-1.38,2.484-2.692,4.693-3.934,6.625-.69,1.105-3.244,5.522-3.934,6.626s-3.451,5.107-4.141,6.212c-1.104.828-2.071,1.828-2.899,3.002-.828,1.173-1.794,2.174-2.898,3.002-1.795,0-2.899-.828-3.313-2.485-1.795-.414-2.692-.414-2.692,0v1.036c-.552.276-.932.69-1.139,1.242s-.586.966-1.138,1.242c-1.105-.276-2.036-.724-2.796-1.346-.759-.621-1.828-.862-3.209-.724-.552-.829-1.173-1.553-1.863-2.174s-1.312-1.277-1.864-1.967c-.276-.828-.655-1.519-1.138-2.071-.484-.552-.932-1.104-1.346-1.656-.414-.69-.828-1.311-1.243-1.864-.414-.552-.828-1.104-1.242-1.656-.966-1.242-1.898-2.45-2.795-3.623-.897-1.174-1.691-2.381-2.381-3.624-1.104-1.656-2.174-3.347-3.209-5.072-1.036-1.726-2.105-3.417-3.21-5.073-.552-.828-1.104-1.657-1.656-2.485s-1.035-1.656-1.449-2.484c-.276-.69-.656-1.519-1.139-2.485s-1.07-1.587-1.76-1.863c-.276-1.105-.759-1.933-1.449-2.485-.691-.552-1.381-1.242-2.071-2.07-.966-1.105-1.863-2.312-2.691-3.624-.829-1.311-1.657-2.657-2.485-4.037-2.761-3.865-5.349-7.661-7.764-11.388-2.416-3.727-4.797-7.592-7.144-11.595.691-2.208,1.036-3.865,1.036-4.969s.345-2.001,1.035-2.692c0-.552.138-1.38.414-2.484c1.794-3.037,3.52-5.797,5.176-8.282c1.519-2.347,2.588-4.279,3.209-5.797.622-1.519,1.277-3.106,1.967-4.763.691-.414,1.243-.931,1.657-1.552.414-.622.966-1.208,1.656-1.76.276-1.519.897-2.796,1.864-3.831.966-1.035,1.587-2.312,1.863-3.83c1.242-.966,1.933-2.071,2.071-3.313c1.794-1.242,2.898-2.899,3.312-4.969c1.105-1.104,2.036-2.347,2.796-3.727.759-1.38,1.483-2.83,2.174-4.348c1.656-1.38,2.967-3.175,3.933-5.383.829-.552,1.45-1.312,1.864-2.278s.966-1.794,1.656-2.484c1.105-1.795,1.967-3.279,2.588-4.452.622-1.173,1.277-2.381,1.967-3.623.967,0,1.588-.345,1.864-1.036.276-.69.828-.966,1.656-.828c0-1.242.345-2.346,1.035-3.313.277-.138.691-.31,1.243-.517s.828-.449.828-.725c-.276-1.656-.207-2.623.207-2.899s.759-.552,1.035-.828c1.519.276,2.554.483,3.106.621s1.449.621,2.692,1.45c1.38,0,2.346.276,2.898.828s1.174.966,1.864,1.242c.552.552,1.001,1.104,1.346,1.657.345.552.862.966,1.552,1.242c1.105,1.518,5.936,8.42,7.04,9.938c1.518,2.071,3.071,4.038,4.659,5.901c1.587,1.864,3.071,3.9,4.451,6.108.414.69,1.174,1.898,2.278,3.623c1.104,1.726,2.346,3.555,3.727,5.487c1.38,1.933,2.622,3.693,3.727,5.28c1.104,1.587,1.863,2.519,2.277,2.795.414.69,1.311,2.002,2.692,3.934c1.38,1.933,2.864,3.969,4.451,6.108c1.588,2.14,3.141,4.176,4.659,6.108s2.554,3.175,3.106,3.727c1.518,2.07,2.657,3.761,3.416,5.073.759,1.311,1.484,2.726,2.174,4.244Zm-47.414,38.925c1.518-2.07,2.691-3.934,3.52-5.59.828-1.656,1.656-3.313,2.484-4.969c1.381-1.657,2.209-2.83,2.485-3.52s.621-1.38,1.035-2.071c1.104-1.656,2.243-3.312,3.416-4.969c1.174-1.656,2.105-3.451,2.795-5.383.829-.552,1.45-1.242,1.864-2.07.414-.829,1.035-1.588,1.863-2.278-.828-2.899-1.794-5.142-2.898-6.729-1.105-1.587-2.209-3.14-3.313-4.659-.414-.69-2.071-3.451-2.485-4.141-.552-.414-1-.828-1.346-1.242-.345-.414-.724-.828-1.138-1.242-.276-.69-.69-1.588-1.243-2.692-.552-.69-1.104-1.311-1.656-1.863s-1.035-1.243-1.449-2.071c-.552-.552-1.243-1.311-2.071-2.277-.828-.967-1.691-2.036-2.588-3.21-.897-1.173-1.691-2.277-2.381-3.312-.69-1.036-1.242-1.898-1.656-2.589-.276-.69-.518-1.276-.725-1.759-.207-.484-.449-1.001-.725-1.553-.69-.967-3.451-4.21-4.141-5.177-.414.276-.793.449-1.138.518-.346.069-.656.242-.932.518-.966,1.794-2.036,3.45-3.209,4.969-1.174,1.518-2.313,3.175-3.417,4.969-.966,1.656-4.831,8.489-5.797,10.145-.69.967-1.346,1.898-1.967,2.796-.621.897-1.277,1.898-1.967,3.002-.69.966-1.277,1.967-1.76,3.002s-1.07,2.036-1.76,3.002c-1.104,1.381-2.001,2.623-2.692,3.727-.69,1.104-1.38,2.416-2.07,3.934.414.828,1.07,1.967,1.967,3.416.897,1.45,4.624,7.144,5.383,8.386s1.208,2.07,1.346,2.484c1.104.967,2.001,2.036,2.692,3.21.69,1.173,1.587,2.312,2.691,3.416.552,1.104,1.174,2.071,1.864,2.899s1.38,1.725,2.07,2.691c.69.967,1.588,2.381,2.692,4.245c1.104,1.863,2.208,3.761,3.313,5.694c1.104,1.932,2.208,3.727,3.312,5.383c1.105,1.656,2.002,2.692,2.692,3.106c1.38-1.519,2.519-3.21,3.416-5.073.898-1.863,2.105-3.554,3.624-5.073Z" fill="#000000"/><path d="M360.841,157.179c2.209-.276,3.9-.104,5.073.518c1.173.621,2.381,1,3.623,1.138.691.138,1.415.173,2.174.104.76-.069,1.553-.104,2.381-.104c1.795,0,3.21.207,4.245.621c1.035.415,2.105,1.312,3.209,2.692.276.276.656.656,1.139,1.139s.725.932.725,1.346c0,1.104-.276,2.07-.829,2.898-.552.829-.828,2.002-.828,3.52c0,2.347.276,4.659.828,6.936.553,2.278.898,4.59,1.036,6.937.69,8.558,1.069,17.15,1.138,25.777.07,8.627.104,17.151.104,25.571c0,1.104-.034,2.105-.104,3.002-.069.897-.379,1.691-.931,2.381v2.692c-.138,3.588-.069,7.212.207,10.87s.414,7.281.414,10.87c0,3.175-.173,6.349-.518,9.524s-.517,6.419-.517,9.731c0,3.037.207,6.005.621,8.903.414,2.899.621,5.867.621,8.904-.69,1.242-1.104,2.208-1.242,2.898s-.414,1.312-.829,1.864c-.414.276-.862.345-1.345.207s-.863,0-1.139.414c-.69.828-1.173,1.794-1.449,2.899-.277,1.104-.967,2.001-2.071,2.691-.276,1.933-1.001,3.416-2.174,4.452-1.173,1.035-2.036,2.381-2.588,4.037-1.656.138-2.795.069-3.416-.207-.622-.276-1.277-.552-1.967-.828-.138-2.347-.104-4.038.103-5.073s.311-2.105.311-3.209c0-1.38-.345-2.416-1.036-3.106-.69-.69-1.173-1.587-1.449-2.691-1.518-.967-2.553-1.622-3.106-1.967-.552-.345-1.035-.794-1.449-1.346-.828-1.104-1.518-2.278-2.07-3.52-.553-1.242-1.174-2.416-1.864-3.52-1.932-3.175-3.899-6.418-5.901-9.731-2.001-3.313-4.175-6.557-6.522-9.731-.414-.691-.897-1.312-1.449-1.864s-1.035-1.173-1.449-1.863c-2.347-3.727-4.556-7.523-6.626-11.388-2.071-3.865-4.486-7.523-7.247-10.974-1.104-1.38-1.932-2.933-2.484-4.658-.553-1.726-1.381-3.21-2.485-4.452-.138.69-.207,1.45-.207,2.278v2.277c0,4.693.104,9.352.311,13.976s.31,9.283.31,13.976c0,.966-.103,1.829-.31,2.588s-.311,1.622-.311,2.588c0,1.38.069,2.692.207,3.934s.207,2.485.207,3.727c0,1.518-.034,2.968-.103,4.348s-.173,2.761-.311,4.141c-.276,1.794-.621,3.485-1.035,5.073-.414,1.587-.621,3.209-.621,4.865c0,.967.103,1.864.31,2.692s.311,1.587.311,2.277c-.966,1.519-2.174,2.278-3.624,2.278-1.449,0-2.657.552-3.623,1.656-.828-.138-1.484-.069-1.967.207-.483.277-.932.415-1.346.415-.552,0-1.001-.069-1.346-.207-.345-.139-.724-.208-1.138-.208-.691,0-1.381.346-2.071,1.036s-1.38,1.035-2.07,1.035c-.414,0-1.139-.276-2.174-.828-1.036-.552-2.14-1.208-3.313-1.967s-2.243-1.519-3.209-2.278c-.967-.759-1.45-1.346-1.45-1.76-.138-.69-.207-1.656-.207-2.898c0-1.657.104-3.279.311-4.866s.448-3.209.724-4.866c.415-4.693.622-9.351.622-13.975v-13.976c0-1.933.207-9.663.207-11.595c0-4.555-.173-9.145-.518-13.769s-.518-9.213-.518-13.769c0-3.174.138-6.315.414-9.42.277-3.106.415-6.177.415-9.214c0-2.347-.069-4.624-.207-6.833-.138-2.208-.208-4.486-.208-6.832-.138-1.519-.138-3.14,0-4.866.139-1.725.208-3.347.208-4.866c0-1.794-.242-3.485-.725-5.072-.483-1.588-.725-3.071-.725-4.452c0-.828.173-1.622.518-2.381s.517-1.553.517-2.381c0-1.104-.172-2.208-.517-3.313-.345-1.104-.518-2.208-.518-3.313c0-1.104.138-2.139.414-3.105s.414-2.002.414-3.106c1.933-.966,3.658-1.449,5.177-1.449c1.518,0,2.622.552,3.312,1.656c0,2.485.138,4.383.415,5.694.276,1.311.483,2.657.621,4.037c0,.829-.035,1.795-.104,2.899s-.034,2.174.104,3.209c.138,1.036.448,1.898.931,2.588.483.691,1.346,1.036,2.588,1.036.277.69.622,1.311,1.036,1.863s.69,1.242.828,2.071c.828-.553,1.311-1.312,1.449-2.278s.138-1.863,0-2.692c.69.276,1.312.38,1.864.311s1.104.035,1.656.311c.276,1.932.621,3.623,1.035,5.072.414,1.45.552,3.141.414,5.073c2.761,2.07,5.142,5.004,7.144,8.8c2.001,3.795,3.899,7.212,5.694,10.249.966,1.518,2.105,2.933,3.416,4.244s2.312,2.864,3.002,4.659c1.104.69,2.002,1.587,2.692,2.691.69,1.105,1.311,2.209,1.863,3.313c2.761,4.831,5.797,9.524,9.11,14.079s6.764,9.042,10.353,13.459c.138-.967.207-1.898.207-2.796v-2.795l-.207-18.634c0-1.104-.035-2.14-.104-3.106s-.172-2.001-.31-3.106c-.276-3.588-.345-7.108-.207-10.559s.138-6.971,0-10.56c-.276-3.727-.449-7.522-.518-11.387s-.242-7.73-.518-11.595c-.138-2.347-.276-4.693-.414-7.04-.138-2.346-.207-4.693-.207-7.039c0-2.899.276-5.522.828-7.868.276-.276.587-.518.932-.725s.794-.311,1.346-.311c.828,0,1.38.691,1.656,2.071Z" fill="#000000"/><path d="M495.423,165.047c-1.518,2.76-3.244,6.004-5.176,9.731s-3.451,6.971-4.555,9.731c-.414.967-1.863,4.625-2.278,5.591-.69,2.07-1.552,4.037-2.588,5.901-1.035,1.863-1.967,3.83-2.795,5.901-1.242,2.76-2.519,5.555-3.83,8.385-1.312,2.83-2.588,5.763-3.831,8.8-1.38,2.76-2.45,5.141-3.209,7.143-.759,2.001-1.553,4.037-2.381,6.108-.828,2.07-1.553,4.106-2.174,6.108-.621,2.001-1.139,3.83-1.553,5.487-1.242,2.208-2.277,3.864-3.106,4.969-.276,2.484-.552,4.969-.828,7.453-.276,2.485-.414,5.039-.414,7.661c0,1.243.104,2.45.311,3.624.207,1.173.379,2.381.517,3.623.138,1.794.173,3.554.104,5.28-.069,1.725-.035,3.485.103,5.28.138,3.45.311,6.867.518,10.248.207,3.382.38,6.868.518,10.456.138,2.485.034,4.59-.311,6.315-.345,1.726-.449,3.486-.311,5.28-.414.276-.862.483-1.345.621-.484.138-.932.345-1.346.621-1.519,0-2.519-.034-3.002-.103-.484-.069-.932.034-1.346.311-1.243-.829-1.933-1.208-2.071-1.139s-.276.103-.414.103c-1.656-.552-2.553-.966-2.691-1.242-.139-.276-.415-.552-.829-.828-1.518,0-2.76.207-3.727.621-.414-.276-.759-.552-1.035-.828s-.621-.552-1.035-.828c-1.242-.138-2.278-.311-3.106-.518s-1.518-.449-2.07-.725c-.414-1.104-.863-2.07-1.346-2.898-.483-.829-.725-1.933-.725-3.313c0-1.104.138-2.14.414-3.106s.483-2.001.621-3.106c0-.69-.207-3.036-.207-3.727c0-.69.138-1.587.415-2.691-.415-3.175-.587-6.522-.518-10.042s.103-6.867.103-10.042-.276-6.142-.828-8.903c.138-1.795.138-3.071,0-3.831-.138-.759-.207-1.552-.207-2.381c0-.69.414-3.657.414-4.348c0-.138-.103-.862-.31-2.174-.207-1.311-.449-2.691-.725-4.141-.276-1.449-.552-2.829-.828-4.141-.276-1.311-.414-2.105-.414-2.381-1.381-2.484-2.416-4.831-3.106-7.039-.69-2.209-1.449-4.072-2.278-5.591-.552-1.104-1.104-2.208-1.656-3.312-.552-1.105-1.035-2.278-1.449-3.52-.276-.69-1.174-3.865-1.45-4.555-.552-1.105-1.069-2.312-1.552-3.624-.484-1.311-1.07-2.381-1.76-3.209-.553-1.242-1.07-2.381-1.553-3.416-.483-1.036-.725-2.036-.725-3.003-.414-1.656-1.07-3.14-1.967-4.451s-1.691-2.657-2.381-4.038c-.414-.828-.725-1.587-.932-2.277s-.448-1.38-.724-2.071c-.276-.552-.656-1.242-1.139-2.07s-1.001-1.449-1.553-1.863c-.276-1.243-.759-2.347-1.449-3.313-.691-.967-1.174-2.071-1.45-3.313-.69-.966-1.449-1.933-2.277-2.899-.552-2.07-1.312-3.968-2.278-5.694-.966-1.725-1.863-3.554-2.691-5.486.552-2.899,2.139-4.694,4.762-5.384c1.38-1.656,2.208-2.553,2.484-2.691s.898-.207,1.864-.207c.828-.691,1.656-1.277,2.484-1.76.829-.483,1.795-.587,2.899-.311.138-.552.518-1.035,1.139-1.449s1.208-.621,1.76-.621c.828,0,1.553.414,2.174,1.242s1.277,1.449,1.967,1.863c1.104,1.933,2.243,3.796,3.416,5.591c1.173,1.794,2.174,3.658,3.002,5.59.966,1.932,1.829,3.865,2.588,5.797.76,1.933,1.898,3.796,3.417,5.591.69,2.76,1.76,5.349,3.209,7.764c1.449,2.416,2.657,5.004,3.623,7.764.69,1.657,1.484,3.279,2.381,4.866.898,1.587,1.691,3.278,2.381,5.073.414.828.76,1.656,1.036,2.484.276.829.552,1.657.828,2.485.276.69.552,1.587.828,2.692.276,1.104.621,2.001,1.035,2.691.966-.966,1.795-2.208,2.485-3.727.966-1.932,1.967-3.761,3.002-5.486c1.035-1.726,1.967-3.555,2.795-5.487c1.104-1.795,1.898-3.658,2.381-5.591.483-1.932,1.07-3.864,1.76-5.797.276-.69.587-1.38.932-2.07.345-.691,1.691-3.934,1.967-4.763.276-.828.552-1.656.828-2.484.966-2.623,2.036-5.211,3.209-7.765c1.174-2.553,2.381-5.141,3.624-7.764.138-.414.448-1.035.931-1.863.484-.828,1.036-1.691,1.657-2.588.621-.898,1.208-1.691,1.76-2.381.552-.691,1.035-1.174,1.449-1.45.276-.276.725-.448,1.346-.517s1.139-.173,1.553-.311c1.242,0,2.139.345,2.691,1.035c1.657.69,2.899,1.174,3.727,1.45.829.276,1.45.897,1.864,1.863c2.07,1.38,3.623,2.174,4.658,2.381c1.036.207,1.829.794,2.381,1.76c1.519.966,2.416,1.656,2.692,2.071.276.414.552.828.828,1.242Z" fill="#000000"/><path d="M545.322,159.042c.276.552.587.932.932,1.139s.586.656.724,1.346c.967.69,1.726,1.208,2.278,1.553s.897.932,1.035,1.76c1.243.966,1.967,1.587,2.174,1.863s.38.621.518,1.035c.69.553,1.346,1.036,1.967,1.45s1.07,1.035,1.346,1.863c1.104.966,1.794,1.726,2.07,2.278s.483,1.173.621,1.863c-.552.966-1.656,2.278-3.312,3.934-1.657,1.657-3.52,3.416-5.591,5.28-2.07,1.863-4.072,3.658-6.004,5.383-1.933,1.726-3.451,3.071-4.555,4.038-.276.552-.621,1.035-1.036,1.449-.414.414-.759.897-1.035,1.449-.828.69-1.587,1.415-2.277,2.174-.69.76-1.519,1.346-2.485,1.76-1.38,1.933-3.313,3.831-5.797,5.694-2.485,1.864-4.141,3.692-4.969,5.487.138.414.448.828.931,1.242s.863.759,1.139,1.035c1.104,1.105,2.416,2.105,3.934,3.003c1.518.897,2.83,1.898,3.934,3.002c1.104.966,5.521,4.624,6.625,5.59.553.552,1.243,1.381,2.071,2.485c1.38,1.104,2.726,2.105,4.037,3.002c1.312.897,2.589,1.898,3.831,3.002c2.622,2.209,5.176,4.452,7.661,6.729c2.484,2.278,5.107,4.521,7.868,6.729l1.656,1.864c0,1.104.31,2.381.932,3.83.621,1.45,1.207,2.657,1.76,3.624-.277,1.38-.242,2.243.103,2.588s.656.655.932.931c-.138,2.623-.069,4.348.207,5.177-2.347,2.07-4.521,3.968-6.522,5.694-2.002,1.725-3.762,3.416-5.28,5.072-1.242,1.519-2.519,2.864-3.83,4.038-1.312,1.173-2.727,2.45-4.245,3.83-.828,1.104-1.518,1.864-2.07,2.278-.967.966-1.933,1.725-2.899,2.277-1.656,1.519-3.278,2.968-4.866,4.348-1.587,1.381-3.14,2.761-4.658,4.141-1.105.966-2.14,1.898-3.106,2.795-.966.898-1.933,1.898-2.899,3.003-.828.828-1.76,1.794-2.795,2.898-1.035,1.105-2.105,2.002-3.209,2.692-.414.828-.966,1.553-1.657,2.174-.69.621-1.311,1.277-1.863,1.967-.966.552-1.863,1.104-2.692,1.656-.828.552-1.794,1.105-2.898,1.657-1.105-.829-2.174-1.588-3.21-2.278-1.035-.69-2.174-1.173-3.416-1.449-.828-.69-1.449-1.381-1.863-2.071s-1.174-1.173-2.278-1.449c-.276-.414-.587-.863-.932-1.346s-.655-1.001-.931-1.553c-1.657-.138-2.968-1.173-3.934-3.105.276-.829.655-1.45,1.139-1.864.483-.414.586-1.173.31-2.277.828-1.381,1.829-2.589,3.002-3.624c1.174-1.035,2.312-2.105,3.417-3.209c1.242-1.104,2.381-2.243,3.416-3.416c1.035-1.174,2.174-2.312,3.416-3.417.69-.69,1.381-1.346,2.071-1.967s1.449-1.276,2.277-1.967c1.519-1.518,3.072-2.933,4.659-4.244s3.209-2.726,4.866-4.245c2.208-2.208,4.486-4.313,6.832-6.315c2.347-2.001,4.486-4.244,6.419-6.729-.138-.552-.345-.931-.621-1.139-.277-.207-.484-.517-.622-.931-2.208-2.071-4.382-4.107-6.522-6.108-2.139-2.002-4.451-3.762-6.936-5.28-.828-.828-1.38-1.518-1.656-2.07-2.485-1.795-4.866-3.796-7.143-6.005-2.278-2.208-4.797-4.072-7.558-5.59-.552-.69-1.207-1.277-1.967-1.76-.759-.483-1.484-.932-2.174-1.346-.414-.69-.862-1.277-1.345-1.76-.484-.483-1.07-.863-1.76-1.139-1.105-.966-1.829-1.76-2.174-2.381-.346-.621-.932-1-1.76-1.138-.276-.691-.725-1.243-1.346-1.657s-1.277-.897-1.967-1.449c-.276-.828-.69-1.519-1.242-2.071-.138-1.104-.069-1.898.207-2.381s.483-.862.621-1.139c-.138-.828-.518-1.449-1.139-1.863s-.932-1.104-.932-2.07c0-.553.173-.932.518-1.139s.587-.518.725-.932l.621-3.106c1.104-.828,2.036-1.829,2.795-3.002s1.76-2.105,3.002-2.795c1.38-2.071,3.106-3.796,5.176-5.176.69-1.105,1.553-2.002,2.588-2.692c1.036-.69,1.898-1.587,2.589-2.692c1.104-.69,2.036-1.449,2.795-2.277s1.691-1.587,2.795-2.278c.276-.552.587-1,.932-1.345.345-.346.586-.725.724-1.139c3.727-3.589,7.005-6.695,9.835-9.317c2.83-2.623,5.763-5.246,8.8-7.868.828-.69,1.656-1.45,2.484-2.278s1.726-1.587,2.692-2.277c.276-.276.621-.414,1.035-.414s.828-.139,1.242-.415c1.657,0,2.554-.069,2.692-.207Z" fill="#000000"/><path d="M680.525,229.439c-.276.552-.552,1.07-.828,1.553s-.483,1.001-.621,1.553c.552.552,1.07,1.139,1.553,1.76s.724,1.277.724,1.967c0,.552-.103,1.069-.31,1.553-.207.483-.242.931-.104,1.345-.552.967-1.138,1.864-1.76,2.692-.621.828-1.069,1.725-1.345,2.692-.553.552-1.001,1.104-1.346,1.656s-.656,1.104-.932,1.656c-.69.277-1.139.725-1.346,1.346s-.586,1.139-1.139,1.553c-.138.552-.828,1.864-2.07,3.934-1.242,2.071-2.623,4.279-4.141,6.626-1.518,2.346-2.968,4.624-4.348,6.832-1.38,2.209-2.347,3.658-2.899,4.348-.276.69-.586,1.243-.931,1.657-.346.414-.725.897-1.139,1.449-.276.414-.483.863-.621,1.346s-.345.863-.622,1.139c-.276.552-.586,1.035-.931,1.449s-.656.966-.932,1.656c-1.38,1.795-2.761,3.934-4.141,6.419-1.38,2.484-2.692,4.693-3.934,6.625-.69,1.105-3.244,5.522-3.934,6.626s-3.451,5.107-4.141,6.212c-1.104.828-2.07,1.828-2.899,3.002-.828,1.173-1.794,2.174-2.898,3.002-1.795,0-2.899-.828-3.313-2.485-1.794-.414-2.692-.414-2.692,0v1.036c-.552.276-.931.69-1.138,1.242s-.587.966-1.139,1.242c-1.104-.276-2.036-.724-2.795-1.346-.76-.621-1.829-.862-3.21-.724-.552-.829-1.173-1.553-1.863-2.174s-1.311-1.277-1.863-1.967c-.277-.828-.656-1.519-1.139-2.071s-.932-1.104-1.346-1.656c-.414-.69-.828-1.311-1.242-1.864-.414-.552-.829-1.104-1.243-1.656-.966-1.242-1.898-2.45-2.795-3.623-.897-1.174-1.691-2.381-2.381-3.624-1.104-1.656-2.174-3.347-3.209-5.072-1.035-1.726-2.105-3.417-3.209-5.073-.553-.828-1.105-1.657-1.657-2.485s-1.035-1.656-1.449-2.484c-.276-.69-.656-1.519-1.139-2.485s-1.07-1.587-1.76-1.863c-.276-1.105-.759-1.933-1.449-2.485s-1.381-1.242-2.071-2.07c-.966-1.105-1.863-2.312-2.691-3.624-.829-1.311-1.657-2.657-2.485-4.037-2.761-3.865-5.349-7.661-7.764-11.388-2.416-3.727-4.797-7.592-7.143-11.595.69-2.208,1.035-3.865,1.035-4.969s.345-2.001,1.035-2.692c0-.552.138-1.38.414-2.484c1.795-3.037,3.52-5.797,5.176-8.282c1.519-2.347,2.588-4.279,3.21-5.797.621-1.519,1.276-3.106,1.967-4.763.69-.414,1.242-.931,1.656-1.552.414-.622.966-1.208,1.656-1.76.276-1.519.898-2.796,1.864-3.831s1.587-2.312,1.863-3.83c1.243-.966,1.933-2.071,2.071-3.313c1.794-1.242,2.898-2.899,3.313-4.969c1.104-1.104,2.036-2.347,2.795-3.727s1.484-2.83,2.174-4.348c1.656-1.38,2.967-3.175,3.934-5.383.828-.552,1.449-1.312,1.863-2.278s.966-1.794,1.656-2.484c1.105-1.795,1.967-3.279,2.589-4.452.621-1.173,1.276-2.381,1.967-3.623.966,0,1.587-.345,1.863-1.036.276-.69.828-.966,1.656-.828c0-1.242.345-2.346,1.036-3.313.276-.138.69-.31,1.242-.517s.828-.449.828-.725c-.276-1.656-.207-2.623.207-2.899s.759-.552,1.035-.828c1.519.276,2.554.483,3.106.621s1.45.621,2.692,1.45c1.38,0,2.346.276,2.899.828.552.552,1.173.966,1.863,1.242.552.552,1.001,1.104,1.346,1.657.345.552.862.966,1.553,1.242c1.104,1.518,5.935,8.42,7.039,9.938c1.519,2.071,3.072,4.038,4.659,5.901c1.587,1.864,3.071,3.9,4.451,6.108.415.69,1.174,1.898,2.278,3.623c1.104,1.726,2.347,3.555,3.727,5.487c1.38,1.933,2.623,3.693,3.727,5.28s1.863,2.519,2.277,2.795c.414.69,1.312,2.002,2.692,3.934c1.38,1.933,2.864,3.969,4.452,6.108c1.587,2.14,3.14,4.176,4.658,6.108s2.554,3.175,3.106,3.727c1.518,2.07,2.657,3.761,3.416,5.073.759,1.311,1.484,2.726,2.174,4.244Zm-47.414,38.925c1.518-2.07,2.692-3.934,3.52-5.59s1.656-3.313,2.484-4.969c1.381-1.657,2.209-2.83,2.485-3.52s.621-1.38,1.035-2.071c1.104-1.656,2.243-3.312,3.417-4.969c1.173-1.656,2.105-3.451,2.795-5.383.828-.552,1.449-1.242,1.863-2.07.414-.829,1.035-1.588,1.864-2.278-.829-2.899-1.795-5.142-2.899-6.729s-2.209-3.14-3.313-4.659c-.414-.69-2.07-3.451-2.485-4.141-.552-.414-1-.828-1.345-1.242s-.725-.828-1.139-1.242c-.276-.69-.69-1.588-1.242-2.692-.553-.69-1.105-1.311-1.657-1.863s-1.035-1.243-1.449-2.071c-.552-.552-1.242-1.311-2.071-2.277-.828-.967-1.691-2.036-2.588-3.21-.897-1.173-1.691-2.277-2.381-3.312-.69-1.036-1.242-1.898-1.656-2.589-.276-.69-.518-1.276-.725-1.759-.207-.484-.448-1.001-.725-1.553-.69-.967-3.45-4.21-4.141-5.177-.414.276-.793.449-1.138.518s-.656.242-.932.518c-.966,1.794-2.036,3.45-3.209,4.969-1.174,1.518-2.312,3.175-3.417,4.969-.966,1.656-4.831,8.489-5.797,10.145-.69.967-1.346,1.898-1.967,2.796-.621.897-1.277,1.898-1.967,3.002-.69.966-1.277,1.967-1.76,3.002s-1.07,2.036-1.76,3.002c-1.104,1.381-2.001,2.623-2.691,3.727-.691,1.104-1.381,2.416-2.071,3.934.414.828,1.07,1.967,1.967,3.416.897,1.45,4.624,7.144,5.383,8.386.76,1.242,1.208,2.07,1.346,2.484c1.104.967,2.002,2.036,2.692,3.21.69,1.173,1.587,2.312,2.691,3.416.553,1.104,1.174,2.071,1.864,2.899s1.38,1.725,2.07,2.691c.691.967,1.588,2.381,2.692,4.245c1.104,1.863,2.209,3.761,3.313,5.694c1.104,1.932,2.208,3.727,3.313,5.383c1.104,1.656,2.001,2.692,2.691,3.106c1.381-1.519,2.519-3.21,3.417-5.073.897-1.863,2.105-3.554,3.623-5.073Z" fill="#000000"/><path d="M733.323,159.042c.276.552.586.932.931,1.139.346.207.587.656.725,1.346.966.69,1.726,1.208,2.278,1.553s.897.932,1.035,1.76c1.242.966,1.967,1.587,2.174,1.863s.38.621.518,1.035c.69.553,1.345,1.036,1.967,1.45.621.414,1.069,1.035,1.345,1.863c1.105.966,1.795,1.726,2.071,2.278s.483,1.173.621,1.863c-.552.966-1.656,2.278-3.313,3.934-1.656,1.657-3.52,3.416-5.59,5.28-2.071,1.863-4.072,3.658-6.005,5.383-1.932,1.726-3.45,3.071-4.555,4.038-.276.552-.621,1.035-1.035,1.449s-.759.897-1.035,1.449c-.828.69-1.588,1.415-2.278,2.174-.69.76-1.518,1.346-2.484,1.76-1.381,1.933-3.313,3.831-5.798,5.694-2.484,1.864-4.141,3.692-4.969,5.487.138.414.449.828.932,1.242s.863.759,1.139,1.035c1.104,1.105,2.415,2.105,3.934,3.003c1.518.897,2.829,1.898,3.934,3.002c1.104.966,5.521,4.624,6.625,5.59.552.552,1.242,1.381,2.071,2.485c1.38,1.104,2.726,2.105,4.037,3.002s2.588,1.898,3.83,3.002c2.623,2.209,5.177,4.452,7.661,6.729c2.485,2.278,5.107,4.521,7.868,6.729l1.657,1.864c0,1.104.31,2.381.931,3.83.621,1.45,1.208,2.657,1.76,3.624-.276,1.38-.241,2.243.104,2.588s.655.655.931.931c-.138,2.623-.069,4.348.207,5.177-2.346,2.07-4.52,3.968-6.522,5.694-2.001,1.725-3.761,3.416-5.279,5.072-1.243,1.519-2.519,2.864-3.831,4.038-1.311,1.173-2.726,2.45-4.244,3.83-.828,1.104-1.519,1.864-2.071,2.278-.966.966-1.932,1.725-2.898,2.277-1.657,1.519-3.279,2.968-4.866,4.348-1.587,1.381-3.14,2.761-4.659,4.141-1.104.966-2.139,1.898-3.105,2.795-.967.898-1.933,1.898-2.899,3.003-.828.828-1.76,1.794-2.795,2.898-1.036,1.105-2.105,2.002-3.21,2.692-.414.828-.966,1.553-1.656,2.174s-1.311,1.277-1.863,1.967c-.967.552-1.864,1.104-2.692,1.656s-1.794,1.105-2.899,1.657c-1.104-.829-2.174-1.588-3.209-2.278s-2.174-1.173-3.416-1.449c-.828-.69-1.45-1.381-1.864-2.071s-1.173-1.173-2.277-1.449c-.276-.414-.587-.863-.932-1.346s-.656-1.001-.932-1.553c-1.656-.138-2.967-1.173-3.934-3.105.276-.829.656-1.45,1.139-1.864s.587-1.173.311-2.277c.828-1.381,1.829-2.589,3.002-3.624s2.312-2.105,3.416-3.209c1.243-1.104,2.381-2.243,3.417-3.416c1.035-1.174,2.174-2.312,3.416-3.417.69-.69,1.38-1.346,2.07-1.967.691-.621,1.45-1.276,2.278-1.967c1.518-1.518,3.071-2.933,4.658-4.244c1.588-1.311,3.21-2.726,4.866-4.245c2.209-2.208,4.486-4.313,6.833-6.315c2.346-2.001,4.486-4.244,6.418-6.729-.138-.552-.345-.931-.621-1.139-.276-.207-.483-.517-.621-.931-2.209-2.071-4.383-4.107-6.522-6.108-2.14-2.002-4.452-3.762-6.936-5.28-.828-.828-1.381-1.518-1.657-2.07-2.484-1.795-4.865-3.796-7.143-6.005-2.277-2.208-4.796-4.072-7.557-5.59-.552-.69-1.208-1.277-1.967-1.76s-1.484-.932-2.174-1.346c-.414-.69-.863-1.277-1.346-1.76s-1.07-.863-1.76-1.139c-1.104-.966-1.829-1.76-2.174-2.381s-.932-1-1.76-1.138c-.276-.691-.724-1.243-1.346-1.657-.621-.414-1.276-.897-1.967-1.449-.276-.828-.69-1.519-1.242-2.071-.138-1.104-.069-1.898.207-2.381s.483-.862.621-1.139c-.138-.828-.517-1.449-1.138-1.863-.622-.414-.932-1.104-.932-2.07c0-.553.172-.932.518-1.139.345-.207.586-.518.724-.932l.621-3.106c1.105-.828,2.036-1.829,2.795-3.002.76-1.173,1.76-2.105,3.003-2.795c1.38-2.071,3.105-3.796,5.176-5.176.69-1.105,1.553-2.002,2.588-2.692s1.898-1.587,2.588-2.692c1.104-.69,2.036-1.449,2.795-2.277.76-.828,1.691-1.587,2.795-2.278.277-.552.587-1,.932-1.345.345-.346.587-.725.725-1.139c3.727-3.589,7.005-6.695,9.835-9.317c2.829-2.623,5.763-5.246,8.799-7.868.829-.69,1.657-1.45,2.485-2.278s1.725-1.587,2.692-2.277c.276-.276.621-.414,1.035-.414s.828-.139,1.242-.415c1.656,0,2.554-.069,2.692-.207Z" fill="#000000"/><path d="M490.887,300.472c-.453.858-1.047,1.5-1.782,1.929-.735.428-1.272,1.071-1.612,1.928-.34.735-.51,1.531-.51,2.389-.001.857-.114,1.592-.341,2.204-.226.49-.509.858-.848,1.103-.34.244-.679.489-1.018.734-.566.735-1.076,1.867-1.529,3.398s-.962,2.542-1.528,3.031c-1.018.857-2.318,1.5-3.902,1.928-1.583.428-3.251.764-5.004,1.008-1.752.244-3.505.426-5.258.548-1.752.122-3.251.304-4.494.549-2.601.243-5.174.548-7.718.914s-5.117.549-7.717.547c-2.601-.001-5.258-.125-7.972-.372-2.713-.246-5.37-.37-7.971-.371-1.357-.001-3.053-.033-5.088-.095s-3.618-.584-4.748-1.564c-.452-.123-1.244-.185-2.374-.185l-5.428-.003c-.678-.001-1.356.06-2.035.182-.678.122-1.413.183-2.205.183-1.244-.001-2.148-.369-2.713-1.104.113-.368.17-.766.17-1.195c0-.428.001-.826.001-1.194.001-1.347-.225-2.327-.677-2.94.114-1.348.228-2.634.341-3.859.114-1.225.171-2.511.172-3.858.001-2.083-.28-4.349-.844-6.8c1.131-.489,2.318-.703,3.562-.641s2.374-.213,3.392-.825c.34-.122.651-.214.933-.275.283-.061.594-.091.933-.091c1.357.368,2.29.552,2.798.553.509,0,1.046,0,1.612,0c1.583.001,3.194-.059,4.833-.181c1.64-.121,3.251-.059,4.834.187.565,0,1.074.092,1.526.276.453.184.961.276,1.527.277.565,0,.961-.122,1.187-.367s.509-.367.848-.367c.34,0,.905.031,1.696.093.792.061,1.301.215,1.527.46.904,0,1.78.031,2.628.093s1.668.093,2.46.093c1.809.001,3.618-.059,5.427-.181c1.809-.121,3.562-.181,5.258-.18.791,0,1.3-.061,1.526-.183.227-.123.396-.245.509-.368.114-.122.198-.306.255-.551s.255-.428.594-.551c4.975.493,9.95.312,14.926-.543c4.975-.854,10.007-1.28,15.095-1.278.792.001,1.385.124,1.781.369.395.245.706.551.932.919s.48.705.763,1.011c.282.306.706.521,1.271.644-.226.98-.227,1.837-.001,2.572Z" fill="#000000"/><path d="M25.848,82.367c.178-.045.333-.111.466-.2.134-.089.289-.133.467-.133.133.044.233.133.299.266.067.133.167.244.3.333.133-.089.256-.178.367-.266.111-.089.233-.156.366-.2.444.133.688.355.733.666.222.089.422.189.599.3.178.111.378.188.6.233.088.177.199.311.333.4.133.088.288.222.466.399.444.089,1.032.333,1.765.733s1.321.71,1.765.933c.445.222.889.444,1.333.666s.866.466,1.265.732c.4.222.8.478,1.199.766.4.289.822.522,1.266.7.4.488.91.799,1.532.932.622.134,1.177.378,1.665.733.4.222.777.455,1.133.7.355.244.71.477,1.066.699.133.222.299.4.499.533s.389.311.566.533c.888.488,1.399.866,1.532,1.132.134.089.333.222.6.4.266.177.533.366.799.566.267.2.511.4.733.6.222.199.355.388.4.566-.178.399-.267.721-.267.966c0,.244-.089.455-.266.632.266.356.399.689.399,1-.222.533-.599.977-1.132,1.332-.133.355-.344.633-.633.832-.288.2-.477.478-.566.833-.355.222-.566.4-.633.533-.066.133-.144.266-.233.4-.844.888-1.632,1.654-2.365,2.298-.732.644-1.41,1.343-2.031,2.098-.444.222-.822.5-1.133.833s-.599.699-.866,1.099c-.355.355-.699.699-1.032,1.032s-.677.655-1.033.966c-.089.178-.233.322-.433.433s-.344.278-.433.5c-.488.222-.888.533-1.199.932-.311.4-.688.733-1.132,1l-.466.666c-.134.088-.322.233-.567.433-.244.199-.488.421-.732.666-.245.244-.455.477-.633.699s-.289.4-.333.533c-.133.044-.344.178-.633.4s-.577.466-.866.732c-.289.267-.555.533-.799.8-.245.266-.389.444-.433.533l-.666.466c.044,1.199.077,2.409.1,3.63.022,1.222.033,2.432.033,3.631v2.264l-.466.6c-.222,0-.4-.044-.533-.133-.134-.089-.289-.133-.467-.133-.177,0-.344.088-.499.266-.156.178-.3.311-.433.4-.311.044-.566.122-.766.233s-.411.211-.633.3c-.266-.134-.533-.2-.799-.2-.578.133-.855.155-.833.066.022-.088-.078-.133-.3-.133-.355.355-.577.533-.666.533-.178,0-.344.022-.499.067-.156.044-.322.066-.5.066-.178-.355-.322-.721-.433-1.099-.111-.377-.322-.744-.633-1.099.133-.444.111-.755-.066-.933.266-.488.377-1.043.333-1.665-.045-.622-.067-1.199-.067-1.732c0-.311.067-1.465.067-1.732c0-.533-.045-1.077-.134-1.632-.088-.555-.133-1.121-.133-1.698c0-1.332.045-2.676.133-4.03.089-1.355.134-2.698.134-4.03c0-.755-.034-1.532-.1-2.332-.067-.799-.1-1.576-.1-2.331c0-.489.022-.944.066-1.366.045-.422.089-.832.134-1.232c0-2.043.033-4.008.1-5.895.066-1.887.099-3.764.099-5.629c0-.622-.066-2.909-.066-3.53c0-.311.133-1.555.133-1.865.133-1.377.2-2.754.2-4.13l-.067-1.066c.178-.267.444-.4.8-.4.488,0,.866.156,1.132.466.311-.044.611-.099.899-.166.289-.067.566-.1.833-.1.4,0,.733.133.999.4Zm3.93,10.591c0,.222-.022.389-.066.5-.045.111-.089.211-.134.299c0,.134.067.755.067.933c0,1.021-.011,2.032-.033,3.031-.023.999-.034,1.987-.034,2.964l-.133,3.53c0,.222.133,1.244.133,1.466s-.133,1.11-.133,1.332c0,.577.067,1.155.2,1.732.222-.089.377-.233.466-.433s.2-.366.333-.5c1.022-.932,1.976-1.909,2.865-2.93.888-1.022,1.798-2.043,2.731-3.065.799-.843,1.487-1.532,2.065-2.065.577-.532,1.021-1.176,1.332-1.931-.755-.489-1.532-.988-2.331-1.499-.8-.511-1.644-.944-2.532-1.299-.044-.089-.166-.2-.366-.333s-.411-.255-.633-.366-.444-.211-.666-.3-.377-.133-.466-.133c-.4-.356-.822-.578-1.266-.667-.311,0-.577-.055-.799-.166s-.378-.211-.467-.3l-.133.2Z" fill="#000000"/><path d="M83.334,124.399c-.044.666.1,1.166.433,1.499s.611.743.833,1.232c-.089.622-.022,1.11.2,1.465-.134.267-.267.567-.4.9s-.333.61-.6.832c-.71.311-1.132.578-1.265.8s-.4.333-.799.333c-.223.222-1.244,1.176-1.466,1.399-.222-.089-.377-.2-.466-.334-.089-.133-.222-.31-.4-.532-.444-.134-.844-.367-1.199-.7s-.666-.71-.932-1.132c-.267-.422-.522-.866-.767-1.332-.244-.467-.455-.9-.632-1.299-.622-1.155-1.255-2.321-1.899-3.498-.644-1.176-1.299-2.342-1.965-3.497-.355-.577-.699-1.165-1.032-1.765-.333-.599-.678-1.21-1.033-1.832-.089-.089-.177-.188-.266-.299s-.178-.234-.267-.367c-.311-.444-.544-.944-.699-1.499-.156-.555-.477-1.01-.966-1.365-.844-.089-1.61.033-2.298.366s-1.299.766-1.832,1.299c.044.311.067.6.067.866v.799c0,1.022-.045,1.999-.134,2.931-.088.933-.133,1.91-.133,2.931c0,.444.022.9.067,1.366.044.466.111.921.2,1.365-.134.489-.2,1.022-.2,1.599c0,.311.033.6.1.866.066.266.1.555.1.866c0,.444-.145.744-.433.899-.289.156-.389.433-.3.833-.533.222-1.044.444-1.532.666-.489.222-.999.377-1.532.466-.222.045-.444.056-.666.034-.222-.023-.422.011-.6.1-.222.088-.399.255-.533.499-.133.244-.311.366-.533.366-.266,0-.421-.099-.466-.299-.044-.2-.133-.367-.266-.5-.222-.089-.4-.133-.533-.133s-.267-.067-.4-.2c.044-.4-.044-.699-.266-.899s-.333-.611-.333-1.233c0-.488.033-.954.099-1.398.067-.444.1-.911.1-1.399c0-.4-.055-.766-.166-1.099s-.211-.7-.3-1.099c-.044-.178-.044-.356,0-.533.045-.178.067-.356.067-.533c0-.8-.034-1.61-.1-2.432-.067-.821-.1-1.632-.1-2.431v-.866c0-.266.022-.533.067-.799.088-.267.166-.489.233-.666.066-.178.1-.4.1-.666c0-.844-.089-1.677-.267-2.498-.177-.822-.266-1.632-.266-2.432c0-.444.066-2.287.066-2.731c0-1.288-.022-2.553-.066-3.797-.045-1.243-.067-2.487-.067-3.73c0-.888.022-1.765.067-2.631.044-.866.066-1.743.066-2.631c0-1.11-.044-2.21-.133-3.298s-.133-2.209-.133-3.363c0-.4-.022-.667-.067-.8-.044-.133-.111-.211-.2-.233-.088-.022-.188-.044-.299-.067-.111-.022-.211-.099-.3-.233c0-.266.111-.455.333-.566s.333-.477.333-1.099c0-.355-.033-.711-.1-1.066s-.1-.71-.1-1.066c0-.532.111-1.065.333-1.598s.422-1.044.6-1.532c.533-.045.899-.045,1.099,0c.2.044.411.022.633-.067.133.489.422.744.866.766s.843.078,1.199.167c.399.044.788.144,1.165.299.378.156.744.234,1.099.234.089.266.278.455.567.566.288.111.588.211.899.299.355-.044.633-.199.833-.466.199-.266.477-.399.832-.399.267,0,.577.188.933.566.355.377.621.677.799.899.178.133.511.422.999.866.489.444,1.022.899,1.599,1.365.577.467,1.11.911,1.599,1.333.488.422.799.655.932.699c1.821,1.821,3.52,3.475,5.096,4.963c1.577,1.487,3.297,2.831,5.162,4.03.045.133.1.244.167.333s.144.2.233.333c0,.355-.066.622-.2.799-.133.178-.2.4-.2.666c0,.134.034.267.1.4.067.133.1.266.1.4.045.177.056.344.034.499-.023.156-.034.322-.034.5c0,.444.145.844.433,1.199.289.355.433.755.433,1.199-.089.4-.266.644-.533.733-.266.088-.488.199-.666.333-.089.088-.166.2-.233.333s-.144.244-.233.333c-.977.444-1.688.855-2.132,1.232-.444.378-.91.744-1.398,1.099-.134.089-1.288.833-1.599,1.033s-.589.41-.833.633c-.244.222-.366.399-.366.532c0,.311.189.744.566,1.299s.655.988.833,1.299c.488.8.932,1.588,1.332,2.365s.844,1.543,1.332,2.298c.888,1.377,1.721,2.776,2.498,4.197s1.543,2.842,2.298,4.263ZM72.476,99.619c-1.021-1.288-2.12-2.453-3.297-3.497s-2.298-2.143-3.364-3.297l-.732-.133c-.267-.445-.567-.833-.9-1.166s-.677-.677-1.032-1.033c.044.489.066.955.066,1.399v1.399c0,1.421-.033,2.809-.1,4.163-.066,1.355-.099,2.72-.099,4.097s.066,2.687.199,3.93c.933,0,1.777-.266,2.532-.799.311-.222,1.421-1.177,1.732-1.399.355-.222.766-.489,1.232-.8.466-.31.932-.621,1.399-.932.466-.311.91-.633,1.332-.966s.766-.655,1.032-.966Z" fill="#000000"/><path d="M120.57,104.349c-.089.177-.177.344-.266.499-.089.156-.156.322-.2.5.178.177.344.366.5.566.155.2.233.411.233.633c0,.177-.034.344-.1.499-.067.156-.078.3-.033.433-.178.311-.367.6-.567.866-.2.267-.344.555-.433.866-.177.178-.322.356-.433.533-.111.178-.211.355-.299.533-.222.089-.367.233-.433.433-.067.2-.189.366-.367.5-.044.177-.266.599-.666,1.265s-.844,1.377-1.332,2.132c-.489.755-.955,1.488-1.399,2.198-.444.711-.755,1.177-.933,1.399-.088.222-.188.4-.299.533s-.233.288-.367.466c-.088.133-.155.278-.199.433-.045.155-.111.278-.2.366-.089.178-.189.333-.3.467-.111.133-.211.311-.3.533-.444.577-.888,1.265-1.332,2.065-.444.799-.866,1.509-1.266,2.131-.222.355-1.043,1.776-1.265,2.132-.222.355-1.111,1.643-1.333,1.998-.355.267-.666.589-.932.966-.267.377-.577.699-.933.966-.577,0-.932-.267-1.065-.799-.578-.134-.866-.134-.866,0v.333c-.178.088-.3.222-.367.399-.066.178-.189.311-.366.4-.355-.089-.655-.233-.899-.433-.245-.2-.589-.278-1.033-.233-.178-.267-.377-.5-.599-.7-.222-.199-.422-.41-.6-.632-.089-.267-.211-.489-.366-.667-.156-.177-.3-.355-.433-.532-.133-.223-.267-.422-.4-.6s-.266-.355-.4-.533c-.31-.4-.61-.788-.899-1.166-.289-.377-.544-.766-.766-1.165-.355-.533-.699-1.077-1.032-1.632s-.678-1.099-1.033-1.632c-.178-.267-.355-.533-.533-.8-.177-.266-.333-.533-.466-.799-.089-.222-.211-.488-.366-.799-.156-.311-.345-.511-.567-.6-.088-.355-.244-.622-.466-.799-.222-.178-.444-.4-.666-.666-.311-.356-.6-.744-.866-1.166s-.533-.855-.799-1.299c-.888-1.243-1.721-2.465-2.498-3.664s-1.543-2.442-2.298-3.73c.222-.71.333-1.243.333-1.599c0-.355.111-.643.333-.865c0-.178.044-.445.133-.8.577-.977,1.132-1.865,1.665-2.664.489-.755.833-1.377,1.033-1.865.2-.489.411-1,.633-1.533.222-.133.399-.299.532-.499.134-.2.311-.389.533-.566.089-.489.289-.9.6-1.233s.511-.743.599-1.232c.4-.311.622-.666.666-1.066.578-.399.933-.932,1.066-1.598.356-.356.655-.755.9-1.199.244-.445.477-.911.699-1.399.533-.444.955-1.022,1.266-1.732.266-.178.466-.422.599-.733s.311-.577.533-.799c.355-.578.633-1.055.833-1.432.199-.378.41-.766.632-1.166.311,0,.511-.111.6-.333s.266-.311.533-.267c0-.399.111-.755.333-1.065.089-.045.222-.1.4-.167.177-.067.266-.144.266-.233-.089-.533-.067-.844.067-.933.133-.088.244-.177.333-.266.488.089.821.155.999.2.178.044.466.2.866.466.444,0,.755.089.932.266.178.178.378.311.6.4.178.178.322.355.433.533s.277.311.499.4c.356.488,1.91,2.709,2.265,3.197.489.666.988,1.299,1.499,1.898.511.6.988,1.255,1.432,1.966.133.222.378.61.733,1.165s.755,1.144,1.199,1.765c.444.622.844,1.188,1.199,1.699s.599.811.733.899c.133.222.422.644.866,1.266s.921,1.277,1.432,1.965s1.01,1.343,1.499,1.965c.488.622.821,1.021.999,1.199.488.666.855,1.21,1.099,1.632s.477.877.699,1.366Zm-15.254,12.523c.489-.666.866-1.266,1.133-1.799.266-.533.532-1.066.799-1.599.444-.532.71-.91.799-1.132s.2-.444.333-.666c.356-.533.722-1.066,1.099-1.599.378-.533.678-1.11.9-1.732.266-.177.466-.399.599-.666.133-.266.333-.51.6-.733-.267-.932-.578-1.654-.933-2.164-.355-.511-.71-1.011-1.066-1.499-.133-.222-.666-1.11-.799-1.332-.178-.134-.322-.267-.433-.4s-.233-.267-.366-.4c-.089-.222-.222-.51-.4-.866-.178-.222-.355-.422-.533-.599-.178-.178-.333-.4-.466-.666-.178-.178-.4-.422-.666-.733-.267-.311-.544-.655-.833-1.033-.289-.377-.544-.732-.766-1.065s-.4-.611-.533-.833c-.089-.222-.166-.411-.233-.566-.067-.156-.144-.322-.233-.5-.222-.311-1.11-1.354-1.332-1.665-.134.089-.256.144-.367.166-.111.023-.211.078-.3.167-.31.577-.655,1.11-1.032,1.599-.378.488-.744,1.021-1.099,1.598-.311.533-1.554,2.731-1.865,3.264-.222.311-.433.611-.633.9-.2.288-.411.61-.633.965-.222.311-.411.633-.566.966-.156.333-.344.655-.566.966-.356.444-.644.844-.866,1.199s-.444.777-.666,1.266c.133.266.344.633.632,1.099.289.466,1.488,2.298,1.732,2.698.245.399.389.666.433.799.356.311.644.655.866,1.033.222.377.511.743.866,1.099.178.355.378.666.6.932.222.267.444.555.666.866s.511.766.866,1.366c.355.599.71,1.21,1.066,1.832.355.621.71,1.199,1.065,1.731.356.533.644.866.866,1c.444-.489.811-1.033,1.099-1.632.289-.6.678-1.144,1.166-1.632Z" fill="#000000"/><path d="M145.35,130.461c-.267,0-.489.055-.666.166-.178.111-.378.211-.6.3-.355.222-.521.388-.499.499s-.034.167-.167.167c-.399,0-.788-.067-1.166-.2-.377-.133-.766-.2-1.165-.2-.355-.177-.689-.366-.999-.566-.311-.2-.622-.455-.933-.766-.4,0-.677.033-.833.1-.155.067-.344.078-.566.033-.577-.222-1.11-.544-1.599-.966-.488-.422-1.043-.743-1.665-.966-.177-.222-.377-.388-.599-.499s-.444-.255-.666-.433c-.4-.178-.989-.511-1.766-.999-.777-.489-1.598-1.011-2.464-1.566s-1.677-1.099-2.432-1.632-1.287-.954-1.598-1.265c-.178-.045-.444-.189-.8-.433-.355-.244-.699-.522-1.032-.833s-.633-.622-.899-.932c-.267-.311-.4-.578-.4-.8s.111-.411.333-.566.377-.344.466-.566c.045-.089.056-.211.034-.367-.023-.155-.012-.277.033-.366.222-.355.344-.633.366-.833.022-.199.056-.388.1-.566.222-.266.977-1.199,1.199-1.465-.044-.489.045-.844.267-1.066s.466-.444.732-.666c.222,0,.489.022.8.066.311.045.577.111.799.2.444.222.666.367.666.433c0,.067.045.145.133.233.222.178.444.333.666.467.223.133.445.266.667.399.488.356.988.711,1.498,1.066.511.355,1.033.711,1.566,1.066.621.355,1.365.821,2.231,1.399.866.577,1.654.999,2.365,1.265.089-.266.133-.621.133-1.065c0-.311-.066-1.577-.066-1.932c0-.489-.045-.977-.134-1.466-.088-.488-.177-.954-.266-1.398-.222-2.132-.355-4.219-.4-6.262-.044-.622-.089-1.221-.133-1.798-.044-.578-.067-1.177-.067-1.799c0-.844.012-1.688.034-2.531.022-.844.033-1.71.033-2.598c0-.755.022-1.51.067-2.265.044-.755.066-1.51.066-2.265s.067-3.508.067-4.263c0-1.11-.011-2.331-.033-3.664-.023-1.332.033-2.553.166-3.663.089-.444.222-.777.4-.999.799.044,1.443.077,1.932.1.488.022,1.043.033,1.665.033.177,0,.322.055.433.166s.233.167.366.167c.178,0,.322-.033.433-.1s.255-.1.433-.1c.311,0,.6.133.866.4.489-.133.866-.156,1.132-.067.223.222.367.533.433.933.067.399.145.777.234,1.132c0,.4.066,1.377.066,1.599c0,.488-.022.977-.066,1.465-.045.489-.067.977-.067,1.466c0,.577.033,1.154.1,1.732.067.577.1,1.154.1,1.732c0,.621-.022,1.199-.067,1.731-.044.533-.066,1.088-.066,1.666c0,.444.066,2.065.066,2.464c0,.933-.011,1.866-.033,2.798-.022.933-.033,1.865-.033,2.798c0,.222.011.488.033.799s.011.6-.033.866c0,.222-.089.466-.267.733.089,1.465.167,2.931.233,4.396.067,1.466.145,2.931.233,4.397c0,.355.023.743.067,1.165s.089.833.133,1.233c.089.488.133.977.133,1.465c0,.489.023.977.067,1.466.045.621.289,3.041.333,3.663.045.489.111.977.2,1.466.089.488.133.977.133,1.465c0,.622-.022,1.366-.066,2.232-.045.866-.178,1.587-.4,2.165Z" fill="#000000"/><path d="M163.735,113.341c.089.222.411.689.966,1.399.555.711,1.188,1.488,1.898,2.332.711.843,1.388,1.654,2.032,2.431s1.099,1.343,1.365,1.698c.489.622.966,1.233,1.433,1.832.466.6.899,1.233,1.298,1.899l1.199,1.998c.356.444.678.822.966,1.132.289.311.522.733.7,1.266.089.355.133.6.133.733c0,.311-.111.533-.333.666-.355,0-.544.055-.566.166-.022.112-.122.211-.3.3s-.455.145-.833.167c-.377.022-.677.033-.899.033-.4,0-.899-.011-1.499-.033-.599-.022-1.077.033-1.432.166-.089.045-.222.111-.4.2-.177.089-.31.133-.399.133-.355,0-.611-.055-.766-.166-.156-.111-.367-.189-.633-.233-.355-.4-.655-.811-.899-1.233-.245-.422-.522-.854-.833-1.299-.311-.31-.622-.588-.933-.832-.31-.244-.577-.522-.799-.833-.666-.977-1.354-1.932-2.065-2.864-.71-.933-1.443-1.843-2.198-2.731-.355-.489-.733-.933-1.132-1.333-.4-.399-.778-.843-1.133-1.332-.355-.444-.688-.921-.999-1.432s-.622-1.01-.933-1.499c-.266-.399-.621-.921-1.065-1.565s-.933-1.288-1.466-1.932-1.066-1.254-1.599-1.832c-.532-.577-.977-1.021-1.332-1.332-.044-.266-.155-.477-.333-.633-.177-.155-.377-.299-.599-.433-.089-.222-.189-.433-.3-.632-.111-.2-.167-.411-.167-.633c0-.311.067-.6.2-.866.089-.178.145-.344.167-.5.022-.155.077-.322.166-.499.222-.489.522-.966.9-1.433.377-.466.677-.965.899-1.498.089-.134.133-.278.133-.433c0-.156.044-.3.133-.433.089-.356.278-.655.566-.9.289-.244.522-.521.7-.832.222-.355.433-.722.633-1.099.2-.378.41-.789.632-1.233.667-1.11,1.366-2.187,2.099-3.23.732-1.044,1.476-2.099,2.231-3.164.578-.889,1.144-1.743,1.699-2.565.555-.821,1.121-1.654,1.698-2.498.311-.4.644-.866,1-1.399.355-.533.743-1.066,1.165-1.598.422-.533.855-1.022,1.299-1.466s.888-.799,1.333-1.066c.666-.044,1.11.1,1.332.433s.555.5.999.5c.577.133.955.311,1.132.533.178.222.378.444.6.666.622,0,1.121.111,1.499.333.377.222.743.555,1.099.999-.133.489-.333.922-.6,1.299-.266.378-.51.766-.733,1.166-.355.177-.61.422-.766.733-.155.31-.388.555-.699.732-.444.755-.91,1.477-1.399,2.165-.488.688-.977,1.366-1.465,2.032-.267.399-.544.755-.833,1.066-.289.31-.544.644-.766.999-.089.133-.377.733-.466.866-.533.843-1.11,1.632-1.732,2.364-.622.733-1.199,1.544-1.732,2.432-.178.311-.322.633-.433.966s-.255.655-.433.966c-.178.266-.433.621-.766,1.065s-.655.922-.966,1.432c-.311.511-.588,1-.833,1.466-.244.466-.366.855-.366,1.166.044.222.322.655.833,1.299.51.644,1.088,1.332,1.732,2.065.644.732,1.254,1.421,1.831,2.065.578.643.955,1.032,1.133,1.165Zm4.396-12.123c.311.666.644,1.243.999,1.732.134.177.289.333.467.466.177.133.311.311.399.533.089.089.178.278.267.566.089.289.177.5.266.633.133.355.4.755.8,1.199.399.444.599.844.599,1.199c0,.222-.044.466-.133.733-.089.266-.156.51-.2.732-.044.267-.067.544-.067.833s-.088.544-.266.766c-.222.222-.466.355-.733.4-.266.044-.51.155-.732.333-.089.089-.223.244-.4.466-.178.222-.355.466-.533.733-.178.266-.344.522-.5.766-.155.244-.233.433-.233.566-.533.045-.877.056-1.032.033-.156-.022-.322-.011-.5.034-.222-.222-.455-.411-.699-.566-.245-.156-.544-.3-.9-.433-.088-.356-.288-.766-.599-1.233-.311-.466-.577-.855-.799-1.165l-.467-.6c-.666-.933-1.276-1.832-1.832-2.698-.555-.866-.965-1.832-1.232-2.897.844-.622,1.499-1.088,1.965-1.399.467-.311.966-.6,1.499-.866.533-.267,1.055-.522,1.565-.766.511-.244.988-.544,1.433-.899.355,0,.599.022.732.066.133.045.222.089.267.133.044.045.1.122.166.233.067.112.211.234.433.367Z" fill="#000000"/><path d="M190.713,112.609c.088.222.422.699.999,1.432.577.732,1.232,1.532,1.965,2.398s1.454,1.698,2.165,2.498c.71.799,1.199,1.376,1.465,1.732.844,1.243,1.71,2.464,2.598,3.663s1.732,2.443,2.531,3.73c.222.223.4.5.533.833s.2.677.2,1.033c0,.399-.1.61-.3.632-.199.023-.41.078-.632.167-.445.311-.844.488-1.199.533-.356.044-.644.066-.866.066-.489,0-1.022-.011-1.599-.033s-1.066.011-1.466.1c-.133.044-.288.122-.466.233s-.311.167-.4.167c-.355,0-.61-.056-.766-.167-.155-.111-.366-.211-.632-.3-.356-.399-.678-.821-.966-1.265-.289-.444-.589-.888-.9-1.332-.266-.311-.555-.589-.865-.833-.311-.244-.6-.544-.866-.899-.711-1.022-1.433-1.999-2.165-2.931-.733-.933-1.477-1.865-2.232-2.798-.355-.488-.744-.955-1.166-1.399-.421-.444-.81-.888-1.165-1.332-.356-.489-.689-.999-.999-1.532-.311-.533-.644-1.044-1-1.532-.266-.444-.644-.988-1.132-1.632s-.999-1.299-1.532-1.965-1.077-1.299-1.632-1.899c-.555-.599-1.033-1.054-1.432-1.365c0-.311-.089-.533-.267-.666-.177-.134-.377-.289-.599-.467-.089-.222-.2-.433-.333-.632-.133-.2-.2-.433-.2-.7c0-.177.022-.333.067-.466.044-.133.088-.267.133-.4.089-.177.144-.344.166-.499.022-.156.078-.322.167-.5.222-.577.544-1.088.966-1.532s.744-.955.966-1.532c.044-.178.066-.344.066-.5c0-.155.045-.322.133-.499.134-.267.333-.533.6-.8.266-.266.511-.555.733-.866.222-.399,1.11-1.998,1.332-2.398.622-1.021,1.31-2.009,2.065-2.964s1.465-1.898,2.131-2.831c.622-.888,1.199-1.765,1.732-2.631s1.111-1.743,1.732-2.631c.311-.444.666-.944,1.066-1.499s.81-1.099,1.232-1.632.855-1.032,1.299-1.499c.444-.466.888-.81,1.333-1.032.754-.089,1.243.033,1.465.366s.533.5.933.5c.621.133,1.043.333,1.265.599.222.267.444.511.666.733.578,0,1.066.111,1.466.333.399.222.799.555,1.199.999-.178.489-.411.933-.7,1.332-.288.4-.544.822-.766,1.266-.355.133-.61.355-.766.666-.155.311-.388.577-.699.8-.489.754-.977,1.498-1.466,2.231-.488.733-.977,1.432-1.465,2.098-.222.267-.477.478-.766.633-.289.156-.522.389-.7.7-.088.133-.155.277-.199.433-.045.155-.111.299-.2.432-.533.844-1.133,1.666-1.799,2.465s-1.243,1.643-1.732,2.531c-.222.311-.399.633-.533.966-.133.333-.288.655-.466.966-.177.267-.433.644-.766,1.133-.333.488-.666.988-.999,1.498-.333.511-.622.999-.866,1.466-.244.466-.366.855-.366,1.165.044.223.333.667.866,1.333s1.121,1.376,1.765,2.131s1.265,1.466,1.865,2.132c.599.666.988,1.088,1.166,1.266Z" fill="#000000"/><path d="M233.677,83.166c-.088.178-.122.355-.1.533.023.178.034.377.034.599-.089.533-.089.8,0,.8s.133.044.133.133l-.466.666c0,.267-.056.511-.167.733s-.144.488-.1.799c-.133.222-.255.444-.366.666s-.278.444-.5.666h-.866c-.488,0-1.01.034-1.565.1-.555.067-1.099.1-1.632.1-.089,0-.6-.066-.733-.066-.089,0-.621.066-.799.066-.666,0-1.321-.033-1.965-.1-.644-.066-1.321-.1-2.032-.1h-.533c-.177,0-.377.023-.599.067-.045.755-.078,1.521-.1,2.298s-.033,1.566-.033,2.365c0,.222-.134,1.177-.134,1.399-.044.577-.077,1.132-.1,1.665-.022.533-.033,1.088-.033,1.665c0,1.244.011,2.487.033,3.731.023,1.243.056,2.509.1,3.796.045.667.089,1.311.134,1.932.044.622.066,1.266.066,1.932c0,1.51-.022,3.009-.066,4.496-.045,1.488-.067,2.987-.067,4.497c0,.488-.022.943-.067,1.365-.044.422-.066.877-.066,1.366c0,1.021.022,2.042.066,3.064.045,1.021.067,2.043.067,3.064c0,.488-.067,2.442-.067,2.931-.222.355-.377.666-.466.932-.089.267-.355.4-.799.4-.311-.089-.455-.189-.433-.3s-.011-.211-.1-.299c-.4-.045-.7-.011-.899.1-.2.111-.433.21-.7.299-.133-.044-.277-.066-.433-.066-.155,0-.3,0-.433,0-.089,0-.177.033-.266.1-.089.066-.289.1-.6.1-.266.044-.422,0-.466-.134-.044-.133-.178-.2-.4-.2-.222.134-.477.234-.766.3-.288.067-.566.1-.832.1-.267-.178-.389-.344-.367-.499.022-.156-.011-.322-.1-.5-.044-.089-.122-.211-.233-.366-.111-.156-.211-.278-.3-.367.089-.621.156-1.177.2-1.665.045-.489.067-1.021.067-1.599c0-1.154-.045-2.287-.133-3.397-.089-1.11-.134-2.243-.134-3.397c0-.355.045-.733.134-1.133.088-.399.133-.821.133-1.265-.089-.355-.111-.566-.067-.633.045-.067.067-.144.067-.233c0-.267-.067-1.332-.067-1.599c0-.533.067-2.664.067-3.197c0-.222-.067-1.177-.067-1.399-.044-.4-.055-.822-.033-1.266s.033-.888.033-1.332c0-2.132-.033-4.241-.1-6.328-.066-2.087-.1-4.197-.1-6.328c0-1.066.056-2.121.167-3.164.111-1.044.166-2.099.166-3.164c0-.134-.044-.311-.133-.533s-.177-.378-.266-.467c-.222,0-1.044-.066-1.266-.066-.488,0-.955.066-1.399.2-.843.044-1.654.1-2.431.166-.777.067-1.565.122-2.365.167-.533-.045-.855-.056-.966-.034-.111.023-.233.034-.366.034-.355,0-.622-.089-.799-.267v-.866c-.267-.533-.378-.821-.333-.866.044-.044.066-.111.066-.199c0-.134-.122-.278-.366-.433-.244-.156-.367-.411-.367-.766-.044-.356-.133-.622-.266-.8-.133-.177-.2-.355-.2-.533c0-.311.067-.666.2-1.065.4-.223.788-.378,1.166-.467.377-.089.81-.2,1.299-.333.266-.089.51-.177.732-.266s.467-.156.733-.2c.311-.045,1.554-.089,1.865-.133.666-.134,1.366-.245,2.099-.333.732-.089,1.432-.134,2.098-.134.622,0,1.243.078,1.865.234.622.155,1.177.233,1.665.233.711,0,1.388.044,2.032.133s1.321.133,2.032.133c.088,0,.233.033.433.1.199.067.433.1.699.1h6.461c.356.089.611.111.766.067.156-.045.3-.067.433-.067.356,0,1.643.133,1.999.133.311,0,.555-.022.732-.066.356.044.689.144,1,.299.31.156.666.233,1.065.233.178.134.311.3.4.5s.244.344.466.433Z" fill="#000000"/><g id="eA5ceTOIWhg29_tr" transform="translate(480.328806,131.193) rotate(0)"><path d="M536.523,129.978c1.038-1.037,2.156-1.915,3.353-2.632.639-.319,1.517-.718,2.634-1.196c1.038-.558,2.155-1.117,3.353-1.675c1.117-.478,2.235-.957,3.352-1.435s2.035-.837,2.754-1.076c1.596-.638,3.113-1.276,4.549-1.913c1.357-.718,2.714-1.356,4.071-1.914.639-.319,1.317-.518,2.035-.598.559-.079,1.118-.239,1.676-.478c1.198-.398,2.355-.917,3.472-1.555c1.038-.717,2.196-1.316,3.473-1.794c3.352-1.594,6.704-3.109,10.057-4.544c3.352-1.436,6.704-3.03,10.057-4.785c4.47-2.232,8.98-4.345,13.529-6.3383c4.47-1.9135,8.94-4.0663,13.41-6.4586.319.0001.678-.0396,1.077-.1193.319-.1594.679-.279,1.078-.3586.718-.3988,2.434-1.236,5.148-2.5117c2.39792-1.0888,4.99391-2.24366,7.78874-3.4645-.1359-.3823-.27211-.76463-.40774-1.1469-.179-.5017-.294-.9185-.347-1.2504-.213-.723-.445-1.4055-.695-2.0474-.341-.5905-.609-1.192-.805-1.8043-.143-.2805-.169-.5976-.077-.9513.056-.2727.039-.5345-.05-.7853-.088-.5532-.293-1.0697-.616-1.5496-.414-.4285-.692-.9341-.834-1.5169-.679-1.4833-1.287-2.9776-1.822-4.4827-.535-1.5052-1.215-2.9886-2.039-4.4501-1.003-1.9632-1.888-3.9631-2.656-5.9996-.713-2.0069-1.644-3.9811-2.791-5.9225.073-.1621.119-.3389.138-.5306-.072-.1402-.098-.3062-.079-.4978-.198-.3101-.565-1.0666-1.101-2.2694-.21524-.52286-.43385-1.0677-.65584-1.6345-1.62246.67774-3.15639,1.32591-4.60116,1.9445-1.756.6377-3.113,1.1957-4.071,1.6742-4.23,1.8337-8.461,3.7472-12.691,5.7406-.11086.05034-.22167.10062-.33243.15086.02137.11228.03185.22963.03143.35204.137.5672.294,1.0901.472,1.5686-.142.6034-.064,1.0111.234,1.2233.513,1.1872,1.256,2.3028,2.228,3.3471.792,1.151,1.445,2.3201,1.958,3.5073.634.9209,1.657,1.7078,3.07,2.3608c1.232.7598,2.006,1.6626,2.32,2.7083-.12.2664-.081.4703.117.6117-.12.2663.308.3363,1.285.2099-.601.7463-.653,1.2963-.156,1.6498.317.4605.793.8584,1.43,1.194.177.4784.514.8945,1.011,1.2481.177.4785.125,1.0284-.157,1.6498.197.7268.393,1.4535.589,2.1803-.123.8516.073,1.5784.589,2.1803l1.639,1.1668c-4.292,1.6417-7.655,2.8289-10.09,3.5617-2.555.9992-4.472,1.7486-5.749,2.2481-2.875,1.1241-6.059,2.2045-9.551,3.2413-4.053,1.6943-6.269,2.5242-6.647,2.4896-.698.0903-2.006.5101-3.922,1.2595-2.456,1.0699-4.542,1.7575-6.257,2.063-1.895.4128-3.052.6458-3.471.6998-1.815.235-3.081.273-3.797.115-.199-.141-.358-.372-.476-.6905-.438-.1941-.785-.4416-1.043-.7425-.118-.319-.237-.638-.355-.957s-.117-.6116.004-.878c-.038-.4965-.166-.9396-.383-1.3293-.537-.2648-.845-.6011-.923-1.0089-.199-.1414-.008-.4168.572-.8261.4-.3024.57-.5334.511-.6929.201-.4439.013-.7538-.564-.9299-.897-.0511-1.315-.2896-1.253-.7154-.814-.814-1.398-1.6995-1.753-2.6565-.354-.9569-1.168-1.7709-2.441-2.442-1.391-.99-2.393-2.114-3.005-3.3719-.473-1.276-1.635-2.3375-3.485-3.1846.36-.2136.65-.4183.87-.6139-.09142-.06464-.04828-.18151.1279-.35055-.5028.2525-1.0021.50848-1.4979.76795-1.677.7175-3.313,1.475-4.909,2.2724-1.676.7175-3.353,1.3553-5.029,1.9132-2.474,1.0364-4.948,2.0729-7.423,3.1093-2.554.9566-5.028,1.993-7.423,3.1093l-5.268,2.6313c-.1708-.19946-.32507-.39511-.46281-.58694-.1804.32373-.34871.65512-.50519.99414-.266.4742-.426.9949-.478,1.5622-.262.134-.417.3146-.464.5417-.107.1897-.184.3981-.232.6251-.431,1.0989-.958,2.1796-1.581,3.2421-.645,1.0062-1.213,2.0392-1.703,3.1012-.537,1.289-1.112,2.596-1.724,3.923-.634,1.271-1.22,2.55-1.758,3.839-.159.284-.314.701-.462,1.25-.208.512-.423,1.061-.647,1.648-.186.568-.412,1.09-.679,1.564-.229.455-.501.797-.815,1.026-.15.076-.281.144-.393.201-.133.001-.238.02-.312.059-.187.096-.326.2-.417.314-.053.095-.173.191-.36.286-.112.058-.224.115-.336.173-.171.02-.489-.054-.954-.221-.00237-.0015-.00474-.003-.0071-.0045-.64551.30271-1.27448.65811-1.8869,1.0655-.711.393-1.422.786-2.133,1.179-.426.334-.882.631-1.37.89-.509.192-1.007.418-1.495.677-.549.183-1.089.399-1.617.648-.509.193-.966.49-1.37.891-.287-.066-.521-.027-.704.117-.0443.0168-.08812.03518-.13147.05512.36481.45592.56064,1.04822.58847,1.77888-.061.773.028,1.432.267,1.978.382.581.722,1.213,1.021,1.895.211.72.507,1.371.889,1.952.018.186.173.347.463.481.161.222.346.45.554.685.08803.06505.16244.1381.22326.2191.46873-.22173.94428-.43513,1.42674-.6401.345-.23.721-.36,1.13-.39.387-.097.732-.265,1.036-.504.163-.086.294-.21.395-.373.12-.219.282-.367.486-.444.386-.22.803-.402,1.251-.547.427-.211.863-.451,1.31-.719.183-.143.436-.301.761-.474.326-.172.651-.345.976-.517.366-.164.722-.298,1.068-.404.16242-.08646.30986-.16093.44206-.22341.13261-.26024.24726-.43035.34394-.50959.119-.041.238-.082.357-.123.199-.069.351-.09.456-.062.145.013.317-.014.515-.083.08-.027.166-.089.259-.185.119-.041.258-.089.417-.144.383-.068.818-.028,1.305.122.527.136,1.059.334,1.598.593.579.245,1.124.47,1.637.674.499.273.907.45,1.223.532c1.302.504,2.631.967,3.986,1.389c1.382.477,2.723.968,4.025,1.472c1.106.381,2.244.687,3.417.918c1.198.286,2.343.654,3.434,1.103.197.123.401.212.611.266.197.123.435.136.713.04.445.355.931.601,1.458.737.31888.10956.63975.20815.96281.29538-.10063-.3576.04299-.77334.43119-1.24738.559-.877.958-1.436,1.197-1.675Zm-59.596,12.96c.01567-.19067.02221-.3739.01964-.54969-.05057-.04917-.10111-.09461-.15164-.13631-.227-.236-.414-.525-.56-.867.07733-.10087.22758-.22066.45073-.35937-.07578-.17758-.16803-.34178-.27673-.49263-.388-.643-.626-1.4-.713-2.271.02-.723-.131-1.307-.453-1.752-.321-.445-.557-.959-.708-1.543-.196-.11-.197-.353-.004-.729.063-.287-.023-.46-.26-.52-.054-.074-.193-.079-.417-.014-.313.103-.476.092-.488-.032-.155-.16-.224-.39-.208-.689-.113-.211-.271-.402-.473-.574-.142-.036-.266-.128-.374-.276-.107-.149-.214-.297-.321-.445-.06184-.18645-.08505-.38959-.06964-.6094-.10042-.02287-.20073-.04573-.30036-.0686-.144-.094-.341-.355-.59-.781-.064-.2-.106-.394-.129-.584-.043-.257-.107-.518-.191-.784-.494-.359-.825-.804-.994-1.336-.128-.522-.368-1.039-.72-1.551.119-.342.105-.746-.042-1.211-.208-.294-.414-.526-.62-.696-.227-.237-.414-.526-.56-.868.161-.209.638-.502,1.431-.876.772-.44,1.626-.862,2.562-1.266.914-.47,1.768-.892,2.561-1.266.834-.365,1.373-.581,1.617-.649.081-.105.172-.176.274-.215.081-.105.141-.214.181-.329c1.486-.462,2.88-1.039,4.18-1.729c1.342-.681,2.725-1.291,4.149-1.829c1.1-.366,2.137-.808,3.113-1.326.975-.517,1.981-.997,3.019-1.439.345-.23.721-.36,1.13-.39.387-.097.732-.265,1.036-.504.163-.086.295-.21.395-.372.12-.219.282-.367.486-.444.386-.221.803-.403,1.251-.548.427-.211.863-.45,1.31-.718.183-.144.436-.302.762-.474.325-.173.65-.345.975-.518.366-.163.722-.298,1.068-.404.25478-.13484.47268-.24079.65275-.31737.16993-.38497.33668-.75485.50025-1.10963.405-.815.68-1.327.823-1.536-.005-.132.019-.246.072-.341-.005-.132-.03-.255-.073-.368.842-1.309,1.54-2.646,2.094-4.011.591-1.383,1.259-2.7387,2.005-4.0665.607-.9868,1.119-1.9917,1.534-3.015.415-1.0232.878-2.0373,1.389-3.0423.117-.3976.323-.7391.616-1.0246.235-.3228.392-.6735.471-1.0519.069-.1706.09-.3502.063-.539-.048-.2453-.019-.4628.088-.6525.154-.4168.356-.8244.607-1.223.191-.4359.372-.9001.542-1.3925.048-.2271.141-.5112.28-.8523.138-.341.276-.6821.415-1.0232.175-.3602.362-.6922.559-.9958.138-.3411.261-.6065.367-.7962.272-.342.651-.6375,1.137-.8864.10643-.05464.3673-.12735.78259-.2182.21165-.29836.37978-.50991.50441-.6347c1.038-1.037,2.156-1.9144,3.353-2.6322.639-.3189,1.517-.7176,2.634-1.1959c1.038-.5582,2.155-1.1164,3.353-1.6745c1.117-.4784,2.235-.9567,3.352-1.4351s2.035-.8371,2.754-1.0762c1.596-.6378,3.112-1.2756,4.549-1.9134c1.357-.7177,2.714-1.3556,4.071-1.9136.639-.319,1.317-.5182,2.035-.5977.559-.0796,1.118-.239,1.676-.4782c1.197-.3985,2.355-.9167,3.472-1.5547c1.038-.7178,2.195-1.3158,3.473-1.7941c3.352-1.5947,6.704-3.1096,10.057-4.5447c3.352-1.4351,6.704-3.0298,10.057-4.7841c4.47-2.2326,8.979-4.3456,13.529-6.3388c4.47-1.9134,8.94-4.0663,13.41-6.4585.319.0001.678-.0397,1.077-.1193.319-.1595.679-.279,1.078-.3587.718-.3987,2.434-1.2359,5.148-2.5117c2.634-1.1959,5.507-2.4716,8.62-3.827c3.033-1.4352,5.907-2.7109,8.621-3.827c2.634-1.196,4.35-1.8736,5.148-2.0329.319.479.438.9978.358,1.5563-.16.4788-.2.9975-.12,1.5562.558.5588,1.316.8384,2.274.8388.159.9577.598,1.7161,1.316,2.275.638.6387.717,1.5165.238,2.6336.319.3193.678.5988,1.077.8384.319.1597.599.3593.838.5988.239.7184.279,1.2371.119,1.5562-.0657.06554-.13133.13107-.19693.1966.0895.25918.17216.52548.24793.7989.285.8632.561,1.6711.829,2.4237.177.804.372,1.4164.587,1.8371.696,1.8962,1.465,3.7816,2.305,5.656.804,1.9555,1.554,3.8814,2.25,5.7776.643,1.5644,1.404,3.0922,2.283,4.5833.842,1.5722,1.539,3.1661,2.092,4.7819.053.3319.151.6381.294.9186.052.3319.268.6014.647.8086.032.8259.227,1.5894.585,2.2905.322.7822.689,1.5387,1.101,2.2695.268.7525.581,1.4794.939,2.1806.267.7526.462,1.5161.585,2.2905.28937.8597.57814,1.71933.86678,2.579.11343-.03117.21517-.05574.30522-.0737.319.4789.438.9977.358,1.5563-.04291.12918-.07722.26126-.10288.39627.16461.54436.3501,1.07685.55658,1.59745.47116.26726,1.03792.40101,1.7003.40129.159.9577.598,1.716,1.316,2.2749.638.6387.717,1.5166.238,2.6336.319.3194.678.5988,1.077.8384.319.1597.599.3594.838.5989.239.7183.279,1.237.119,1.5562-.24.2393-.479.4786-.719.7179-.399.3989-.758.678-1.077.8375-.399.2393-.799.5583-1.198.9572-.159.1595-.279.359-.359.5983-.24.2394-.519.5185-.838.8376-.878.7179-2.076,1.4356-3.592,2.1532-1.597.7974-3.313,1.5548-5.149,2.2723-1.915.7973-3.711,1.5551-5.387,2.2721-1.756.638-3.113,1.196-4.071,1.674-4.23,1.834-8.461,3.748-12.691,5.741-4.39,1.993-8.7,3.907-12.931,5.74-3.512,1.595-6.984,3.309-10.416,5.143-3.592,1.834-7.184,3.509-10.776,5.024-.718.239-1.396.518-2.035.837-.718.239-1.357.638-1.916,1.196-1.756.478-3.432,1.116-5.028,1.913-1.756.798-3.472,1.635-5.148,2.512-1.677.717-3.313,1.475-4.909,2.272-1.676.718-3.353,1.356-5.029,1.914-2.474,1.036-4.948,2.072-7.423,3.109-2.554.956-5.028,1.993-7.423,3.109l-3.7292,1.86248c-.03679.09443-.06804.20529-.0938.33252-.004.574-.212.963-.623,1.169-.384.26-.636.41-.755.451-.516.179-.992.248-1.427.207-.211-.054-.487-.15-.829-.286-.356-.068-.724-.163-1.106-.286-.342-.136-.684-.272-1.026-.409-.341-.136-.611-.265-.808-.388-.473-.218-.933-.409-1.38-.573-.461-.095-.896-.231-1.303-.408-.211-.055-.388-.184-.531-.389-.118-.15-.262-.259-.433-.328-.328-.204-.69-.334-1.085-.388-.409.014-.798-.074-1.166-.265-1.079-.327-2.131-.695-3.157-1.103-1.026-.409-2.105-.736-3.238-.981-1.474-.381-2.915-.837-4.323-1.368-1.367-.545-2.815-.967-4.343-1.266-.052-.11-.124-.212-.215-.308-.106-.027-.204-.088-.296-.184-.25-.041-.81-.197-1.678-.469-.38225-.13187-.77832-.27247-1.18841-.42177-.02355.01551-.04708.0311-.07059.04677-.711.393-1.422.786-2.133,1.178-.426.335-.882.632-1.37.891-.509.192-1.007.417-1.495.676-.549.183-1.089.4-1.617.649-.509.192-.966.489-1.37.89-.287-.065-.521-.026-.704.117-.203.077-.396.187-.579.331-1.036.565-2.134,1.055-3.294,1.469-1.141.357-2.24.784-3.297,1.283-1.24.643-2.52,1.276-3.842,1.9-1.302.566-2.572,1.171-3.812,1.813-.305.115-.691.336-1.158.661-.488.259-1.006.542-1.554.848-.508.316-1.016.57-1.525.763-.467.201-.896.289-1.284.262-.164-.037-.307-.07-.43-.098-.103-.085-.195-.137-.277-.156-.205-.046-.379-.055-.521-.026-.102.039-.255.035-.46-.012-.123-.028-.246-.056-.369-.084-.143-.094-.34-.355-.589-.782-.064-.199-.106-.394-.129-.584-.043-.256-.107-.517-.191-.783-.494-.359-.825-.804-.994-1.336-.128-.522-.368-1.039-.72-1.551.119-.343.105-.747-.042-1.212-.03536-.04998-.07066-.09817-.10591-.14456-.11448.02908-.24168.07427-.38209.13456v-.00001Z" transform="translate(-481.940505,-133.68726)" fill="#000000"/></g></svg>
