<?xml version="1.0" encoding="UTF-8" standalone="no"?><!DOCTYPE svg PUBLIC "-//W3C//DTD SVG 1.1//EN" "http://www.w3.org/Graphics/SVG/1.1/DTD/svg11.dtd"><svg width="100%" height="100%" viewBox="0 0 772 335" version="1.1" xmlns="http://www.w3.org/2000/svg" xmlns:xlink="http://www.w3.org/1999/xlink" xml:space="preserve" xmlns:serif="http://www.serif.com/" style="fill-rule:evenodd;clip-rule:evenodd;stroke-linejoin:round;stroke-miterlimit:2;"><g><path d="M449.47,185.131c-1.464,-9.485 -3.537,-46.419 0,-56.909c2.71,-8.033 12.252,-14.59 13.716,-14.59c0.178,-0 48.541,-34.743 51.947,-36.298c11.473,-5.236 24.669,-0.398 30.258,-0.807c7.982,-0.586 12.831,5.394 26.378,2.881c12.161,-2.256 19.932,-4.946 28.009,-4.353c7.128,0.524 8.76,5.277 8.473,6.414c-1.415,5.616 -76.347,28.863 -78.262,30.529c-5.638,4.904 -51.677,8.271 -52.111,9.404c-1.01,2.637 -14.439,1.739 -17.234,7.376c-4.757,9.595 -5.542,44.429 -2.53,55.837c1.969,-1.278 3.826,-3.242 3.826,-3.242l-0,36.118l-33.51,0l0,-36.118c0,0 1.2,0.665 5.078,0.882c2.631,0.148 6.636,-1.058 9.472,-0.51c3.57,0.691 4.847,3.019 6.49,3.386Z" style="fill:#aa1e36;"/><path d="M21.281,314.122c-0.552,-0.552 -0.828,-1.311 -0.828,-2.277c-0,-0.691 0.034,-1.277 0.103,-1.76c0.069,-0.483 0.173,-1.07 0.311,-1.76c0.69,-3.175 1.035,-6.384 1.035,-9.628c-0,-3.244 0.138,-6.453 0.414,-9.628c0.138,-1.932 0.242,-3.865 0.311,-5.797c0.069,-1.933 0.103,-3.865 0.103,-5.798c0,-11.456 -0.345,-22.878 -1.035,-34.266c-0.69,-11.388 -1.035,-22.879 -1.035,-34.474c-0,-8.006 0.138,-16.046 0.414,-24.121c0.276,-8.075 0.483,-16.184 0.621,-24.328c1.242,-0.691 2.76,-0.967 4.555,-0.829c1.794,0.138 3.244,-0.483 4.348,-1.863c0.69,-0.138 1.38,-0.173 2.07,-0.103c0.691,0.069 1.381,0.103 2.071,0.103c1.518,0 2.968,-0.483 4.348,-1.449c1.38,-0.967 2.899,-1.795 4.555,-2.485c0.828,0.276 1.415,0.38 1.76,0.311c0.345,-0.069 0.725,-0.104 1.139,-0.104c0.414,0 1.311,0.483 2.691,1.449c1.381,0.967 2.899,2.071 4.555,3.313c1.657,1.243 3.21,2.416 4.659,3.52c1.449,1.104 2.381,1.795 2.795,2.071c3.451,2.622 6.522,5.486 9.214,8.592c2.692,3.106 5.349,6.246 7.971,9.421c2.485,3.175 5.177,6.384 8.075,9.628c2.899,3.243 5.729,6.246 8.489,9.006c0.966,1.105 1.967,2.071 3.002,2.899c1.036,0.828 2.036,1.794 3.003,2.899c0.414,0.552 0.793,1.138 1.138,1.76c0.346,0.621 0.725,1.276 1.139,1.967c0.828,0.966 1.795,1.794 2.899,2.484c1.104,0.69 2.139,1.519 3.106,2.485c0.69,0.552 1.725,1.656 3.105,3.313c1.381,1.656 2.071,2.898 2.071,3.726c-0,0.553 -0.138,1.036 -0.414,1.45c-0.276,0.414 -0.552,0.897 -0.828,1.449c-0.138,0.414 -0.208,1.035 -0.208,1.864c0,0.828 -0.069,1.38 -0.207,1.656c-1.38,1.104 -2.139,1.794 -2.277,2.07c-0.138,0.276 -0.345,0.553 -0.621,0.829c-0.414,0.552 -0.932,1 -1.553,1.345c-0.621,0.346 -1.07,0.863 -1.346,1.553c-0.276,0.414 -0.38,0.829 -0.311,1.243c0.07,0.414 -0.034,0.897 -0.31,1.449c-0.69,1.518 -1.794,2.968 -3.313,4.348c-1.518,1.38 -2.83,2.899 -3.934,4.555c-1.518,2.485 -3.037,4.969 -4.555,7.454c-1.518,2.484 -3.244,4.9 -5.176,7.247c-0.828,1.104 -4.348,5.314 -5.176,6.418c-0.69,0.828 -1.312,1.691 -1.864,2.588c-0.552,0.897 -1.173,1.898 -1.863,3.002c-1.519,1.933 -7.178,9.456 -8.696,11.388c-1.657,2.347 -3.451,4.659 -5.384,6.936c-1.932,2.278 -3.657,4.59 -5.176,6.936c-1.518,2.485 -3.106,4.763 -4.762,6.833c-1.656,2.071 -3.451,4.072 -5.383,6.004c-0.552,0.415 -1.242,1.036 -2.071,1.864c-0.828,0.828 -1.656,1.242 -2.484,1.242c-0.552,0 -1.001,-0.207 -1.346,-0.621c-0.345,-0.414 -0.863,-0.621 -1.553,-0.621c-0.138,-0 -0.552,0.069 -1.242,0.207c-0.69,0.138 -1.519,0.276 -2.485,0.414l-3.727,0.414c-2.208,1.104 -3.796,1.622 -4.762,1.553c-0.966,-0.069 -1.932,-0.035 -2.899,0.104c-0.552,0.138 -1,0.345 -1.345,0.621c-0.345,0.276 -0.725,0.414 -1.139,0.414c-0.966,-0 -1.726,-0.449 -2.278,-1.346c-0.552,-0.897 -1.38,-1.277 -2.484,-1.139Zm62.114,-89.445c0,-0.69 -0.655,-1.656 -1.966,-2.899c-1.312,-1.242 -2.313,-2.139 -3.003,-2.691c-0.966,-0.829 -2.105,-1.622 -3.416,-2.381c-1.311,-0.76 -2.381,-1.622 -3.209,-2.589c-0.69,-0.828 -3.244,-4.348 -3.934,-5.176c-2.485,-2.76 -5.004,-5.521 -7.558,-8.282c-2.553,-2.76 -4.796,-5.797 -6.729,-9.11c-1.242,-0.828 -2.415,-1.794 -3.519,-2.899c-1.105,-1.104 -2.416,-2.001 -3.934,-2.691c-0.276,0.828 -0.38,1.691 -0.311,2.588c0.069,0.897 0.104,1.76 0.104,2.588c-0,3.175 -0.138,6.28 -0.415,9.317c-0.276,3.037 -0.414,6.074 -0.414,9.11c0,7.454 0.173,14.804 0.518,22.051c0.345,7.247 0.518,14.528 0.518,21.844c-0,2.76 0.034,5.521 0.103,8.282c0.069,2.76 0.311,5.521 0.725,8.282c-0.276,0.828 -0.414,1.587 -0.414,2.277c-0,0.69 0.138,1.588 0.414,2.692c1.104,-0.69 2.036,-1.553 2.795,-2.588c0.759,-1.035 1.484,-2.036 2.174,-3.002c2.347,-3.037 4.659,-6.108 6.936,-9.214c2.278,-3.106 4.59,-6.246 6.936,-9.421c1.519,-2.07 3.072,-4.106 4.659,-6.108c1.587,-2.001 3.14,-4.106 4.659,-6.315c0.414,-0.552 1.069,-1.518 1.966,-2.898c0.898,-1.381 1.795,-2.796 2.692,-4.245c0.897,-1.449 1.726,-2.795 2.485,-4.037c0.759,-1.243 1.138,-2.071 1.138,-2.485Z" style="fill:#f2dad9;fill-rule:nonzero;"/><path d="M158.761,170.844c0,1.242 -0.414,2.174 -1.242,2.795c-0.828,0.621 -1.587,1.415 -2.277,2.381c-1.381,1.243 -2.589,2.519 -3.624,3.831c-1.035,1.311 -2.243,2.588 -3.623,3.83c-0.552,0.552 -1.312,1.277 -2.278,2.174c-0.966,0.897 -1.967,1.795 -3.002,2.692c-1.035,0.897 -2.07,1.691 -3.106,2.381c-1.035,0.69 -1.898,1.035 -2.588,1.035c-1.104,0 -2.519,-0.379 -4.244,-1.139c-1.726,-0.759 -3.21,-1.276 -4.452,-1.552c-0.966,-0.138 -1.829,-0.242 -2.588,-0.311c-0.759,-0.069 -1.484,-0.449 -2.174,-1.139c-2.485,-0.552 -4.072,-1.415 -4.762,-2.588c-0.69,-1.173 -1.449,-2.381 -2.278,-3.623c0,-0.552 0.207,-0.897 0.621,-1.036c0.415,-0.138 0.76,-0.414 1.036,-0.828c1.38,-1.794 2.553,-3.278 3.52,-4.451c0.966,-1.174 2.07,-2.381 3.312,-3.624c2.347,-2.07 4.59,-4.21 6.729,-6.418c2.14,-2.209 4.383,-4.279 6.73,-6.212c1.104,-0.138 1.932,-0.552 2.484,-1.242c0.552,-0.69 1.38,-1.035 2.485,-1.035c1.104,-0 2.036,0.345 2.795,1.035c0.759,0.69 1.449,1.484 2.07,2.381c0.622,0.897 1.243,1.795 1.864,2.692c0.621,0.897 1.346,1.553 2.174,1.967c0.966,0.69 2.277,1.587 3.934,2.691c1.656,1.105 2.484,2.209 2.484,3.313Zm-28.365,38.511c0.966,0.552 1.691,1.277 2.174,2.174c0.483,0.898 1.207,1.553 2.174,1.967c0.828,0.414 1.725,0.621 2.691,0.621c0.967,0 1.795,0.138 2.485,0.415c0.552,0.276 0.966,0.621 1.242,1.035c0.276,0.414 0.552,0.828 0.828,1.242c0.829,0.69 2.105,1.311 3.831,1.864c1.725,0.552 2.864,1.173 3.416,1.863c0.966,1.242 1.691,2.83 2.174,4.762c0.483,1.933 0.863,3.969 1.139,6.108c0.276,2.14 0.483,4.279 0.621,6.419c0.138,2.139 0.345,3.968 0.621,5.486c0.276,3.175 0.621,6.315 1.035,9.421c0.415,3.106 0.622,6.246 0.622,9.421c-0,3.175 -0.138,6.418 -0.415,9.731c-0.276,3.313 -0.414,6.557 -0.414,9.731c0,1.657 -0.034,3.727 -0.103,6.212c-0.069,2.485 -0.656,4.417 -1.76,5.797c-0.138,0.552 -0.207,1.519 -0.207,2.899l-0,6.626c-0,0.828 0.414,4.21 0.414,5.176c-0,1.518 -0.414,2.622 -1.242,3.313c-0.414,-0.138 -0.863,-0.207 -1.346,-0.207l-1.346,-0c-1.518,-0 -2.623,0.276 -3.313,0.828c-1.518,-0.138 -2.967,-0.276 -4.348,-0.414c-1.38,-0.138 -2.829,-0.207 -4.348,-0.207c-2.346,-0 -4.9,0.345 -7.661,1.035c-0.552,-1.38 -0.793,-2.83 -0.724,-4.348c0.069,-1.519 -0.242,-2.899 -0.932,-4.141c-0.138,-0.414 -0.242,-0.794 -0.311,-1.139c-0.069,-0.345 -0.103,-0.725 -0.103,-1.139c0.414,-1.656 0.621,-2.795 0.621,-3.416l0,-1.967c0,-1.932 -0.069,-3.899 -0.207,-5.901c-0.138,-2.001 -0.069,-3.968 0.207,-5.901c0,-0.69 0.104,-1.311 0.311,-1.863c0.207,-0.552 0.31,-1.174 0.31,-1.864c0,-0.69 -0.138,-1.173 -0.414,-1.449c-0.276,-0.276 -0.414,-0.621 -0.414,-1.035c-0,-0.414 0.034,-1.105 0.104,-2.071c0.069,-0.966 0.241,-1.587 0.517,-1.863c0,-1.104 0.207,-5.245 0.207,-6.212c0,-2.208 -0.069,-4.417 -0.207,-6.625c-0.138,-2.209 -0.207,-4.348 -0.207,-6.419c0,-0.966 -0.069,-1.587 -0.207,-1.863c-0.138,-0.276 -0.276,-0.483 -0.414,-0.621c-0.138,-0.138 -0.345,-0.242 -0.621,-0.311c-0.276,-0.069 -0.483,-0.311 -0.621,-0.725c0.552,-6.073 0.345,-12.146 -0.622,-18.22c-0.966,-6.073 -1.449,-12.216 -1.449,-18.427c0,-0.967 0.138,-1.691 0.414,-2.174c0.276,-0.483 0.621,-0.863 1.035,-1.139c0.415,-0.276 0.794,-0.587 1.139,-0.932c0.345,-0.345 0.587,-0.863 0.725,-1.553c1.104,0.276 2.07,0.276 2.899,0Z" style="fill:#f2dad9;fill-rule:nonzero;"/><path d="M279.471,229.439c-0.276,0.552 -0.552,1.07 -0.828,1.553c-0.276,0.483 -0.483,1.001 -0.621,1.553c0.552,0.552 1.069,1.139 1.553,1.76c0.483,0.621 0.724,1.277 0.724,1.967c0,0.552 -0.103,1.069 -0.31,1.553c-0.207,0.483 -0.242,0.931 -0.104,1.345c-0.552,0.967 -1.139,1.864 -1.76,2.692c-0.621,0.828 -1.07,1.725 -1.346,2.692c-0.552,0.552 -1,1.104 -1.345,1.656c-0.346,0.552 -0.656,1.104 -0.932,1.656c-0.69,0.277 -1.139,0.725 -1.346,1.346c-0.207,0.621 -0.587,1.139 -1.139,1.553c-0.138,0.552 -0.828,1.864 -2.07,3.934c-1.243,2.071 -2.623,4.279 -4.141,6.626c-1.519,2.346 -2.968,4.624 -4.348,6.832c-1.381,2.209 -2.347,3.658 -2.899,4.348c-0.276,0.69 -0.587,1.243 -0.932,1.657c-0.345,0.414 -0.724,0.897 -1.138,1.449c-0.277,0.414 -0.484,0.863 -0.622,1.346c-0.138,0.483 -0.345,0.863 -0.621,1.139c-0.276,0.552 -0.586,1.035 -0.931,1.449c-0.346,0.414 -0.656,0.966 -0.932,1.656c-1.381,1.795 -2.761,3.934 -4.141,6.419c-1.38,2.484 -2.692,4.693 -3.934,6.625c-0.69,1.105 -3.244,5.522 -3.934,6.626c-0.69,1.104 -3.451,5.107 -4.141,6.212c-1.104,0.828 -2.071,1.828 -2.899,3.002c-0.828,1.173 -1.794,2.174 -2.898,3.002c-1.795,-0 -2.899,-0.828 -3.313,-2.485c-1.795,-0.414 -2.692,-0.414 -2.692,0l0,1.036c-0.552,0.276 -0.932,0.69 -1.139,1.242c-0.207,0.552 -0.586,0.966 -1.138,1.242c-1.105,-0.276 -2.036,-0.724 -2.796,-1.346c-0.759,-0.621 -1.828,-0.862 -3.209,-0.724c-0.552,-0.829 -1.173,-1.553 -1.863,-2.174c-0.69,-0.621 -1.312,-1.277 -1.864,-1.967c-0.276,-0.828 -0.655,-1.519 -1.138,-2.071c-0.484,-0.552 -0.932,-1.104 -1.346,-1.656c-0.414,-0.69 -0.828,-1.311 -1.243,-1.864c-0.414,-0.552 -0.828,-1.104 -1.242,-1.656c-0.966,-1.242 -1.898,-2.45 -2.795,-3.623c-0.897,-1.174 -1.691,-2.381 -2.381,-3.624c-1.104,-1.656 -2.174,-3.347 -3.209,-5.072c-1.036,-1.726 -2.105,-3.417 -3.21,-5.073c-0.552,-0.828 -1.104,-1.657 -1.656,-2.485c-0.552,-0.828 -1.035,-1.656 -1.449,-2.484c-0.276,-0.69 -0.656,-1.519 -1.139,-2.485c-0.483,-0.966 -1.07,-1.587 -1.76,-1.863c-0.276,-1.105 -0.759,-1.933 -1.449,-2.485c-0.691,-0.552 -1.381,-1.242 -2.071,-2.07c-0.966,-1.105 -1.863,-2.312 -2.691,-3.624c-0.829,-1.311 -1.657,-2.657 -2.485,-4.037c-2.761,-3.865 -5.349,-7.661 -7.764,-11.388c-2.416,-3.727 -4.797,-7.592 -7.144,-11.595c0.691,-2.208 1.036,-3.865 1.036,-4.969c-0,-1.104 0.345,-2.001 1.035,-2.692c-0,-0.552 0.138,-1.38 0.414,-2.484c1.794,-3.037 3.52,-5.797 5.176,-8.282c1.519,-2.347 2.588,-4.279 3.209,-5.797c0.622,-1.519 1.277,-3.106 1.967,-4.763c0.691,-0.414 1.243,-0.931 1.657,-1.552c0.414,-0.622 0.966,-1.208 1.656,-1.76c0.276,-1.519 0.897,-2.796 1.864,-3.831c0.966,-1.035 1.587,-2.312 1.863,-3.83c1.242,-0.966 1.933,-2.071 2.071,-3.313c1.794,-1.242 2.898,-2.899 3.312,-4.969c1.105,-1.104 2.036,-2.347 2.796,-3.727c0.759,-1.38 1.483,-2.83 2.174,-4.348c1.656,-1.38 2.967,-3.175 3.933,-5.383c0.829,-0.552 1.45,-1.312 1.864,-2.278c0.414,-0.966 0.966,-1.794 1.656,-2.484c1.105,-1.795 1.967,-3.279 2.588,-4.452c0.622,-1.173 1.277,-2.381 1.967,-3.623c0.967,-0 1.588,-0.345 1.864,-1.036c0.276,-0.69 0.828,-0.966 1.656,-0.828c0,-1.242 0.345,-2.346 1.035,-3.313c0.277,-0.138 0.691,-0.31 1.243,-0.517c0.552,-0.207 0.828,-0.449 0.828,-0.725c-0.276,-1.656 -0.207,-2.623 0.207,-2.899c0.414,-0.276 0.759,-0.552 1.035,-0.828c1.519,0.276 2.554,0.483 3.106,0.621c0.552,0.138 1.449,0.621 2.692,1.45c1.38,-0 2.346,0.276 2.898,0.828c0.552,0.552 1.174,0.966 1.864,1.242c0.552,0.552 1.001,1.104 1.346,1.657c0.345,0.552 0.862,0.966 1.552,1.242c1.105,1.518 5.936,8.42 7.04,9.938c1.518,2.071 3.071,4.038 4.659,5.901c1.587,1.864 3.071,3.9 4.451,6.108c0.414,0.69 1.174,1.898 2.278,3.623c1.104,1.726 2.346,3.555 3.727,5.487c1.38,1.933 2.622,3.693 3.727,5.28c1.104,1.587 1.863,2.519 2.277,2.795c0.414,0.69 1.311,2.002 2.692,3.934c1.38,1.933 2.864,3.969 4.451,6.108c1.588,2.14 3.141,4.176 4.659,6.108c1.518,1.932 2.554,3.175 3.106,3.727c1.518,2.07 2.657,3.761 3.416,5.073c0.759,1.311 1.484,2.726 2.174,4.244Zm-47.414,38.925c1.518,-2.07 2.691,-3.934 3.52,-5.59c0.828,-1.656 1.656,-3.313 2.484,-4.969c1.381,-1.657 2.209,-2.83 2.485,-3.52c0.276,-0.69 0.621,-1.38 1.035,-2.071c1.104,-1.656 2.243,-3.312 3.416,-4.969c1.174,-1.656 2.105,-3.451 2.795,-5.383c0.829,-0.552 1.45,-1.242 1.864,-2.07c0.414,-0.829 1.035,-1.588 1.863,-2.278c-0.828,-2.899 -1.794,-5.142 -2.898,-6.729c-1.105,-1.587 -2.209,-3.14 -3.313,-4.659c-0.414,-0.69 -2.071,-3.451 -2.485,-4.141c-0.552,-0.414 -1,-0.828 -1.346,-1.242c-0.345,-0.414 -0.724,-0.828 -1.138,-1.242c-0.276,-0.69 -0.69,-1.588 -1.243,-2.692c-0.552,-0.69 -1.104,-1.311 -1.656,-1.863c-0.552,-0.552 -1.035,-1.243 -1.449,-2.071c-0.552,-0.552 -1.243,-1.311 -2.071,-2.277c-0.828,-0.967 -1.691,-2.036 -2.588,-3.21c-0.897,-1.173 -1.691,-2.277 -2.381,-3.312c-0.69,-1.036 -1.242,-1.898 -1.656,-2.589c-0.276,-0.69 -0.518,-1.276 -0.725,-1.759c-0.207,-0.484 -0.449,-1.001 -0.725,-1.553c-0.69,-0.967 -3.451,-4.21 -4.141,-5.177c-0.414,0.276 -0.793,0.449 -1.138,0.518c-0.346,0.069 -0.656,0.242 -0.932,0.518c-0.966,1.794 -2.036,3.45 -3.209,4.969c-1.174,1.518 -2.313,3.175 -3.417,4.969c-0.966,1.656 -4.831,8.489 -5.797,10.145c-0.69,0.967 -1.346,1.898 -1.967,2.796c-0.621,0.897 -1.277,1.898 -1.967,3.002c-0.69,0.966 -1.277,1.967 -1.76,3.002c-0.483,1.035 -1.07,2.036 -1.76,3.002c-1.104,1.381 -2.001,2.623 -2.692,3.727c-0.69,1.104 -1.38,2.416 -2.07,3.934c0.414,0.828 1.07,1.967 1.967,3.416c0.897,1.45 4.624,7.144 5.383,8.386c0.759,1.242 1.208,2.07 1.346,2.484c1.104,0.967 2.001,2.036 2.692,3.21c0.69,1.173 1.587,2.312 2.691,3.416c0.552,1.104 1.174,2.071 1.864,2.899c0.69,0.828 1.38,1.725 2.07,2.691c0.69,0.967 1.588,2.381 2.692,4.245c1.104,1.863 2.208,3.761 3.313,5.694c1.104,1.932 2.208,3.727 3.312,5.383c1.105,1.656 2.002,2.692 2.692,3.106c1.38,-1.519 2.519,-3.21 3.416,-5.073c0.898,-1.863 2.105,-3.554 3.624,-5.073Z" style="fill:#f2dad9;fill-rule:nonzero;"/><path d="M360.841,157.179c2.209,-0.276 3.9,-0.104 5.073,0.518c1.173,0.621 2.381,1 3.623,1.138c0.691,0.138 1.415,0.173 2.174,0.104c0.76,-0.069 1.553,-0.104 2.381,-0.104c1.795,0 3.21,0.207 4.245,0.621c1.035,0.415 2.105,1.312 3.209,2.692c0.276,0.276 0.656,0.656 1.139,1.139c0.483,0.483 0.725,0.932 0.725,1.346c-0,1.104 -0.276,2.07 -0.829,2.898c-0.552,0.829 -0.828,2.002 -0.828,3.52c0,2.347 0.276,4.659 0.828,6.936c0.553,2.278 0.898,4.59 1.036,6.937c0.69,8.558 1.069,17.15 1.138,25.777c0.07,8.627 0.104,17.151 0.104,25.571c0,1.104 -0.034,2.105 -0.104,3.002c-0.069,0.897 -0.379,1.691 -0.931,2.381l-0,2.692c-0.138,3.588 -0.069,7.212 0.207,10.87c0.276,3.658 0.414,7.281 0.414,10.87c-0,3.175 -0.173,6.349 -0.518,9.524c-0.345,3.175 -0.517,6.419 -0.517,9.731c-0,3.037 0.207,6.005 0.621,8.903c0.414,2.899 0.621,5.867 0.621,8.904c-0.69,1.242 -1.104,2.208 -1.242,2.898c-0.138,0.69 -0.414,1.312 -0.829,1.864c-0.414,0.276 -0.862,0.345 -1.345,0.207c-0.483,-0.138 -0.863,-0 -1.139,0.414c-0.69,0.828 -1.173,1.794 -1.449,2.899c-0.277,1.104 -0.967,2.001 -2.071,2.691c-0.276,1.933 -1.001,3.416 -2.174,4.452c-1.173,1.035 -2.036,2.381 -2.588,4.037c-1.656,0.138 -2.795,0.069 -3.416,-0.207c-0.622,-0.276 -1.277,-0.552 -1.967,-0.828c-0.138,-2.347 -0.104,-4.038 0.103,-5.073c0.207,-1.035 0.311,-2.105 0.311,-3.209c-0,-1.38 -0.345,-2.416 -1.036,-3.106c-0.69,-0.69 -1.173,-1.587 -1.449,-2.691c-1.518,-0.967 -2.553,-1.622 -3.106,-1.967c-0.552,-0.345 -1.035,-0.794 -1.449,-1.346c-0.828,-1.104 -1.518,-2.278 -2.07,-3.52c-0.553,-1.242 -1.174,-2.416 -1.864,-3.52c-1.932,-3.175 -3.899,-6.418 -5.901,-9.731c-2.001,-3.313 -4.175,-6.557 -6.522,-9.731c-0.414,-0.691 -0.897,-1.312 -1.449,-1.864c-0.552,-0.552 -1.035,-1.173 -1.449,-1.863c-2.347,-3.727 -4.556,-7.523 -6.626,-11.388c-2.071,-3.865 -4.486,-7.523 -7.247,-10.974c-1.104,-1.38 -1.932,-2.933 -2.484,-4.658c-0.553,-1.726 -1.381,-3.21 -2.485,-4.452c-0.138,0.69 -0.207,1.45 -0.207,2.278l-0,2.277c-0,4.693 0.104,9.352 0.311,13.976c0.207,4.624 0.31,9.283 0.31,13.976c0,0.966 -0.103,1.829 -0.31,2.588c-0.207,0.759 -0.311,1.622 -0.311,2.588c-0,1.38 0.069,2.692 0.207,3.934c0.138,1.242 0.207,2.485 0.207,3.727c0,1.518 -0.034,2.968 -0.103,4.348c-0.069,1.38 -0.173,2.761 -0.311,4.141c-0.276,1.794 -0.621,3.485 -1.035,5.073c-0.414,1.587 -0.621,3.209 -0.621,4.865c-0,0.967 0.103,1.864 0.31,2.692c0.207,0.828 0.311,1.587 0.311,2.277c-0.966,1.519 -2.174,2.278 -3.624,2.278c-1.449,0 -2.657,0.552 -3.623,1.656c-0.828,-0.138 -1.484,-0.069 -1.967,0.207c-0.483,0.277 -0.932,0.415 -1.346,0.415c-0.552,-0 -1.001,-0.069 -1.346,-0.207c-0.345,-0.139 -0.724,-0.208 -1.138,-0.208c-0.691,0 -1.381,0.346 -2.071,1.036c-0.69,0.69 -1.38,1.035 -2.07,1.035c-0.414,-0 -1.139,-0.276 -2.174,-0.828c-1.036,-0.552 -2.14,-1.208 -3.313,-1.967c-1.173,-0.759 -2.243,-1.519 -3.209,-2.278c-0.967,-0.759 -1.45,-1.346 -1.45,-1.76c-0.138,-0.69 -0.207,-1.656 -0.207,-2.898c0,-1.657 0.104,-3.279 0.311,-4.866c0.207,-1.587 0.448,-3.209 0.724,-4.866c0.415,-4.693 0.622,-9.351 0.622,-13.975l-0,-13.976c-0,-1.933 0.207,-9.663 0.207,-11.595c-0,-4.555 -0.173,-9.145 -0.518,-13.769c-0.345,-4.624 -0.518,-9.213 -0.518,-13.769c0,-3.174 0.138,-6.315 0.414,-9.42c0.277,-3.106 0.415,-6.177 0.415,-9.214c-0,-2.347 -0.069,-4.624 -0.207,-6.833c-0.138,-2.208 -0.208,-4.486 -0.208,-6.832c-0.138,-1.519 -0.138,-3.14 0,-4.866c0.139,-1.725 0.208,-3.347 0.208,-4.866c-0,-1.794 -0.242,-3.485 -0.725,-5.072c-0.483,-1.588 -0.725,-3.071 -0.725,-4.452c0,-0.828 0.173,-1.622 0.518,-2.381c0.345,-0.759 0.517,-1.553 0.517,-2.381c0,-1.104 -0.172,-2.208 -0.517,-3.313c-0.345,-1.104 -0.518,-2.208 -0.518,-3.313c0,-1.104 0.138,-2.139 0.414,-3.105c0.276,-0.966 0.414,-2.002 0.414,-3.106c1.933,-0.966 3.658,-1.449 5.177,-1.449c1.518,-0 2.622,0.552 3.312,1.656c0,2.485 0.138,4.383 0.415,5.694c0.276,1.311 0.483,2.657 0.621,4.037c-0,0.829 -0.035,1.795 -0.104,2.899c-0.069,1.104 -0.034,2.174 0.104,3.209c0.138,1.036 0.448,1.898 0.931,2.588c0.483,0.691 1.346,1.036 2.588,1.036c0.277,0.69 0.622,1.311 1.036,1.863c0.414,0.552 0.69,1.242 0.828,2.071c0.828,-0.553 1.311,-1.312 1.449,-2.278c0.138,-0.966 0.138,-1.863 0,-2.692c0.69,0.276 1.312,0.38 1.864,0.311c0.552,-0.069 1.104,0.035 1.656,0.311c0.276,1.932 0.621,3.623 1.035,5.072c0.414,1.45 0.552,3.141 0.414,5.073c2.761,2.07 5.142,5.004 7.144,8.8c2.001,3.795 3.899,7.212 5.694,10.249c0.966,1.518 2.105,2.933 3.416,4.244c1.311,1.311 2.312,2.864 3.002,4.659c1.104,0.69 2.002,1.587 2.692,2.691c0.69,1.105 1.311,2.209 1.863,3.313c2.761,4.831 5.797,9.524 9.11,14.079c3.313,4.555 6.764,9.042 10.353,13.459c0.138,-0.967 0.207,-1.898 0.207,-2.796l-0,-2.795l-0.207,-18.634c-0,-1.104 -0.035,-2.14 -0.104,-3.106c-0.069,-0.966 -0.172,-2.001 -0.31,-3.106c-0.276,-3.588 -0.345,-7.108 -0.207,-10.559c0.138,-3.451 0.138,-6.971 -0,-10.56c-0.276,-3.727 -0.449,-7.522 -0.518,-11.387c-0.069,-3.865 -0.242,-7.73 -0.518,-11.595c-0.138,-2.347 -0.276,-4.693 -0.414,-7.04c-0.138,-2.346 -0.207,-4.693 -0.207,-7.039c0,-2.899 0.276,-5.522 0.828,-7.868c0.276,-0.276 0.587,-0.518 0.932,-0.725c0.345,-0.207 0.794,-0.311 1.346,-0.311c0.828,0 1.38,0.691 1.656,2.071Z" style="fill:#f2dad9;fill-rule:nonzero;"/><path d="M495.423,165.047c-1.518,2.76 -3.244,6.004 -5.176,9.731c-1.932,3.727 -3.451,6.971 -4.555,9.731c-0.414,0.967 -1.863,4.625 -2.278,5.591c-0.69,2.07 -1.552,4.037 -2.588,5.901c-1.035,1.863 -1.967,3.83 -2.795,5.901c-1.242,2.76 -2.519,5.555 -3.83,8.385c-1.312,2.83 -2.588,5.763 -3.831,8.8c-1.38,2.76 -2.45,5.141 -3.209,7.143c-0.759,2.001 -1.553,4.037 -2.381,6.108c-0.828,2.07 -1.553,4.106 -2.174,6.108c-0.621,2.001 -1.139,3.83 -1.553,5.487c-1.242,2.208 -2.277,3.864 -3.106,4.969c-0.276,2.484 -0.552,4.969 -0.828,7.453c-0.276,2.485 -0.414,5.039 -0.414,7.661c0,1.243 0.104,2.45 0.311,3.624c0.207,1.173 0.379,2.381 0.517,3.623c0.138,1.794 0.173,3.554 0.104,5.28c-0.069,1.725 -0.035,3.485 0.103,5.28c0.138,3.45 0.311,6.867 0.518,10.248c0.207,3.382 0.38,6.868 0.518,10.456c0.138,2.485 0.034,4.59 -0.311,6.315c-0.345,1.726 -0.449,3.486 -0.311,5.28c-0.414,0.276 -0.862,0.483 -1.345,0.621c-0.484,0.138 -0.932,0.345 -1.346,0.621c-1.519,0 -2.519,-0.034 -3.002,-0.103c-0.484,-0.069 -0.932,0.034 -1.346,0.311c-1.243,-0.829 -1.933,-1.208 -2.071,-1.139c-0.138,0.069 -0.276,0.103 -0.414,0.103c-1.656,-0.552 -2.553,-0.966 -2.691,-1.242c-0.139,-0.276 -0.415,-0.552 -0.829,-0.828c-1.518,-0 -2.76,0.207 -3.727,0.621c-0.414,-0.276 -0.759,-0.552 -1.035,-0.828c-0.276,-0.276 -0.621,-0.552 -1.035,-0.828c-1.242,-0.138 -2.278,-0.311 -3.106,-0.518c-0.828,-0.207 -1.518,-0.449 -2.07,-0.725c-0.414,-1.104 -0.863,-2.07 -1.346,-2.898c-0.483,-0.829 -0.725,-1.933 -0.725,-3.313c0,-1.104 0.138,-2.14 0.414,-3.106c0.276,-0.966 0.483,-2.001 0.621,-3.106c0,-0.69 -0.207,-3.036 -0.207,-3.727c0,-0.69 0.138,-1.587 0.415,-2.691c-0.415,-3.175 -0.587,-6.522 -0.518,-10.042c0.069,-3.52 0.103,-6.867 0.103,-10.042c0,-3.175 -0.276,-6.142 -0.828,-8.903c0.138,-1.795 0.138,-3.071 0,-3.831c-0.138,-0.759 -0.207,-1.552 -0.207,-2.381c0,-0.69 0.414,-3.657 0.414,-4.348c0,-0.138 -0.103,-0.862 -0.31,-2.174c-0.207,-1.311 -0.449,-2.691 -0.725,-4.141c-0.276,-1.449 -0.552,-2.829 -0.828,-4.141c-0.276,-1.311 -0.414,-2.105 -0.414,-2.381c-1.381,-2.484 -2.416,-4.831 -3.106,-7.039c-0.69,-2.209 -1.449,-4.072 -2.278,-5.591c-0.552,-1.104 -1.104,-2.208 -1.656,-3.312c-0.552,-1.105 -1.035,-2.278 -1.449,-3.52c-0.276,-0.69 -1.174,-3.865 -1.45,-4.555c-0.552,-1.105 -1.069,-2.312 -1.552,-3.624c-0.484,-1.311 -1.07,-2.381 -1.76,-3.209c-0.553,-1.242 -1.07,-2.381 -1.553,-3.416c-0.483,-1.036 -0.725,-2.036 -0.725,-3.003c-0.414,-1.656 -1.07,-3.14 -1.967,-4.451c-0.897,-1.311 -1.691,-2.657 -2.381,-4.038c-0.414,-0.828 -0.725,-1.587 -0.932,-2.277c-0.207,-0.69 -0.448,-1.38 -0.724,-2.071c-0.276,-0.552 -0.656,-1.242 -1.139,-2.07c-0.483,-0.828 -1.001,-1.449 -1.553,-1.863c-0.276,-1.243 -0.759,-2.347 -1.449,-3.313c-0.691,-0.967 -1.174,-2.071 -1.45,-3.313c-0.69,-0.966 -1.449,-1.933 -2.277,-2.899c-0.552,-2.07 -1.312,-3.968 -2.278,-5.694c-0.966,-1.725 -1.863,-3.554 -2.691,-5.486c0.552,-2.899 2.139,-4.694 4.762,-5.384c1.38,-1.656 2.208,-2.553 2.484,-2.691c0.276,-0.138 0.898,-0.207 1.864,-0.207c0.828,-0.691 1.656,-1.277 2.484,-1.76c0.829,-0.483 1.795,-0.587 2.899,-0.311c0.138,-0.552 0.518,-1.035 1.139,-1.449c0.621,-0.414 1.208,-0.621 1.76,-0.621c0.828,-0 1.553,0.414 2.174,1.242c0.621,0.828 1.277,1.449 1.967,1.863c1.104,1.933 2.243,3.796 3.416,5.591c1.173,1.794 2.174,3.658 3.002,5.59c0.966,1.932 1.829,3.865 2.588,5.797c0.76,1.933 1.898,3.796 3.417,5.591c0.69,2.76 1.76,5.349 3.209,7.764c1.449,2.416 2.657,5.004 3.623,7.764c0.69,1.657 1.484,3.279 2.381,4.866c0.898,1.587 1.691,3.278 2.381,5.073c0.414,0.828 0.76,1.656 1.036,2.484c0.276,0.829 0.552,1.657 0.828,2.485c0.276,0.69 0.552,1.587 0.828,2.692c0.276,1.104 0.621,2.001 1.035,2.691c0.966,-0.966 1.795,-2.208 2.485,-3.727c0.966,-1.932 1.967,-3.761 3.002,-5.486c1.035,-1.726 1.967,-3.555 2.795,-5.487c1.104,-1.795 1.898,-3.658 2.381,-5.591c0.483,-1.932 1.07,-3.864 1.76,-5.797c0.276,-0.69 0.587,-1.38 0.932,-2.07c0.345,-0.691 1.691,-3.934 1.967,-4.763c0.276,-0.828 0.552,-1.656 0.828,-2.484c0.966,-2.623 2.036,-5.211 3.209,-7.765c1.174,-2.553 2.381,-5.141 3.624,-7.764c0.138,-0.414 0.448,-1.035 0.931,-1.863c0.484,-0.828 1.036,-1.691 1.657,-2.588c0.621,-0.898 1.208,-1.691 1.76,-2.381c0.552,-0.691 1.035,-1.174 1.449,-1.45c0.276,-0.276 0.725,-0.448 1.346,-0.517c0.621,-0.069 1.139,-0.173 1.553,-0.311c1.242,-0 2.139,0.345 2.691,1.035c1.657,0.69 2.899,1.174 3.727,1.45c0.829,0.276 1.45,0.897 1.864,1.863c2.07,1.38 3.623,2.174 4.658,2.381c1.036,0.207 1.829,0.794 2.381,1.76c1.519,0.966 2.416,1.656 2.692,2.071c0.276,0.414 0.552,0.828 0.828,1.242Z" style="fill:#f2dad9;fill-rule:nonzero;"/><path d="M545.322,159.042c0.276,0.552 0.587,0.932 0.932,1.139c0.345,0.207 0.586,0.656 0.724,1.346c0.967,0.69 1.726,1.208 2.278,1.553c0.552,0.345 0.897,0.932 1.035,1.76c1.243,0.966 1.967,1.587 2.174,1.863c0.207,0.276 0.38,0.621 0.518,1.035c0.69,0.553 1.346,1.036 1.967,1.45c0.621,0.414 1.07,1.035 1.346,1.863c1.104,0.966 1.794,1.726 2.07,2.278c0.276,0.552 0.483,1.173 0.621,1.863c-0.552,0.966 -1.656,2.278 -3.312,3.934c-1.657,1.657 -3.52,3.416 -5.591,5.28c-2.07,1.863 -4.072,3.658 -6.004,5.383c-1.933,1.726 -3.451,3.071 -4.555,4.038c-0.276,0.552 -0.621,1.035 -1.036,1.449c-0.414,0.414 -0.759,0.897 -1.035,1.449c-0.828,0.69 -1.587,1.415 -2.277,2.174c-0.69,0.76 -1.519,1.346 -2.485,1.76c-1.38,1.933 -3.313,3.831 -5.797,5.694c-2.485,1.864 -4.141,3.692 -4.969,5.487c0.138,0.414 0.448,0.828 0.931,1.242c0.483,0.414 0.863,0.759 1.139,1.035c1.104,1.105 2.416,2.105 3.934,3.003c1.518,0.897 2.83,1.898 3.934,3.002c1.104,0.966 5.521,4.624 6.625,5.59c0.553,0.552 1.243,1.381 2.071,2.485c1.38,1.104 2.726,2.105 4.037,3.002c1.312,0.897 2.589,1.898 3.831,3.002c2.622,2.209 5.176,4.452 7.661,6.729c2.484,2.278 5.107,4.521 7.868,6.729l1.656,1.864c-0,1.104 0.31,2.381 0.932,3.83c0.621,1.45 1.207,2.657 1.76,3.624c-0.277,1.38 -0.242,2.243 0.103,2.588c0.345,0.345 0.656,0.655 0.932,0.931c-0.138,2.623 -0.069,4.348 0.207,5.177c-2.347,2.07 -4.521,3.968 -6.522,5.694c-2.002,1.725 -3.762,3.416 -5.28,5.072c-1.242,1.519 -2.519,2.864 -3.83,4.038c-1.312,1.173 -2.727,2.45 -4.245,3.83c-0.828,1.104 -1.518,1.864 -2.07,2.278c-0.967,0.966 -1.933,1.725 -2.899,2.277c-1.656,1.519 -3.278,2.968 -4.866,4.348c-1.587,1.381 -3.14,2.761 -4.658,4.141c-1.105,0.966 -2.14,1.898 -3.106,2.795c-0.966,0.898 -1.933,1.898 -2.899,3.003c-0.828,0.828 -1.76,1.794 -2.795,2.898c-1.035,1.105 -2.105,2.002 -3.209,2.692c-0.414,0.828 -0.966,1.553 -1.657,2.174c-0.69,0.621 -1.311,1.277 -1.863,1.967c-0.966,0.552 -1.863,1.104 -2.692,1.656c-0.828,0.552 -1.794,1.105 -2.898,1.657c-1.105,-0.829 -2.174,-1.588 -3.21,-2.278c-1.035,-0.69 -2.174,-1.173 -3.416,-1.449c-0.828,-0.69 -1.449,-1.381 -1.863,-2.071c-0.414,-0.69 -1.174,-1.173 -2.278,-1.449c-0.276,-0.414 -0.587,-0.863 -0.932,-1.346c-0.345,-0.483 -0.655,-1.001 -0.931,-1.553c-1.657,-0.138 -2.968,-1.173 -3.934,-3.105c0.276,-0.829 0.655,-1.45 1.139,-1.864c0.483,-0.414 0.586,-1.173 0.31,-2.277c0.828,-1.381 1.829,-2.589 3.002,-3.624c1.174,-1.035 2.312,-2.105 3.417,-3.209c1.242,-1.104 2.381,-2.243 3.416,-3.416c1.035,-1.174 2.174,-2.312 3.416,-3.417c0.69,-0.69 1.381,-1.346 2.071,-1.967c0.69,-0.621 1.449,-1.276 2.277,-1.967c1.519,-1.518 3.072,-2.933 4.659,-4.244c1.587,-1.311 3.209,-2.726 4.866,-4.245c2.208,-2.208 4.486,-4.313 6.832,-6.315c2.347,-2.001 4.486,-4.244 6.419,-6.729c-0.138,-0.552 -0.345,-0.931 -0.621,-1.139c-0.277,-0.207 -0.484,-0.517 -0.622,-0.931c-2.208,-2.071 -4.382,-4.107 -6.522,-6.108c-2.139,-2.002 -4.451,-3.762 -6.936,-5.28c-0.828,-0.828 -1.38,-1.518 -1.656,-2.07c-2.485,-1.795 -4.866,-3.796 -7.143,-6.005c-2.278,-2.208 -4.797,-4.072 -7.558,-5.59c-0.552,-0.69 -1.207,-1.277 -1.967,-1.76c-0.759,-0.483 -1.484,-0.932 -2.174,-1.346c-0.414,-0.69 -0.862,-1.277 -1.345,-1.76c-0.484,-0.483 -1.07,-0.863 -1.76,-1.139c-1.105,-0.966 -1.829,-1.76 -2.174,-2.381c-0.346,-0.621 -0.932,-1 -1.76,-1.138c-0.276,-0.691 -0.725,-1.243 -1.346,-1.657c-0.621,-0.414 -1.277,-0.897 -1.967,-1.449c-0.276,-0.828 -0.69,-1.519 -1.242,-2.071c-0.138,-1.104 -0.069,-1.898 0.207,-2.381c0.276,-0.483 0.483,-0.862 0.621,-1.139c-0.138,-0.828 -0.518,-1.449 -1.139,-1.863c-0.621,-0.414 -0.932,-1.104 -0.932,-2.07c0,-0.553 0.173,-0.932 0.518,-1.139c0.345,-0.207 0.587,-0.518 0.725,-0.932l0.621,-3.106c1.104,-0.828 2.036,-1.829 2.795,-3.002c0.759,-1.173 1.76,-2.105 3.002,-2.795c1.38,-2.071 3.106,-3.796 5.176,-5.176c0.69,-1.105 1.553,-2.002 2.588,-2.692c1.036,-0.69 1.898,-1.587 2.589,-2.692c1.104,-0.69 2.036,-1.449 2.795,-2.277c0.759,-0.828 1.691,-1.587 2.795,-2.278c0.276,-0.552 0.587,-1 0.932,-1.345c0.345,-0.346 0.586,-0.725 0.724,-1.139c3.727,-3.589 7.005,-6.695 9.835,-9.317c2.83,-2.623 5.763,-5.246 8.8,-7.868c0.828,-0.69 1.656,-1.45 2.484,-2.278c0.828,-0.828 1.726,-1.587 2.692,-2.277c0.276,-0.276 0.621,-0.414 1.035,-0.414c0.414,-0 0.828,-0.139 1.242,-0.415c1.657,0 2.554,-0.069 2.692,-0.207Z" style="fill:#f2dad9;fill-rule:nonzero;"/><path d="M680.525,229.439c-0.276,0.552 -0.552,1.07 -0.828,1.553c-0.276,0.483 -0.483,1.001 -0.621,1.553c0.552,0.552 1.07,1.139 1.553,1.76c0.483,0.621 0.724,1.277 0.724,1.967c0,0.552 -0.103,1.069 -0.31,1.553c-0.207,0.483 -0.242,0.931 -0.104,1.345c-0.552,0.967 -1.138,1.864 -1.76,2.692c-0.621,0.828 -1.069,1.725 -1.345,2.692c-0.553,0.552 -1.001,1.104 -1.346,1.656c-0.345,0.552 -0.656,1.104 -0.932,1.656c-0.69,0.277 -1.139,0.725 -1.346,1.346c-0.207,0.621 -0.586,1.139 -1.139,1.553c-0.138,0.552 -0.828,1.864 -2.07,3.934c-1.242,2.071 -2.623,4.279 -4.141,6.626c-1.518,2.346 -2.968,4.624 -4.348,6.832c-1.38,2.209 -2.347,3.658 -2.899,4.348c-0.276,0.69 -0.586,1.243 -0.931,1.657c-0.346,0.414 -0.725,0.897 -1.139,1.449c-0.276,0.414 -0.483,0.863 -0.621,1.346c-0.138,0.483 -0.345,0.863 -0.622,1.139c-0.276,0.552 -0.586,1.035 -0.931,1.449c-0.345,0.414 -0.656,0.966 -0.932,1.656c-1.38,1.795 -2.761,3.934 -4.141,6.419c-1.38,2.484 -2.692,4.693 -3.934,6.625c-0.69,1.105 -3.244,5.522 -3.934,6.626c-0.69,1.104 -3.451,5.107 -4.141,6.212c-1.104,0.828 -2.07,1.828 -2.899,3.002c-0.828,1.173 -1.794,2.174 -2.898,3.002c-1.795,-0 -2.899,-0.828 -3.313,-2.485c-1.794,-0.414 -2.692,-0.414 -2.692,0l0,1.036c-0.552,0.276 -0.931,0.69 -1.138,1.242c-0.207,0.552 -0.587,0.966 -1.139,1.242c-1.104,-0.276 -2.036,-0.724 -2.795,-1.346c-0.76,-0.621 -1.829,-0.862 -3.21,-0.724c-0.552,-0.829 -1.173,-1.553 -1.863,-2.174c-0.69,-0.621 -1.311,-1.277 -1.863,-1.967c-0.277,-0.828 -0.656,-1.519 -1.139,-2.071c-0.483,-0.552 -0.932,-1.104 -1.346,-1.656c-0.414,-0.69 -0.828,-1.311 -1.242,-1.864c-0.414,-0.552 -0.829,-1.104 -1.243,-1.656c-0.966,-1.242 -1.898,-2.45 -2.795,-3.623c-0.897,-1.174 -1.691,-2.381 -2.381,-3.624c-1.104,-1.656 -2.174,-3.347 -3.209,-5.072c-1.035,-1.726 -2.105,-3.417 -3.209,-5.073c-0.553,-0.828 -1.105,-1.657 -1.657,-2.485c-0.552,-0.828 -1.035,-1.656 -1.449,-2.484c-0.276,-0.69 -0.656,-1.519 -1.139,-2.485c-0.483,-0.966 -1.07,-1.587 -1.76,-1.863c-0.276,-1.105 -0.759,-1.933 -1.449,-2.485c-0.69,-0.552 -1.381,-1.242 -2.071,-2.07c-0.966,-1.105 -1.863,-2.312 -2.691,-3.624c-0.829,-1.311 -1.657,-2.657 -2.485,-4.037c-2.761,-3.865 -5.349,-7.661 -7.764,-11.388c-2.416,-3.727 -4.797,-7.592 -7.143,-11.595c0.69,-2.208 1.035,-3.865 1.035,-4.969c-0,-1.104 0.345,-2.001 1.035,-2.692c0,-0.552 0.138,-1.38 0.414,-2.484c1.795,-3.037 3.52,-5.797 5.176,-8.282c1.519,-2.347 2.588,-4.279 3.21,-5.797c0.621,-1.519 1.276,-3.106 1.967,-4.763c0.69,-0.414 1.242,-0.931 1.656,-1.552c0.414,-0.622 0.966,-1.208 1.656,-1.76c0.276,-1.519 0.898,-2.796 1.864,-3.831c0.966,-1.035 1.587,-2.312 1.863,-3.83c1.243,-0.966 1.933,-2.071 2.071,-3.313c1.794,-1.242 2.898,-2.899 3.313,-4.969c1.104,-1.104 2.036,-2.347 2.795,-3.727c0.759,-1.38 1.484,-2.83 2.174,-4.348c1.656,-1.38 2.967,-3.175 3.934,-5.383c0.828,-0.552 1.449,-1.312 1.863,-2.278c0.414,-0.966 0.966,-1.794 1.656,-2.484c1.105,-1.795 1.967,-3.279 2.589,-4.452c0.621,-1.173 1.276,-2.381 1.967,-3.623c0.966,-0 1.587,-0.345 1.863,-1.036c0.276,-0.69 0.828,-0.966 1.656,-0.828c0,-1.242 0.345,-2.346 1.036,-3.313c0.276,-0.138 0.69,-0.31 1.242,-0.517c0.552,-0.207 0.828,-0.449 0.828,-0.725c-0.276,-1.656 -0.207,-2.623 0.207,-2.899c0.414,-0.276 0.759,-0.552 1.035,-0.828c1.519,0.276 2.554,0.483 3.106,0.621c0.552,0.138 1.45,0.621 2.692,1.45c1.38,-0 2.346,0.276 2.899,0.828c0.552,0.552 1.173,0.966 1.863,1.242c0.552,0.552 1.001,1.104 1.346,1.657c0.345,0.552 0.862,0.966 1.553,1.242c1.104,1.518 5.935,8.42 7.039,9.938c1.519,2.071 3.072,4.038 4.659,5.901c1.587,1.864 3.071,3.9 4.451,6.108c0.415,0.69 1.174,1.898 2.278,3.623c1.104,1.726 2.347,3.555 3.727,5.487c1.38,1.933 2.623,3.693 3.727,5.28c1.104,1.587 1.863,2.519 2.277,2.795c0.414,0.69 1.312,2.002 2.692,3.934c1.38,1.933 2.864,3.969 4.452,6.108c1.587,2.14 3.14,4.176 4.658,6.108c1.518,1.932 2.554,3.175 3.106,3.727c1.518,2.07 2.657,3.761 3.416,5.073c0.759,1.311 1.484,2.726 2.174,4.244Zm-47.414,38.925c1.518,-2.07 2.692,-3.934 3.52,-5.59c0.828,-1.656 1.656,-3.313 2.484,-4.969c1.381,-1.657 2.209,-2.83 2.485,-3.52c0.276,-0.69 0.621,-1.38 1.035,-2.071c1.104,-1.656 2.243,-3.312 3.417,-4.969c1.173,-1.656 2.105,-3.451 2.795,-5.383c0.828,-0.552 1.449,-1.242 1.863,-2.07c0.414,-0.829 1.035,-1.588 1.864,-2.278c-0.829,-2.899 -1.795,-5.142 -2.899,-6.729c-1.104,-1.587 -2.209,-3.14 -3.313,-4.659c-0.414,-0.69 -2.07,-3.451 -2.485,-4.141c-0.552,-0.414 -1,-0.828 -1.345,-1.242c-0.345,-0.414 -0.725,-0.828 -1.139,-1.242c-0.276,-0.69 -0.69,-1.588 -1.242,-2.692c-0.553,-0.69 -1.105,-1.311 -1.657,-1.863c-0.552,-0.552 -1.035,-1.243 -1.449,-2.071c-0.552,-0.552 -1.242,-1.311 -2.071,-2.277c-0.828,-0.967 -1.691,-2.036 -2.588,-3.21c-0.897,-1.173 -1.691,-2.277 -2.381,-3.312c-0.69,-1.036 -1.242,-1.898 -1.656,-2.589c-0.276,-0.69 -0.518,-1.276 -0.725,-1.759c-0.207,-0.484 -0.448,-1.001 -0.725,-1.553c-0.69,-0.967 -3.45,-4.21 -4.141,-5.177c-0.414,0.276 -0.793,0.449 -1.138,0.518c-0.345,0.069 -0.656,0.242 -0.932,0.518c-0.966,1.794 -2.036,3.45 -3.209,4.969c-1.174,1.518 -2.312,3.175 -3.417,4.969c-0.966,1.656 -4.831,8.489 -5.797,10.145c-0.69,0.967 -1.346,1.898 -1.967,2.796c-0.621,0.897 -1.277,1.898 -1.967,3.002c-0.69,0.966 -1.277,1.967 -1.76,3.002c-0.483,1.035 -1.07,2.036 -1.76,3.002c-1.104,1.381 -2.001,2.623 -2.691,3.727c-0.691,1.104 -1.381,2.416 -2.071,3.934c0.414,0.828 1.07,1.967 1.967,3.416c0.897,1.45 4.624,7.144 5.383,8.386c0.76,1.242 1.208,2.07 1.346,2.484c1.104,0.967 2.002,2.036 2.692,3.21c0.69,1.173 1.587,2.312 2.691,3.416c0.553,1.104 1.174,2.071 1.864,2.899c0.69,0.828 1.38,1.725 2.07,2.691c0.691,0.967 1.588,2.381 2.692,4.245c1.104,1.863 2.209,3.761 3.313,5.694c1.104,1.932 2.208,3.727 3.313,5.383c1.104,1.656 2.001,2.692 2.691,3.106c1.381,-1.519 2.519,-3.21 3.417,-5.073c0.897,-1.863 2.105,-3.554 3.623,-5.073Z" style="fill:#f2dad9;fill-rule:nonzero;"/><path d="M733.323,159.042c0.276,0.552 0.586,0.932 0.931,1.139c0.346,0.207 0.587,0.656 0.725,1.346c0.966,0.69 1.726,1.208 2.278,1.553c0.552,0.345 0.897,0.932 1.035,1.76c1.242,0.966 1.967,1.587 2.174,1.863c0.207,0.276 0.38,0.621 0.518,1.035c0.69,0.553 1.345,1.036 1.967,1.45c0.621,0.414 1.069,1.035 1.345,1.863c1.105,0.966 1.795,1.726 2.071,2.278c0.276,0.552 0.483,1.173 0.621,1.863c-0.552,0.966 -1.656,2.278 -3.313,3.934c-1.656,1.657 -3.52,3.416 -5.59,5.28c-2.071,1.863 -4.072,3.658 -6.005,5.383c-1.932,1.726 -3.45,3.071 -4.555,4.038c-0.276,0.552 -0.621,1.035 -1.035,1.449c-0.414,0.414 -0.759,0.897 -1.035,1.449c-0.828,0.69 -1.588,1.415 -2.278,2.174c-0.69,0.76 -1.518,1.346 -2.484,1.76c-1.381,1.933 -3.313,3.831 -5.798,5.694c-2.484,1.864 -4.141,3.692 -4.969,5.487c0.138,0.414 0.449,0.828 0.932,1.242c0.483,0.414 0.863,0.759 1.139,1.035c1.104,1.105 2.415,2.105 3.934,3.003c1.518,0.897 2.829,1.898 3.934,3.002c1.104,0.966 5.521,4.624 6.625,5.59c0.552,0.552 1.242,1.381 2.071,2.485c1.38,1.104 2.726,2.105 4.037,3.002c1.311,0.897 2.588,1.898 3.83,3.002c2.623,2.209 5.177,4.452 7.661,6.729c2.485,2.278 5.107,4.521 7.868,6.729l1.657,1.864c-0,1.104 0.31,2.381 0.931,3.83c0.621,1.45 1.208,2.657 1.76,3.624c-0.276,1.38 -0.241,2.243 0.104,2.588c0.345,0.345 0.655,0.655 0.931,0.931c-0.138,2.623 -0.069,4.348 0.207,5.177c-2.346,2.07 -4.52,3.968 -6.522,5.694c-2.001,1.725 -3.761,3.416 -5.279,5.072c-1.243,1.519 -2.519,2.864 -3.831,4.038c-1.311,1.173 -2.726,2.45 -4.244,3.83c-0.828,1.104 -1.519,1.864 -2.071,2.278c-0.966,0.966 -1.932,1.725 -2.898,2.277c-1.657,1.519 -3.279,2.968 -4.866,4.348c-1.587,1.381 -3.14,2.761 -4.659,4.141c-1.104,0.966 -2.139,1.898 -3.105,2.795c-0.967,0.898 -1.933,1.898 -2.899,3.003c-0.828,0.828 -1.76,1.794 -2.795,2.898c-1.036,1.105 -2.105,2.002 -3.21,2.692c-0.414,0.828 -0.966,1.553 -1.656,2.174c-0.69,0.621 -1.311,1.277 -1.863,1.967c-0.967,0.552 -1.864,1.104 -2.692,1.656c-0.828,0.552 -1.794,1.105 -2.899,1.657c-1.104,-0.829 -2.174,-1.588 -3.209,-2.278c-1.035,-0.69 -2.174,-1.173 -3.416,-1.449c-0.828,-0.69 -1.45,-1.381 -1.864,-2.071c-0.414,-0.69 -1.173,-1.173 -2.277,-1.449c-0.276,-0.414 -0.587,-0.863 -0.932,-1.346c-0.345,-0.483 -0.656,-1.001 -0.932,-1.553c-1.656,-0.138 -2.967,-1.173 -3.934,-3.105c0.276,-0.829 0.656,-1.45 1.139,-1.864c0.483,-0.414 0.587,-1.173 0.311,-2.277c0.828,-1.381 1.829,-2.589 3.002,-3.624c1.173,-1.035 2.312,-2.105 3.416,-3.209c1.243,-1.104 2.381,-2.243 3.417,-3.416c1.035,-1.174 2.174,-2.312 3.416,-3.417c0.69,-0.69 1.38,-1.346 2.07,-1.967c0.691,-0.621 1.45,-1.276 2.278,-1.967c1.518,-1.518 3.071,-2.933 4.658,-4.244c1.588,-1.311 3.21,-2.726 4.866,-4.245c2.209,-2.208 4.486,-4.313 6.833,-6.315c2.346,-2.001 4.486,-4.244 6.418,-6.729c-0.138,-0.552 -0.345,-0.931 -0.621,-1.139c-0.276,-0.207 -0.483,-0.517 -0.621,-0.931c-2.209,-2.071 -4.383,-4.107 -6.522,-6.108c-2.14,-2.002 -4.452,-3.762 -6.936,-5.28c-0.828,-0.828 -1.381,-1.518 -1.657,-2.07c-2.484,-1.795 -4.865,-3.796 -7.143,-6.005c-2.277,-2.208 -4.796,-4.072 -7.557,-5.59c-0.552,-0.69 -1.208,-1.277 -1.967,-1.76c-0.759,-0.483 -1.484,-0.932 -2.174,-1.346c-0.414,-0.69 -0.863,-1.277 -1.346,-1.76c-0.483,-0.483 -1.07,-0.863 -1.76,-1.139c-1.104,-0.966 -1.829,-1.76 -2.174,-2.381c-0.345,-0.621 -0.932,-1 -1.76,-1.138c-0.276,-0.691 -0.724,-1.243 -1.346,-1.657c-0.621,-0.414 -1.276,-0.897 -1.967,-1.449c-0.276,-0.828 -0.69,-1.519 -1.242,-2.071c-0.138,-1.104 -0.069,-1.898 0.207,-2.381c0.276,-0.483 0.483,-0.862 0.621,-1.139c-0.138,-0.828 -0.517,-1.449 -1.138,-1.863c-0.622,-0.414 -0.932,-1.104 -0.932,-2.07c-0,-0.553 0.172,-0.932 0.518,-1.139c0.345,-0.207 0.586,-0.518 0.724,-0.932l0.621,-3.106c1.105,-0.828 2.036,-1.829 2.795,-3.002c0.76,-1.173 1.76,-2.105 3.003,-2.795c1.38,-2.071 3.105,-3.796 5.176,-5.176c0.69,-1.105 1.553,-2.002 2.588,-2.692c1.035,-0.69 1.898,-1.587 2.588,-2.692c1.104,-0.69 2.036,-1.449 2.795,-2.277c0.76,-0.828 1.691,-1.587 2.795,-2.278c0.277,-0.552 0.587,-1 0.932,-1.345c0.345,-0.346 0.587,-0.725 0.725,-1.139c3.727,-3.589 7.005,-6.695 9.835,-9.317c2.829,-2.623 5.763,-5.246 8.799,-7.868c0.829,-0.69 1.657,-1.45 2.485,-2.278c0.828,-0.828 1.725,-1.587 2.692,-2.277c0.276,-0.276 0.621,-0.414 1.035,-0.414c0.414,-0 0.828,-0.139 1.242,-0.415c1.656,0 2.554,-0.069 2.692,-0.207Z" style="fill:#f2dad9;fill-rule:nonzero;"/><path d="M490.887,300.472c-0.453,0.858 -1.047,1.5 -1.782,1.929c-0.735,0.428 -1.272,1.071 -1.612,1.928c-0.34,0.735 -0.51,1.531 -0.51,2.389c-0.001,0.857 -0.114,1.592 -0.341,2.204c-0.226,0.49 -0.509,0.858 -0.848,1.103c-0.34,0.244 -0.679,0.489 -1.018,0.734c-0.566,0.735 -1.076,1.867 -1.529,3.398c-0.453,1.531 -0.962,2.542 -1.528,3.031c-1.018,0.857 -2.318,1.5 -3.902,1.928c-1.583,0.428 -3.251,0.764 -5.004,1.008c-1.752,0.244 -3.505,0.426 -5.258,0.548c-1.752,0.122 -3.251,0.304 -4.494,0.549c-2.601,0.243 -5.174,0.548 -7.718,0.914c-2.544,0.366 -5.117,0.549 -7.717,0.547c-2.601,-0.001 -5.258,-0.125 -7.972,-0.372c-2.713,-0.246 -5.37,-0.37 -7.971,-0.371c-1.357,-0.001 -3.053,-0.033 -5.088,-0.095c-2.035,-0.062 -3.618,-0.584 -4.748,-1.564c-0.452,-0.123 -1.244,-0.185 -2.374,-0.185l-5.428,-0.003c-0.678,-0.001 -1.356,0.06 -2.035,0.182c-0.678,0.122 -1.413,0.183 -2.205,0.183c-1.244,-0.001 -2.148,-0.369 -2.713,-1.104c0.113,-0.368 0.17,-0.766 0.17,-1.195c0,-0.428 0.001,-0.826 0.001,-1.194c0.001,-1.347 -0.225,-2.327 -0.677,-2.94c0.114,-1.348 0.228,-2.634 0.341,-3.859c0.114,-1.225 0.171,-2.511 0.172,-3.858c0.001,-2.083 -0.28,-4.349 -0.844,-6.8c1.131,-0.489 2.318,-0.703 3.562,-0.641c1.244,0.062 2.374,-0.213 3.392,-0.825c0.34,-0.122 0.651,-0.214 0.933,-0.275c0.283,-0.061 0.594,-0.091 0.933,-0.091c1.357,0.368 2.29,0.552 2.798,0.553c0.509,-0 1.046,0 1.612,0c1.583,0.001 3.194,-0.059 4.833,-0.181c1.64,-0.121 3.251,-0.059 4.834,0.187c0.565,0 1.074,0.092 1.526,0.276c0.453,0.184 0.961,0.276 1.527,0.277c0.565,-0 0.961,-0.122 1.187,-0.367c0.226,-0.245 0.509,-0.367 0.848,-0.367c0.34,-0 0.905,0.031 1.696,0.093c0.792,0.061 1.301,0.215 1.527,0.46c0.904,0 1.78,0.031 2.628,0.093c0.848,0.062 1.668,0.093 2.46,0.093c1.809,0.001 3.618,-0.059 5.427,-0.181c1.809,-0.121 3.562,-0.181 5.258,-0.18c0.791,0 1.3,-0.061 1.526,-0.183c0.227,-0.123 0.396,-0.245 0.509,-0.368c0.114,-0.122 0.198,-0.306 0.255,-0.551c0.057,-0.245 0.255,-0.428 0.594,-0.551c4.975,0.493 9.95,0.312 14.926,-0.543c4.975,-0.854 10.007,-1.28 15.095,-1.278c0.792,0.001 1.385,0.124 1.781,0.369c0.395,0.245 0.706,0.551 0.932,0.919c0.226,0.368 0.48,0.705 0.763,1.011c0.282,0.306 0.706,0.521 1.271,0.644c-0.226,0.98 -0.227,1.837 -0.001,2.572Z" style="fill:#f2dad9;fill-rule:nonzero;"/><path d="M417.123,176.225c-5.006,0.649 -15.527,-10.273 -15.492,-11.13c0.036,-0.856 0.18,-1.586 0.431,-2.189c0.247,-0.48 0.545,-0.835 0.894,-1.066c0.349,-0.23 0.698,-0.461 1.047,-0.692c0.596,-0.71 1.151,-1.821 1.667,-3.332c0.516,-1.511 1.066,-2.5 1.652,-2.966c1.052,-0.814 2.378,-1.402 3.978,-1.765c1.599,-0.362 3.28,-0.629 5.041,-0.801c1.761,-0.171 3.52,-0.282 5.276,-0.331c1.756,-0.049 3.261,-0.17 4.514,-0.363c2.608,-0.136 5.191,-0.335 7.748,-0.596c2.558,-0.261 5.135,-0.337 7.734,-0.229c2.598,0.109 5.248,0.342 7.949,0.7c2.701,0.358 5.351,0.591 7.949,0.7c1.356,0.056 3.049,0.158 5.08,0.304c2.031,0.146 3.591,0.732 4.679,1.759c0.447,0.141 1.235,0.235 2.365,0.282l5.423,0.227c0.678,0.028 1.358,-0.005 2.041,-0.099c0.683,-0.094 1.42,-0.124 2.211,-0.091c1.242,0.051 2.131,0.456 2.665,1.214c-0.128,0.363 -0.202,0.758 -0.219,1.187c-0.018,0.428 -0.035,0.826 -0.05,1.193c-0.057,1.346 0.128,2.335 0.555,2.966c-0.169,1.341 -0.336,2.622 -0.5,3.841c-0.164,1.219 -0.274,2.502 -0.331,3.848c-0.087,2.081 0.101,4.357 0.564,6.828c-1.15,0.443 -2.345,0.607 -3.585,0.494c-1.241,-0.113 -2.382,0.115 -3.424,0.685c-0.344,0.108 -0.659,0.187 -0.944,0.236c-0.285,0.05 -0.597,0.067 -0.935,0.053c-1.341,-0.424 -2.265,-0.646 -2.774,-0.667c-0.508,-0.022 -1.044,-0.044 -1.609,-0.068c-1.582,-0.066 -3.194,-0.072 -4.838,-0.018c-1.643,0.054 -3.25,-0.074 -4.821,-0.385c-0.565,-0.024 -1.07,-0.137 -1.514,-0.339c-0.444,-0.203 -0.949,-0.316 -1.514,-0.339c-0.564,-0.024 -0.965,0.082 -1.201,0.317c-0.236,0.236 -0.524,0.346 -0.863,0.332c-0.339,-0.014 -0.902,-0.068 -1.691,-0.162c-0.788,-0.095 -1.29,-0.269 -1.505,-0.523c-0.904,-0.038 -1.778,-0.105 -2.623,-0.202c-0.845,-0.096 -1.663,-0.161 -2.454,-0.194c-1.807,-0.075 -3.617,-0.09 -5.43,-0.043c-1.812,0.047 -3.566,0.035 -5.261,-0.036c-0.79,-0.033 -1.301,0.007 -1.532,0.12c-0.231,0.113 -0.406,0.228 -0.524,0.346c-0.118,0.118 -0.211,0.298 -0.277,0.54c-0.067,0.243 -0.272,0.418 -0.616,0.526c-4.951,-0.697 -9.929,-0.721 -14.936,-0.072Z" style="fill:#f2dad9;fill-rule:nonzero;"/><path d="M524.143,139.978c1.589,0.008 2.776,-0.059 3.229,-0.229c1.81,-0.677 3.644,-1.29 5.502,-1.838c1.858,-0.548 3.692,-1.16 5.502,-1.837l3.103,-1.161c1.034,-0.387 2.028,-0.686 2.981,-0.895c0.695,-0.113 1.269,-0.254 1.721,-0.423l1.455,-0.544c0.646,-0.242 1.535,-0.427 2.666,-0.556c0.598,-0.371 1.252,-0.689 1.963,-0.955l2.036,-0.762c1.81,-0.678 3.709,-1.314 5.696,-1.911c1.988,-0.596 3.951,-1.257 5.891,-1.983c1.292,-0.483 2.484,-1.04 3.575,-1.669c1.091,-0.63 2.218,-1.162 3.382,-1.597l3.757,-1.185c1.293,-0.484 2.609,-0.903 3.951,-1.257c1.341,-0.355 2.722,-0.798 4.144,-1.33c0.647,-0.242 1.281,-0.516 1.903,-0.823c0.623,-0.306 1.233,-0.645 1.831,-1.016c0.598,-0.372 1.285,-0.702 2.06,-0.993l2.133,-0.798c1.81,-0.677 3.644,-1.29 5.503,-1.838c1.858,-0.548 3.692,-1.16 5.502,-1.837c1.163,-0.436 2.282,-0.891 3.357,-1.367c1.075,-0.476 2.194,-0.932 3.357,-1.367c2.327,-0.871 4.755,-1.669 7.284,-2.394c2.529,-0.725 4.957,-1.523 7.284,-2.394c1.034,-0.387 2.085,-0.927 3.151,-1.621c1.067,-0.694 1.779,-1.55 2.135,-2.568c-0.355,-1.341 -0.71,-2.092 -1.065,-2.254c0.065,-0.614 0.142,-1.195 0.232,-1.745c0.089,-0.549 0.231,-1.155 0.425,-1.817c-0.031,-2.052 0.144,-4.144 0.525,-6.276c0.381,-2.132 0.686,-4.273 0.914,-6.421c0.13,-1.228 0.175,-2.387 0.135,-3.477c-0.039,-1.091 0.006,-2.25 0.136,-3.478c0.195,-1.841 0.423,-3.695 0.682,-5.561c0.26,-1.866 0.399,-3.76 0.416,-5.682c-0.08,-1.002 -0.148,-1.971 -0.203,-2.908c-0.056,-0.938 -0.124,-1.907 -0.204,-2.909c0,-1.179 0.07,-2.273 0.208,-3.283c0.138,-1.01 0.232,-2.04 0.281,-3.09c0.016,-0.743 -0.011,-1.506 -0.083,-2.29c-0.073,-0.783 -0.06,-1.636 0.038,-2.556c0.016,-0.743 0.134,-1.414 0.352,-2.011c0.219,-0.598 0.337,-1.268 0.353,-2.012c0.001,-1.179 -0.01,-2.391 -0.034,-3.635c-0.023,-1.244 0.031,-2.479 0.161,-3.707c0.13,-1.228 0.336,-2.153 0.62,-2.774c0.283,-0.622 0.376,-1.652 0.28,-3.09c0.292,-1.583 0.446,-2.451 0.463,-2.605c0.016,-0.153 -0.024,-0.359 -0.121,-0.618c0.113,-0.484 0.207,-0.924 0.28,-1.32c0.073,-0.396 0.166,-0.836 0.279,-1.321c-0.29,-0.775 -0.516,-1.575 -0.677,-2.399c-0.161,-0.824 -0.386,-1.624 -0.677,-2.4c-0.855,-0.711 -1.602,-1.132 -2.24,-1.262c-0.638,-0.129 -1.41,-0.025 -2.315,0.314c-0.84,-0.275 -1.732,-0.494 -2.677,-0.656c-0.945,-0.163 -1.837,-0.381 -2.677,-0.657c0.178,-1.098 -0.06,-1.635 -0.714,-1.612c-0.654,0.024 -1.361,0.104 -2.121,0.241l-2.278,0.411c-0.759,0.136 -1.292,0.189 -1.599,0.156c-2.699,0.273 -4.629,0.627 -5.793,1.062c-0.646,0.242 -1.018,0.529 -1.115,0.86c-0.097,0.331 -0.34,0.569 -0.728,0.714c-1.244,0.613 -2.682,1.299 -4.315,2.057c-1.632,0.758 -3.353,1.476 -5.163,2.153l-10.278,3.846c-5.817,2.177 -11.497,4.229 -17.04,6.155c-5.543,1.927 -11.093,3.93 -16.652,6.01c-2.586,0.968 -5.147,2 -7.684,3.097c-2.538,1.097 -5.099,2.129 -7.685,3.096c-6.334,2.371 -12.568,4.814 -18.701,7.33c-6.133,2.516 -12.366,4.959 -18.701,7.329c-2.585,0.968 -5.252,1.818 -7.999,2.551c-0.683,0.183 -1.753,1.059 -2.972,2.288c-3.723,1.052 -6.949,2.143 -7.859,2.886c-0.045,0.245 0.016,0.465 0.184,0.662c0.168,0.196 0.276,0.363 0.325,0.501c0.048,0.138 0.073,0.302 0.075,0.494c0.001,0.191 -0.163,0.474 -0.494,0.847c-0.708,0.801 -1.391,1.67 -2.05,2.609c-0.659,0.938 -1.367,1.834 -2.122,2.688c-0.33,0.374 -0.696,0.739 -1.098,1.097c-0.401,0.358 -0.791,0.751 -1.169,1.178c-0.285,-0.063 -0.618,0.071 -0.996,0.402c-0.378,0.332 -0.638,0.577 -0.779,0.737c-0.142,0.16 -0.164,0.378 -0.067,0.655c0.097,0.276 0.028,0.547 -0.208,0.814c-0.236,0.267 -0.52,0.443 -0.853,0.53c-0.332,0.086 -0.616,0.263 -0.852,0.53c-0.852,0.577 -1.572,1.295 -2.161,2.154c-0.588,0.858 -1.213,1.661 -1.873,2.408l-0.673,0.761c-0.212,0.24 -0.745,0.553 -1.599,0.939c-0.141,0.16 -0.247,0.328 -0.317,0.504c-0.029,0.073 -0.056,0.151 -0.081,0.236c-2.416,1.193 -4.879,2.303 -7.389,3.327c-2.667,1.089 -5.209,2.29 -7.627,3.602c-0.338,0.804 -0.914,1.332 -1.727,1.584c-0.813,0.252 -1.317,0.797 -1.512,1.634c-0.195,0.838 -0.002,1.628 0.579,2.37c0.581,0.743 1.281,1.458 2.101,2.146l2.46,2.063c0.819,0.688 1.371,1.396 1.653,2.124c0.545,0.9 1.243,2.111 2.094,3.634c0.851,1.523 1.849,2.418 2.993,2.685c1.288,0.3 2.327,0.211 3.117,-0.267c0.79,-0.478 1.747,-0.862 2.87,-1.152c1.531,-0.746 3.068,-1.353 4.61,-1.822c1.542,-0.468 3.079,-1.075 4.61,-1.822c0.67,-0.285 1.555,-0.686 2.656,-1.202c1.1,-0.516 2.207,-1.058 3.32,-1.626c1.113,-0.568 2.118,-1.161 3.016,-1.78c0.899,-0.618 1.409,-1.189 1.531,-1.712c0.052,-0.223 0.08,-0.47 0.084,-0.74l0.327,-0.369c0.471,-0.534 0.85,-0.865 1.134,-0.993c1.238,0.143 2.306,-0.244 3.203,-1.162c0.897,-0.918 1.629,-1.697 2.195,-2.338c1.085,-1.227 2.29,-2.397 3.614,-3.508c1.324,-1.111 2.529,-2.281 3.614,-3.508c0.138,-0.156 0.273,-0.313 0.406,-0.473c0.632,-0.197 1.263,-0.4 1.892,-0.607c1.64,-0.54 2.977,-1.003 4.012,-1.39c0.775,-0.29 1.607,-0.528 2.496,-0.713c0.889,-0.185 1.786,-0.447 2.691,-0.786c0.646,-0.242 1.28,-0.516 1.902,-0.823c0.623,-0.306 1.257,-0.58 1.903,-0.822c3.749,-1.403 7.575,-2.798 11.478,-4.184c3.902,-1.387 7.728,-2.782 11.477,-4.185c6.723,-2.515 13.441,-5.14 20.156,-7.873c6.714,-2.734 13.433,-5.359 20.155,-7.874c1.422,-0.532 2.868,-1 4.339,-1.403c1.47,-0.403 2.917,-0.87 4.339,-1.402c0.775,-0.29 1.539,-0.613 2.29,-0.968c0.752,-0.355 1.515,-0.677 2.291,-0.968c4.783,-1.789 9.639,-3.385 14.568,-4.788c0.064,0.566 0.12,1.798 0.167,3.696c0.047,1.898 0.054,3.886 0.02,5.962c-0.034,2.076 -0.116,4.022 -0.247,5.84c-0.13,1.817 -0.317,2.992 -0.56,3.525c0.194,0.517 0.266,1.301 0.217,2.351c-0.049,1.05 -0.171,2.201 -0.366,3.453c-0.195,1.252 -0.369,2.459 -0.524,3.622c-0.154,1.164 -0.352,2.012 -0.595,2.545c-2.634,0.838 -5.276,1.753 -7.926,2.744l-7.854,2.939c-7.11,2.661 -14.184,5.418 -21.222,8.273c-7.038,2.855 -14.241,5.661 -21.61,8.418c-4.525,1.693 -9.074,3.322 -13.647,4.886c-4.573,1.563 -9.122,3.192 -13.646,4.885c-1.423,0.532 -2.865,1.109 -4.327,1.73c-1.053,0.447 -2.096,0.871 -3.128,1.272c-0.757,-0.189 -1.524,-0.335 -2.301,-0.437c-1.585,-0.208 -3.22,-0.298 -4.906,-0.272c-1.686,0.027 -3.321,-0.064 -4.906,-0.272c-0.827,-0.108 -1.865,-0.214 -3.113,-0.316c-1.248,-0.101 -2.281,0.29 -3.098,1.176c-0.048,0.014 -0.101,0.026 -0.159,0.035c-0.762,-0.186 -2.061,-0.289 -3.49,-0.328l-1.13,-0.148c-0.413,-0.055 -0.819,-0.17 -1.216,-0.346c-0.181,-0.081 -0.845,0.182 -1.519,0.533c-1.344,0.063 -2.443,0.174 -2.873,0.313c-1.387,0.449 -2.834,0.995 -4.341,1.637c-2.56,1.279 -5.174,2.463 -7.841,3.552c-2.667,1.088 -5.209,2.289 -7.627,3.602c-0.338,0.804 -0.913,1.332 -1.726,1.584c-0.813,0.251 -1.317,0.796 -1.512,1.634c-0.196,0.837 -0.003,1.627 0.578,2.369c0.581,0.743 1.281,1.458 2.101,2.146l2.46,2.064c0.82,0.687 1.371,1.395 1.654,2.124c0.544,0.899 1.242,2.11 2.093,3.633c0.852,1.523 1.85,2.418 2.994,2.685c1.287,0.3 2.326,0.211 3.116,-0.267c0.79,-0.478 1.747,-0.861 2.87,-1.151c1.532,-0.747 3.068,-1.354 4.61,-1.823c1.542,-0.468 3.079,-1.075 4.61,-1.822c0.262,-0.111 0.556,-0.24 0.883,-0.386c0.056,-0 0.106,0.002 0.15,0.008l0.982,0.129c0.965,0.127 1.938,0.317 2.922,0.57c0.983,0.254 1.973,0.321 2.969,0.204c0.345,0.045 0.667,-0.005 0.967,-0.152c0.299,-0.147 0.621,-0.198 0.966,-0.153c0.344,0.046 0.569,0.199 0.675,0.462c0.106,0.262 0.262,0.406 0.469,0.434c0.207,0.027 0.555,0.041 1.045,0.044c0.491,0.002 0.821,-0.11 0.991,-0.336c0.551,0.073 1.089,0.112 1.614,0.119c0.525,0.007 1.028,0.042 1.511,0.106c1.102,0.144 2.196,0.35 3.283,0.617c1.086,0.267 2.146,0.468 3.18,0.604c0.482,0.064 0.784,0.165 0.906,0.305c0.122,0.141 0.209,0.276 0.262,0.407c0.053,0.131 0.081,0.321 0.083,0.57c0.002,0.248 0.099,0.447 0.29,0.597c1.653,-0.048 7.304,-1.218 12.195,-2.432Z" style="fill:#f2dad9;"/></g><path d="M25.848,82.367c0.178,-0.045 0.333,-0.111 0.466,-0.2c0.134,-0.089 0.289,-0.133 0.467,-0.133c0.133,0.044 0.233,0.133 0.299,0.266c0.067,0.133 0.167,0.244 0.3,0.333c0.133,-0.089 0.256,-0.178 0.367,-0.266c0.111,-0.089 0.233,-0.156 0.366,-0.2c0.444,0.133 0.688,0.355 0.733,0.666c0.222,0.089 0.422,0.189 0.599,0.3c0.178,0.111 0.378,0.188 0.6,0.233c0.088,0.177 0.199,0.311 0.333,0.4c0.133,0.088 0.288,0.222 0.466,0.399c0.444,0.089 1.032,0.333 1.765,0.733c0.733,0.4 1.321,0.71 1.765,0.933c0.445,0.222 0.889,0.444 1.333,0.666c0.444,0.222 0.866,0.466 1.265,0.732c0.4,0.222 0.8,0.478 1.199,0.766c0.4,0.289 0.822,0.522 1.266,0.7c0.4,0.488 0.91,0.799 1.532,0.932c0.622,0.134 1.177,0.378 1.665,0.733c0.4,0.222 0.777,0.455 1.133,0.7c0.355,0.244 0.71,0.477 1.066,0.699c0.133,0.222 0.299,0.4 0.499,0.533c0.2,0.133 0.389,0.311 0.566,0.533c0.888,0.488 1.399,0.866 1.532,1.132c0.134,0.089 0.333,0.222 0.6,0.4c0.266,0.177 0.533,0.366 0.799,0.566c0.267,0.2 0.511,0.4 0.733,0.6c0.222,0.199 0.355,0.388 0.4,0.566c-0.178,0.399 -0.267,0.721 -0.267,0.966c0,0.244 -0.089,0.455 -0.266,0.632c0.266,0.356 0.399,0.689 0.399,1c-0.222,0.533 -0.599,0.977 -1.132,1.332c-0.133,0.355 -0.344,0.633 -0.633,0.832c-0.288,0.2 -0.477,0.478 -0.566,0.833c-0.355,0.222 -0.566,0.4 -0.633,0.533c-0.066,0.133 -0.144,0.266 -0.233,0.4c-0.844,0.888 -1.632,1.654 -2.365,2.298c-0.732,0.644 -1.41,1.343 -2.031,2.098c-0.444,0.222 -0.822,0.5 -1.133,0.833c-0.311,0.333 -0.599,0.699 -0.866,1.099c-0.355,0.355 -0.699,0.699 -1.032,1.032c-0.333,0.333 -0.677,0.655 -1.033,0.966c-0.089,0.178 -0.233,0.322 -0.433,0.433c-0.2,0.111 -0.344,0.278 -0.433,0.5c-0.488,0.222 -0.888,0.533 -1.199,0.932c-0.311,0.4 -0.688,0.733 -1.132,1l-0.466,0.666c-0.134,0.088 -0.322,0.233 -0.567,0.433c-0.244,0.199 -0.488,0.421 -0.732,0.666c-0.245,0.244 -0.455,0.477 -0.633,0.699c-0.178,0.222 -0.289,0.4 -0.333,0.533c-0.133,0.044 -0.344,0.178 -0.633,0.4c-0.289,0.222 -0.577,0.466 -0.866,0.732c-0.289,0.267 -0.555,0.533 -0.799,0.8c-0.245,0.266 -0.389,0.444 -0.433,0.533l-0.666,0.466c0.044,1.199 0.077,2.409 0.1,3.63c0.022,1.222 0.033,2.432 0.033,3.631l-0,2.264l-0.466,0.6c-0.222,-0 -0.4,-0.044 -0.533,-0.133c-0.134,-0.089 -0.289,-0.133 -0.467,-0.133c-0.177,-0 -0.344,0.088 -0.499,0.266c-0.156,0.178 -0.3,0.311 -0.433,0.4c-0.311,0.044 -0.566,0.122 -0.766,0.233c-0.2,0.111 -0.411,0.211 -0.633,0.3c-0.266,-0.134 -0.533,-0.2 -0.799,-0.2c-0.578,0.133 -0.855,0.155 -0.833,0.066c0.022,-0.088 -0.078,-0.133 -0.3,-0.133c-0.355,0.355 -0.577,0.533 -0.666,0.533c-0.178,0 -0.344,0.022 -0.499,0.067c-0.156,0.044 -0.322,0.066 -0.5,0.066c-0.178,-0.355 -0.322,-0.721 -0.433,-1.099c-0.111,-0.377 -0.322,-0.744 -0.633,-1.099c0.133,-0.444 0.111,-0.755 -0.066,-0.933c0.266,-0.488 0.377,-1.043 0.333,-1.665c-0.045,-0.622 -0.067,-1.199 -0.067,-1.732c-0,-0.311 0.067,-1.465 0.067,-1.732c-0,-0.533 -0.045,-1.077 -0.134,-1.632c-0.088,-0.555 -0.133,-1.121 -0.133,-1.698c0,-1.332 0.045,-2.676 0.133,-4.03c0.089,-1.355 0.134,-2.698 0.134,-4.03c-0,-0.755 -0.034,-1.532 -0.1,-2.332c-0.067,-0.799 -0.1,-1.576 -0.1,-2.331c-0,-0.489 0.022,-0.944 0.066,-1.366c0.045,-0.422 0.089,-0.832 0.134,-1.232c-0,-2.043 0.033,-4.008 0.1,-5.895c0.066,-1.887 0.099,-3.764 0.099,-5.629c0,-0.622 -0.066,-2.909 -0.066,-3.53c-0,-0.311 0.133,-1.555 0.133,-1.865c0.133,-1.377 0.2,-2.754 0.2,-4.13l-0.067,-1.066c0.178,-0.267 0.444,-0.4 0.8,-0.4c0.488,0 0.866,0.156 1.132,0.466c0.311,-0.044 0.611,-0.099 0.899,-0.166c0.289,-0.067 0.566,-0.1 0.833,-0.1c0.4,0 0.733,0.133 0.999,0.4Zm3.93,10.591c0,0.222 -0.022,0.389 -0.066,0.5c-0.045,0.111 -0.089,0.211 -0.134,0.299c0,0.134 0.067,0.755 0.067,0.933c-0,1.021 -0.011,2.032 -0.033,3.031c-0.023,0.999 -0.034,1.987 -0.034,2.964l-0.133,3.53c0,0.222 0.133,1.244 0.133,1.466c0,0.222 -0.133,1.11 -0.133,1.332c0,0.577 0.067,1.155 0.2,1.732c0.222,-0.089 0.377,-0.233 0.466,-0.433c0.089,-0.2 0.2,-0.366 0.333,-0.5c1.022,-0.932 1.976,-1.909 2.865,-2.93c0.888,-1.022 1.798,-2.043 2.731,-3.065c0.799,-0.843 1.487,-1.532 2.065,-2.065c0.577,-0.532 1.021,-1.176 1.332,-1.931c-0.755,-0.489 -1.532,-0.988 -2.331,-1.499c-0.8,-0.511 -1.644,-0.944 -2.532,-1.299c-0.044,-0.089 -0.166,-0.2 -0.366,-0.333c-0.2,-0.133 -0.411,-0.255 -0.633,-0.366c-0.222,-0.111 -0.444,-0.211 -0.666,-0.3c-0.222,-0.089 -0.377,-0.133 -0.466,-0.133c-0.4,-0.356 -0.822,-0.578 -1.266,-0.667c-0.311,0 -0.577,-0.055 -0.799,-0.166c-0.222,-0.111 -0.378,-0.211 -0.467,-0.3l-0.133,0.2Z" style="fill:#f2dad9;fill-rule:nonzero;"/><path d="M83.334,124.399c-0.044,0.666 0.1,1.166 0.433,1.499c0.333,0.333 0.611,0.743 0.833,1.232c-0.089,0.622 -0.022,1.11 0.2,1.465c-0.134,0.267 -0.267,0.567 -0.4,0.9c-0.133,0.333 -0.333,0.61 -0.6,0.832c-0.71,0.311 -1.132,0.578 -1.265,0.8c-0.133,0.222 -0.4,0.333 -0.799,0.333c-0.223,0.222 -1.244,1.176 -1.466,1.399c-0.222,-0.089 -0.377,-0.2 -0.466,-0.334c-0.089,-0.133 -0.222,-0.31 -0.4,-0.532c-0.444,-0.134 -0.844,-0.367 -1.199,-0.7c-0.355,-0.333 -0.666,-0.71 -0.932,-1.132c-0.267,-0.422 -0.522,-0.866 -0.767,-1.332c-0.244,-0.467 -0.455,-0.9 -0.632,-1.299c-0.622,-1.155 -1.255,-2.321 -1.899,-3.498c-0.644,-1.176 -1.299,-2.342 -1.965,-3.497c-0.355,-0.577 -0.699,-1.165 -1.032,-1.765c-0.333,-0.599 -0.678,-1.21 -1.033,-1.832c-0.089,-0.089 -0.177,-0.188 -0.266,-0.299c-0.089,-0.111 -0.178,-0.234 -0.267,-0.367c-0.311,-0.444 -0.544,-0.944 -0.699,-1.499c-0.156,-0.555 -0.477,-1.01 -0.966,-1.365c-0.844,-0.089 -1.61,0.033 -2.298,0.366c-0.688,0.333 -1.299,0.766 -1.832,1.299c0.044,0.311 0.067,0.6 0.067,0.866l-0,0.799c-0,1.022 -0.045,1.999 -0.134,2.931c-0.088,0.933 -0.133,1.91 -0.133,2.931c0,0.444 0.022,0.9 0.067,1.366c0.044,0.466 0.111,0.921 0.2,1.365c-0.134,0.489 -0.2,1.022 -0.2,1.599c-0,0.311 0.033,0.6 0.1,0.866c0.066,0.266 0.1,0.555 0.1,0.866c-0,0.444 -0.145,0.744 -0.433,0.899c-0.289,0.156 -0.389,0.433 -0.3,0.833c-0.533,0.222 -1.044,0.444 -1.532,0.666c-0.489,0.222 -0.999,0.377 -1.532,0.466c-0.222,0.045 -0.444,0.056 -0.666,0.034c-0.222,-0.023 -0.422,0.011 -0.6,0.1c-0.222,0.088 -0.399,0.255 -0.533,0.499c-0.133,0.244 -0.311,0.366 -0.533,0.366c-0.266,0 -0.421,-0.099 -0.466,-0.299c-0.044,-0.2 -0.133,-0.367 -0.266,-0.5c-0.222,-0.089 -0.4,-0.133 -0.533,-0.133c-0.133,-0 -0.267,-0.067 -0.4,-0.2c0.044,-0.4 -0.044,-0.699 -0.266,-0.899c-0.222,-0.2 -0.333,-0.611 -0.333,-1.233c-0,-0.488 0.033,-0.954 0.099,-1.398c0.067,-0.444 0.1,-0.911 0.1,-1.399c0,-0.4 -0.055,-0.766 -0.166,-1.099c-0.111,-0.333 -0.211,-0.7 -0.3,-1.099c-0.044,-0.178 -0.044,-0.356 0,-0.533c0.045,-0.178 0.067,-0.356 0.067,-0.533c-0,-0.8 -0.034,-1.61 -0.1,-2.432c-0.067,-0.821 -0.1,-1.632 -0.1,-2.431l-0,-0.866c-0,-0.266 0.022,-0.533 0.067,-0.799c0.088,-0.267 0.166,-0.489 0.233,-0.666c0.066,-0.178 0.1,-0.4 0.1,-0.666c-0,-0.844 -0.089,-1.677 -0.267,-2.498c-0.177,-0.822 -0.266,-1.632 -0.266,-2.432c-0,-0.444 0.066,-2.287 0.066,-2.731c0,-1.288 -0.022,-2.553 -0.066,-3.797c-0.045,-1.243 -0.067,-2.487 -0.067,-3.73c0,-0.888 0.022,-1.765 0.067,-2.631c0.044,-0.866 0.066,-1.743 0.066,-2.631c0,-1.11 -0.044,-2.21 -0.133,-3.298c-0.089,-1.088 -0.133,-2.209 -0.133,-3.363c-0,-0.4 -0.022,-0.667 -0.067,-0.8c-0.044,-0.133 -0.111,-0.211 -0.2,-0.233c-0.088,-0.022 -0.188,-0.044 -0.299,-0.067c-0.111,-0.022 -0.211,-0.099 -0.3,-0.233c-0,-0.266 0.111,-0.455 0.333,-0.566c0.222,-0.111 0.333,-0.477 0.333,-1.099c0,-0.355 -0.033,-0.711 -0.1,-1.066c-0.067,-0.355 -0.1,-0.71 -0.1,-1.066c0,-0.532 0.111,-1.065 0.333,-1.598c0.222,-0.533 0.422,-1.044 0.6,-1.532c0.533,-0.045 0.899,-0.045 1.099,-0c0.2,0.044 0.411,0.022 0.633,-0.067c0.133,0.489 0.422,0.744 0.866,0.766c0.444,0.022 0.843,0.078 1.199,0.167c0.399,0.044 0.788,0.144 1.165,0.299c0.378,0.156 0.744,0.234 1.099,0.234c0.089,0.266 0.278,0.455 0.567,0.566c0.288,0.111 0.588,0.211 0.899,0.299c0.355,-0.044 0.633,-0.199 0.833,-0.466c0.199,-0.266 0.477,-0.399 0.832,-0.399c0.267,-0 0.577,0.188 0.933,0.566c0.355,0.377 0.621,0.677 0.799,0.899c0.178,0.133 0.511,0.422 0.999,0.866c0.489,0.444 1.022,0.899 1.599,1.365c0.577,0.467 1.11,0.911 1.599,1.333c0.488,0.422 0.799,0.655 0.932,0.699c1.821,1.821 3.52,3.475 5.096,4.963c1.577,1.487 3.297,2.831 5.162,4.03c0.045,0.133 0.1,0.244 0.167,0.333c0.067,0.089 0.144,0.2 0.233,0.333c0,0.355 -0.066,0.622 -0.2,0.799c-0.133,0.178 -0.2,0.4 -0.2,0.666c0,0.134 0.034,0.267 0.1,0.4c0.067,0.133 0.1,0.266 0.1,0.4c0.045,0.177 0.056,0.344 0.034,0.499c-0.023,0.156 -0.034,0.322 -0.034,0.5c0,0.444 0.145,0.844 0.433,1.199c0.289,0.355 0.433,0.755 0.433,1.199c-0.089,0.4 -0.266,0.644 -0.533,0.733c-0.266,0.088 -0.488,0.199 -0.666,0.333c-0.089,0.088 -0.166,0.2 -0.233,0.333c-0.067,0.133 -0.144,0.244 -0.233,0.333c-0.977,0.444 -1.688,0.855 -2.132,1.232c-0.444,0.378 -0.91,0.744 -1.398,1.099c-0.134,0.089 -1.288,0.833 -1.599,1.033c-0.311,0.2 -0.589,0.41 -0.833,0.633c-0.244,0.222 -0.366,0.399 -0.366,0.532c-0,0.311 0.189,0.744 0.566,1.299c0.377,0.555 0.655,0.988 0.833,1.299c0.488,0.8 0.932,1.588 1.332,2.365c0.4,0.777 0.844,1.543 1.332,2.298c0.888,1.377 1.721,2.776 2.498,4.197c0.777,1.421 1.543,2.842 2.298,4.263Zm-10.858,-24.78c-1.021,-1.288 -2.12,-2.453 -3.297,-3.497c-1.177,-1.044 -2.298,-2.143 -3.364,-3.297l-0.732,-0.133c-0.267,-0.445 -0.567,-0.833 -0.9,-1.166c-0.333,-0.333 -0.677,-0.677 -1.032,-1.033c0.044,0.489 0.066,0.955 0.066,1.399l0,1.399c0,1.421 -0.033,2.809 -0.1,4.163c-0.066,1.355 -0.099,2.72 -0.099,4.097c-0,1.377 0.066,2.687 0.199,3.93c0.933,0 1.777,-0.266 2.532,-0.799c0.311,-0.222 1.421,-1.177 1.732,-1.399c0.355,-0.222 0.766,-0.489 1.232,-0.8c0.466,-0.31 0.932,-0.621 1.399,-0.932c0.466,-0.311 0.91,-0.633 1.332,-0.966c0.422,-0.333 0.766,-0.655 1.032,-0.966Z" style="fill:#f2dad9;fill-rule:nonzero;"/><path d="M120.57,104.349c-0.089,0.177 -0.177,0.344 -0.266,0.499c-0.089,0.156 -0.156,0.322 -0.2,0.5c0.178,0.177 0.344,0.366 0.5,0.566c0.155,0.2 0.233,0.411 0.233,0.633c-0,0.177 -0.034,0.344 -0.1,0.499c-0.067,0.156 -0.078,0.3 -0.033,0.433c-0.178,0.311 -0.367,0.6 -0.567,0.866c-0.2,0.267 -0.344,0.555 -0.433,0.866c-0.177,0.178 -0.322,0.356 -0.433,0.533c-0.111,0.178 -0.211,0.355 -0.299,0.533c-0.222,0.089 -0.367,0.233 -0.433,0.433c-0.067,0.2 -0.189,0.366 -0.367,0.5c-0.044,0.177 -0.266,0.599 -0.666,1.265c-0.4,0.666 -0.844,1.377 -1.332,2.132c-0.489,0.755 -0.955,1.488 -1.399,2.198c-0.444,0.711 -0.755,1.177 -0.933,1.399c-0.088,0.222 -0.188,0.4 -0.299,0.533c-0.111,0.133 -0.233,0.288 -0.367,0.466c-0.088,0.133 -0.155,0.278 -0.199,0.433c-0.045,0.155 -0.111,0.278 -0.2,0.366c-0.089,0.178 -0.189,0.333 -0.3,0.467c-0.111,0.133 -0.211,0.311 -0.3,0.533c-0.444,0.577 -0.888,1.265 -1.332,2.065c-0.444,0.799 -0.866,1.509 -1.266,2.131c-0.222,0.355 -1.043,1.776 -1.265,2.132c-0.222,0.355 -1.111,1.643 -1.333,1.998c-0.355,0.267 -0.666,0.589 -0.932,0.966c-0.267,0.377 -0.577,0.699 -0.933,0.966c-0.577,-0 -0.932,-0.267 -1.065,-0.799c-0.578,-0.134 -0.866,-0.134 -0.866,-0l-0,0.333c-0.178,0.088 -0.3,0.222 -0.367,0.399c-0.066,0.178 -0.189,0.311 -0.366,0.4c-0.355,-0.089 -0.655,-0.233 -0.899,-0.433c-0.245,-0.2 -0.589,-0.278 -1.033,-0.233c-0.178,-0.267 -0.377,-0.5 -0.599,-0.7c-0.222,-0.199 -0.422,-0.41 -0.6,-0.632c-0.089,-0.267 -0.211,-0.489 -0.366,-0.667c-0.156,-0.177 -0.3,-0.355 -0.433,-0.532c-0.133,-0.223 -0.267,-0.422 -0.4,-0.6c-0.133,-0.178 -0.266,-0.355 -0.4,-0.533c-0.31,-0.4 -0.61,-0.788 -0.899,-1.166c-0.289,-0.377 -0.544,-0.766 -0.766,-1.165c-0.355,-0.533 -0.699,-1.077 -1.032,-1.632c-0.333,-0.555 -0.678,-1.099 -1.033,-1.632c-0.178,-0.267 -0.355,-0.533 -0.533,-0.8c-0.177,-0.266 -0.333,-0.533 -0.466,-0.799c-0.089,-0.222 -0.211,-0.488 -0.366,-0.799c-0.156,-0.311 -0.345,-0.511 -0.567,-0.6c-0.088,-0.355 -0.244,-0.622 -0.466,-0.799c-0.222,-0.178 -0.444,-0.4 -0.666,-0.666c-0.311,-0.356 -0.6,-0.744 -0.866,-1.166c-0.266,-0.422 -0.533,-0.855 -0.799,-1.299c-0.888,-1.243 -1.721,-2.465 -2.498,-3.664c-0.777,-1.199 -1.543,-2.442 -2.298,-3.73c0.222,-0.71 0.333,-1.243 0.333,-1.599c-0,-0.355 0.111,-0.643 0.333,-0.865c-0,-0.178 0.044,-0.445 0.133,-0.8c0.577,-0.977 1.132,-1.865 1.665,-2.664c0.489,-0.755 0.833,-1.377 1.033,-1.865c0.2,-0.489 0.411,-1 0.633,-1.533c0.222,-0.133 0.399,-0.299 0.532,-0.499c0.134,-0.2 0.311,-0.389 0.533,-0.566c0.089,-0.489 0.289,-0.9 0.6,-1.233c0.311,-0.333 0.511,-0.743 0.599,-1.232c0.4,-0.311 0.622,-0.666 0.666,-1.066c0.578,-0.399 0.933,-0.932 1.066,-1.598c0.356,-0.356 0.655,-0.755 0.9,-1.199c0.244,-0.445 0.477,-0.911 0.699,-1.399c0.533,-0.444 0.955,-1.022 1.266,-1.732c0.266,-0.178 0.466,-0.422 0.599,-0.733c0.133,-0.311 0.311,-0.577 0.533,-0.799c0.355,-0.578 0.633,-1.055 0.833,-1.432c0.199,-0.378 0.41,-0.766 0.632,-1.166c0.311,-0 0.511,-0.111 0.6,-0.333c0.089,-0.222 0.266,-0.311 0.533,-0.267c-0,-0.399 0.111,-0.755 0.333,-1.065c0.089,-0.045 0.222,-0.1 0.4,-0.167c0.177,-0.067 0.266,-0.144 0.266,-0.233c-0.089,-0.533 -0.067,-0.844 0.067,-0.933c0.133,-0.088 0.244,-0.177 0.333,-0.266c0.488,0.089 0.821,0.155 0.999,0.2c0.178,0.044 0.466,0.2 0.866,0.466c0.444,-0 0.755,0.089 0.932,0.266c0.178,0.178 0.378,0.311 0.6,0.4c0.178,0.178 0.322,0.355 0.433,0.533c0.111,0.178 0.277,0.311 0.499,0.4c0.356,0.488 1.91,2.709 2.265,3.197c0.489,0.666 0.988,1.299 1.499,1.898c0.511,0.6 0.988,1.255 1.432,1.966c0.133,0.222 0.378,0.61 0.733,1.165c0.355,0.555 0.755,1.144 1.199,1.765c0.444,0.622 0.844,1.188 1.199,1.699c0.355,0.511 0.599,0.811 0.733,0.899c0.133,0.222 0.422,0.644 0.866,1.266c0.444,0.622 0.921,1.277 1.432,1.965c0.511,0.688 1.01,1.343 1.499,1.965c0.488,0.622 0.821,1.021 0.999,1.199c0.488,0.666 0.855,1.21 1.099,1.632c0.244,0.422 0.477,0.877 0.699,1.366Zm-15.254,12.523c0.489,-0.666 0.866,-1.266 1.133,-1.799c0.266,-0.533 0.532,-1.066 0.799,-1.599c0.444,-0.532 0.71,-0.91 0.799,-1.132c0.089,-0.222 0.2,-0.444 0.333,-0.666c0.356,-0.533 0.722,-1.066 1.099,-1.599c0.378,-0.533 0.678,-1.11 0.9,-1.732c0.266,-0.177 0.466,-0.399 0.599,-0.666c0.133,-0.266 0.333,-0.51 0.6,-0.733c-0.267,-0.932 -0.578,-1.654 -0.933,-2.164c-0.355,-0.511 -0.71,-1.011 -1.066,-1.499c-0.133,-0.222 -0.666,-1.11 -0.799,-1.332c-0.178,-0.134 -0.322,-0.267 -0.433,-0.4c-0.111,-0.133 -0.233,-0.267 -0.366,-0.4c-0.089,-0.222 -0.222,-0.51 -0.4,-0.866c-0.178,-0.222 -0.355,-0.422 -0.533,-0.599c-0.178,-0.178 -0.333,-0.4 -0.466,-0.666c-0.178,-0.178 -0.4,-0.422 -0.666,-0.733c-0.267,-0.311 -0.544,-0.655 -0.833,-1.033c-0.289,-0.377 -0.544,-0.732 -0.766,-1.065c-0.222,-0.333 -0.4,-0.611 -0.533,-0.833c-0.089,-0.222 -0.166,-0.411 -0.233,-0.566c-0.067,-0.156 -0.144,-0.322 -0.233,-0.5c-0.222,-0.311 -1.11,-1.354 -1.332,-1.665c-0.134,0.089 -0.256,0.144 -0.367,0.166c-0.111,0.023 -0.211,0.078 -0.3,0.167c-0.31,0.577 -0.655,1.11 -1.032,1.599c-0.378,0.488 -0.744,1.021 -1.099,1.598c-0.311,0.533 -1.554,2.731 -1.865,3.264c-0.222,0.311 -0.433,0.611 -0.633,0.9c-0.2,0.288 -0.411,0.61 -0.633,0.965c-0.222,0.311 -0.411,0.633 -0.566,0.966c-0.156,0.333 -0.344,0.655 -0.566,0.966c-0.356,0.444 -0.644,0.844 -0.866,1.199c-0.222,0.355 -0.444,0.777 -0.666,1.266c0.133,0.266 0.344,0.633 0.632,1.099c0.289,0.466 1.488,2.298 1.732,2.698c0.245,0.399 0.389,0.666 0.433,0.799c0.356,0.311 0.644,0.655 0.866,1.033c0.222,0.377 0.511,0.743 0.866,1.099c0.178,0.355 0.378,0.666 0.6,0.932c0.222,0.267 0.444,0.555 0.666,0.866c0.222,0.311 0.511,0.766 0.866,1.366c0.355,0.599 0.71,1.21 1.066,1.832c0.355,0.621 0.71,1.199 1.065,1.731c0.356,0.533 0.644,0.866 0.866,1c0.444,-0.489 0.811,-1.033 1.099,-1.632c0.289,-0.6 0.678,-1.144 1.166,-1.632Z" style="fill:#f2dad9;fill-rule:nonzero;"/><path d="M145.35,130.461c-0.267,-0 -0.489,0.055 -0.666,0.166c-0.178,0.111 -0.378,0.211 -0.6,0.3c-0.355,0.222 -0.521,0.388 -0.499,0.499c0.022,0.111 -0.034,0.167 -0.167,0.167c-0.399,-0 -0.788,-0.067 -1.166,-0.2c-0.377,-0.133 -0.766,-0.2 -1.165,-0.2c-0.355,-0.177 -0.689,-0.366 -0.999,-0.566c-0.311,-0.2 -0.622,-0.455 -0.933,-0.766c-0.4,-0 -0.677,0.033 -0.833,0.1c-0.155,0.067 -0.344,0.078 -0.566,0.033c-0.577,-0.222 -1.11,-0.544 -1.599,-0.966c-0.488,-0.422 -1.043,-0.743 -1.665,-0.966c-0.177,-0.222 -0.377,-0.388 -0.599,-0.499c-0.222,-0.111 -0.444,-0.255 -0.666,-0.433c-0.4,-0.178 -0.989,-0.511 -1.766,-0.999c-0.777,-0.489 -1.598,-1.011 -2.464,-1.566c-0.866,-0.555 -1.677,-1.099 -2.432,-1.632c-0.755,-0.533 -1.287,-0.954 -1.598,-1.265c-0.178,-0.045 -0.444,-0.189 -0.8,-0.433c-0.355,-0.244 -0.699,-0.522 -1.032,-0.833c-0.333,-0.311 -0.633,-0.622 -0.899,-0.932c-0.267,-0.311 -0.4,-0.578 -0.4,-0.8c-0,-0.222 0.111,-0.411 0.333,-0.566c0.222,-0.155 0.377,-0.344 0.466,-0.566c0.045,-0.089 0.056,-0.211 0.034,-0.367c-0.023,-0.155 -0.012,-0.277 0.033,-0.366c0.222,-0.355 0.344,-0.633 0.366,-0.833c0.022,-0.199 0.056,-0.388 0.1,-0.566c0.222,-0.266 0.977,-1.199 1.199,-1.465c-0.044,-0.489 0.045,-0.844 0.267,-1.066c0.222,-0.222 0.466,-0.444 0.732,-0.666c0.222,-0 0.489,0.022 0.8,0.066c0.311,0.045 0.577,0.111 0.799,0.2c0.444,0.222 0.666,0.367 0.666,0.433c0,0.067 0.045,0.145 0.133,0.233c0.222,0.178 0.444,0.333 0.666,0.467c0.223,0.133 0.445,0.266 0.667,0.399c0.488,0.356 0.988,0.711 1.498,1.066c0.511,0.355 1.033,0.711 1.566,1.066c0.621,0.355 1.365,0.821 2.231,1.399c0.866,0.577 1.654,0.999 2.365,1.265c0.089,-0.266 0.133,-0.621 0.133,-1.065c0,-0.311 -0.066,-1.577 -0.066,-1.932c-0,-0.489 -0.045,-0.977 -0.134,-1.466c-0.088,-0.488 -0.177,-0.954 -0.266,-1.398c-0.222,-2.132 -0.355,-4.219 -0.4,-6.262c-0.044,-0.622 -0.089,-1.221 -0.133,-1.798c-0.044,-0.578 -0.067,-1.177 -0.067,-1.799c0,-0.844 0.012,-1.688 0.034,-2.531c0.022,-0.844 0.033,-1.71 0.033,-2.598c0,-0.755 0.022,-1.51 0.067,-2.265c0.044,-0.755 0.066,-1.51 0.066,-2.265c0,-0.755 0.067,-3.508 0.067,-4.263c-0,-1.11 -0.011,-2.331 -0.033,-3.664c-0.023,-1.332 0.033,-2.553 0.166,-3.663c0.089,-0.444 0.222,-0.777 0.4,-0.999c0.799,0.044 1.443,0.077 1.932,0.1c0.488,0.022 1.043,0.033 1.665,0.033c0.177,-0 0.322,0.055 0.433,0.166c0.111,0.111 0.233,0.167 0.366,0.167c0.178,-0 0.322,-0.033 0.433,-0.1c0.111,-0.067 0.255,-0.1 0.433,-0.1c0.311,0 0.6,0.133 0.866,0.4c0.489,-0.133 0.866,-0.156 1.132,-0.067c0.223,0.222 0.367,0.533 0.433,0.933c0.067,0.399 0.145,0.777 0.234,1.132c-0,0.4 0.066,1.377 0.066,1.599c0,0.488 -0.022,0.977 -0.066,1.465c-0.045,0.489 -0.067,0.977 -0.067,1.466c-0,0.577 0.033,1.154 0.1,1.732c0.067,0.577 0.1,1.154 0.1,1.732c-0,0.621 -0.022,1.199 -0.067,1.731c-0.044,0.533 -0.066,1.088 -0.066,1.666c-0,0.444 0.066,2.065 0.066,2.464c0,0.933 -0.011,1.866 -0.033,2.798c-0.022,0.933 -0.033,1.865 -0.033,2.798c-0,0.222 0.011,0.488 0.033,0.799c0.022,0.311 0.011,0.6 -0.033,0.866c-0,0.222 -0.089,0.466 -0.267,0.733c0.089,1.465 0.167,2.931 0.233,4.396c0.067,1.466 0.145,2.931 0.233,4.397c0,0.355 0.023,0.743 0.067,1.165c0.044,0.422 0.089,0.833 0.133,1.233c0.089,0.488 0.133,0.977 0.133,1.465c0,0.489 0.023,0.977 0.067,1.466c0.045,0.621 0.289,3.041 0.333,3.663c0.045,0.489 0.111,0.977 0.2,1.466c0.089,0.488 0.133,0.977 0.133,1.465c0,0.622 -0.022,1.366 -0.066,2.232c-0.045,0.866 -0.178,1.587 -0.4,2.165Z" style="fill:#f2dad9;fill-rule:nonzero;"/><path d="M163.735,113.341c0.089,0.222 0.411,0.689 0.966,1.399c0.555,0.711 1.188,1.488 1.898,2.332c0.711,0.843 1.388,1.654 2.032,2.431c0.644,0.777 1.099,1.343 1.365,1.698c0.489,0.622 0.966,1.233 1.433,1.832c0.466,0.6 0.899,1.233 1.298,1.899l1.199,1.998c0.356,0.444 0.678,0.822 0.966,1.132c0.289,0.311 0.522,0.733 0.7,1.266c0.089,0.355 0.133,0.6 0.133,0.733c-0,0.311 -0.111,0.533 -0.333,0.666c-0.355,-0 -0.544,0.055 -0.566,0.166c-0.022,0.112 -0.122,0.211 -0.3,0.3c-0.178,0.089 -0.455,0.145 -0.833,0.167c-0.377,0.022 -0.677,0.033 -0.899,0.033c-0.4,0 -0.899,-0.011 -1.499,-0.033c-0.599,-0.022 -1.077,0.033 -1.432,0.166c-0.089,0.045 -0.222,0.111 -0.4,0.2c-0.177,0.089 -0.31,0.133 -0.399,0.133c-0.355,0 -0.611,-0.055 -0.766,-0.166c-0.156,-0.111 -0.367,-0.189 -0.633,-0.233c-0.355,-0.4 -0.655,-0.811 -0.899,-1.233c-0.245,-0.422 -0.522,-0.854 -0.833,-1.299c-0.311,-0.31 -0.622,-0.588 -0.933,-0.832c-0.31,-0.244 -0.577,-0.522 -0.799,-0.833c-0.666,-0.977 -1.354,-1.932 -2.065,-2.864c-0.71,-0.933 -1.443,-1.843 -2.198,-2.731c-0.355,-0.489 -0.733,-0.933 -1.132,-1.333c-0.4,-0.399 -0.778,-0.843 -1.133,-1.332c-0.355,-0.444 -0.688,-0.921 -0.999,-1.432c-0.311,-0.511 -0.622,-1.01 -0.933,-1.499c-0.266,-0.399 -0.621,-0.921 -1.065,-1.565c-0.444,-0.644 -0.933,-1.288 -1.466,-1.932c-0.533,-0.644 -1.066,-1.254 -1.599,-1.832c-0.532,-0.577 -0.977,-1.021 -1.332,-1.332c-0.044,-0.266 -0.155,-0.477 -0.333,-0.633c-0.177,-0.155 -0.377,-0.299 -0.599,-0.433c-0.089,-0.222 -0.189,-0.433 -0.3,-0.632c-0.111,-0.2 -0.167,-0.411 -0.167,-0.633c0,-0.311 0.067,-0.6 0.2,-0.866c0.089,-0.178 0.145,-0.344 0.167,-0.5c0.022,-0.155 0.077,-0.322 0.166,-0.499c0.222,-0.489 0.522,-0.966 0.9,-1.433c0.377,-0.466 0.677,-0.965 0.899,-1.498c0.089,-0.134 0.133,-0.278 0.133,-0.433c0,-0.156 0.044,-0.3 0.133,-0.433c0.089,-0.356 0.278,-0.655 0.566,-0.9c0.289,-0.244 0.522,-0.521 0.7,-0.832c0.222,-0.355 0.433,-0.722 0.633,-1.099c0.2,-0.378 0.41,-0.789 0.632,-1.233c0.667,-1.11 1.366,-2.187 2.099,-3.23c0.732,-1.044 1.476,-2.099 2.231,-3.164c0.578,-0.889 1.144,-1.743 1.699,-2.565c0.555,-0.821 1.121,-1.654 1.698,-2.498c0.311,-0.4 0.644,-0.866 1,-1.399c0.355,-0.533 0.743,-1.066 1.165,-1.598c0.422,-0.533 0.855,-1.022 1.299,-1.466c0.444,-0.444 0.888,-0.799 1.333,-1.066c0.666,-0.044 1.11,0.1 1.332,0.433c0.222,0.333 0.555,0.5 0.999,0.5c0.577,0.133 0.955,0.311 1.132,0.533c0.178,0.222 0.378,0.444 0.6,0.666c0.622,-0 1.121,0.111 1.499,0.333c0.377,0.222 0.743,0.555 1.099,0.999c-0.133,0.489 -0.333,0.922 -0.6,1.299c-0.266,0.378 -0.51,0.766 -0.733,1.166c-0.355,0.177 -0.61,0.422 -0.766,0.733c-0.155,0.31 -0.388,0.555 -0.699,0.732c-0.444,0.755 -0.91,1.477 -1.399,2.165c-0.488,0.688 -0.977,1.366 -1.465,2.032c-0.267,0.399 -0.544,0.755 -0.833,1.066c-0.289,0.31 -0.544,0.644 -0.766,0.999c-0.089,0.133 -0.377,0.733 -0.466,0.866c-0.533,0.843 -1.11,1.632 -1.732,2.364c-0.622,0.733 -1.199,1.544 -1.732,2.432c-0.178,0.311 -0.322,0.633 -0.433,0.966c-0.111,0.333 -0.255,0.655 -0.433,0.966c-0.178,0.266 -0.433,0.621 -0.766,1.065c-0.333,0.444 -0.655,0.922 -0.966,1.432c-0.311,0.511 -0.588,1 -0.833,1.466c-0.244,0.466 -0.366,0.855 -0.366,1.166c0.044,0.222 0.322,0.655 0.833,1.299c0.51,0.644 1.088,1.332 1.732,2.065c0.644,0.732 1.254,1.421 1.831,2.065c0.578,0.643 0.955,1.032 1.133,1.165Zm4.396,-12.123c0.311,0.666 0.644,1.243 0.999,1.732c0.134,0.177 0.289,0.333 0.467,0.466c0.177,0.133 0.311,0.311 0.399,0.533c0.089,0.089 0.178,0.278 0.267,0.566c0.089,0.289 0.177,0.5 0.266,0.633c0.133,0.355 0.4,0.755 0.8,1.199c0.399,0.444 0.599,0.844 0.599,1.199c0,0.222 -0.044,0.466 -0.133,0.733c-0.089,0.266 -0.156,0.51 -0.2,0.732c-0.044,0.267 -0.067,0.544 -0.067,0.833c0,0.289 -0.088,0.544 -0.266,0.766c-0.222,0.222 -0.466,0.355 -0.733,0.4c-0.266,0.044 -0.51,0.155 -0.732,0.333c-0.089,0.089 -0.223,0.244 -0.4,0.466c-0.178,0.222 -0.355,0.466 -0.533,0.733c-0.178,0.266 -0.344,0.522 -0.5,0.766c-0.155,0.244 -0.233,0.433 -0.233,0.566c-0.533,0.045 -0.877,0.056 -1.032,0.033c-0.156,-0.022 -0.322,-0.011 -0.5,0.034c-0.222,-0.222 -0.455,-0.411 -0.699,-0.566c-0.245,-0.156 -0.544,-0.3 -0.9,-0.433c-0.088,-0.356 -0.288,-0.766 -0.599,-1.233c-0.311,-0.466 -0.577,-0.855 -0.799,-1.165l-0.467,-0.6c-0.666,-0.933 -1.276,-1.832 -1.832,-2.698c-0.555,-0.866 -0.965,-1.832 -1.232,-2.897c0.844,-0.622 1.499,-1.088 1.965,-1.399c0.467,-0.311 0.966,-0.6 1.499,-0.866c0.533,-0.267 1.055,-0.522 1.565,-0.766c0.511,-0.244 0.988,-0.544 1.433,-0.899c0.355,-0 0.599,0.022 0.732,0.066c0.133,0.045 0.222,0.089 0.267,0.133c0.044,0.045 0.1,0.122 0.166,0.233c0.067,0.112 0.211,0.234 0.433,0.367Z" style="fill:#f2dad9;fill-rule:nonzero;"/><path d="M190.713,112.609c0.088,0.222 0.422,0.699 0.999,1.432c0.577,0.732 1.232,1.532 1.965,2.398c0.733,0.866 1.454,1.698 2.165,2.498c0.71,0.799 1.199,1.376 1.465,1.732c0.844,1.243 1.71,2.464 2.598,3.663c0.888,1.199 1.732,2.443 2.531,3.73c0.222,0.223 0.4,0.5 0.533,0.833c0.133,0.333 0.2,0.677 0.2,1.033c0,0.399 -0.1,0.61 -0.3,0.632c-0.199,0.023 -0.41,0.078 -0.632,0.167c-0.445,0.311 -0.844,0.488 -1.199,0.533c-0.356,0.044 -0.644,0.066 -0.866,0.066c-0.489,0 -1.022,-0.011 -1.599,-0.033c-0.577,-0.022 -1.066,0.011 -1.466,0.1c-0.133,0.044 -0.288,0.122 -0.466,0.233c-0.178,0.111 -0.311,0.167 -0.4,0.167c-0.355,-0 -0.61,-0.056 -0.766,-0.167c-0.155,-0.111 -0.366,-0.211 -0.632,-0.3c-0.356,-0.399 -0.678,-0.821 -0.966,-1.265c-0.289,-0.444 -0.589,-0.888 -0.9,-1.332c-0.266,-0.311 -0.555,-0.589 -0.865,-0.833c-0.311,-0.244 -0.6,-0.544 -0.866,-0.899c-0.711,-1.022 -1.433,-1.999 -2.165,-2.931c-0.733,-0.933 -1.477,-1.865 -2.232,-2.798c-0.355,-0.488 -0.744,-0.955 -1.166,-1.399c-0.421,-0.444 -0.81,-0.888 -1.165,-1.332c-0.356,-0.489 -0.689,-0.999 -0.999,-1.532c-0.311,-0.533 -0.644,-1.044 -1,-1.532c-0.266,-0.444 -0.644,-0.988 -1.132,-1.632c-0.488,-0.644 -0.999,-1.299 -1.532,-1.965c-0.533,-0.666 -1.077,-1.299 -1.632,-1.899c-0.555,-0.599 -1.033,-1.054 -1.432,-1.365c-0,-0.311 -0.089,-0.533 -0.267,-0.666c-0.177,-0.134 -0.377,-0.289 -0.599,-0.467c-0.089,-0.222 -0.2,-0.433 -0.333,-0.632c-0.133,-0.2 -0.2,-0.433 -0.2,-0.7c-0,-0.177 0.022,-0.333 0.067,-0.466c0.044,-0.133 0.088,-0.267 0.133,-0.4c0.089,-0.177 0.144,-0.344 0.166,-0.499c0.022,-0.156 0.078,-0.322 0.167,-0.5c0.222,-0.577 0.544,-1.088 0.966,-1.532c0.422,-0.444 0.744,-0.955 0.966,-1.532c0.044,-0.178 0.066,-0.344 0.066,-0.5c0,-0.155 0.045,-0.322 0.133,-0.499c0.134,-0.267 0.333,-0.533 0.6,-0.8c0.266,-0.266 0.511,-0.555 0.733,-0.866c0.222,-0.399 1.11,-1.998 1.332,-2.398c0.622,-1.021 1.31,-2.009 2.065,-2.964c0.755,-0.955 1.465,-1.898 2.131,-2.831c0.622,-0.888 1.199,-1.765 1.732,-2.631c0.533,-0.866 1.111,-1.743 1.732,-2.631c0.311,-0.444 0.666,-0.944 1.066,-1.499c0.4,-0.555 0.81,-1.099 1.232,-1.632c0.422,-0.533 0.855,-1.032 1.299,-1.499c0.444,-0.466 0.888,-0.81 1.333,-1.032c0.754,-0.089 1.243,0.033 1.465,0.366c0.222,0.333 0.533,0.5 0.933,0.5c0.621,0.133 1.043,0.333 1.265,0.599c0.222,0.267 0.444,0.511 0.666,0.733c0.578,-0 1.066,0.111 1.466,0.333c0.399,0.222 0.799,0.555 1.199,0.999c-0.178,0.489 -0.411,0.933 -0.7,1.332c-0.288,0.4 -0.544,0.822 -0.766,1.266c-0.355,0.133 -0.61,0.355 -0.766,0.666c-0.155,0.311 -0.388,0.577 -0.699,0.8c-0.489,0.754 -0.977,1.498 -1.466,2.231c-0.488,0.733 -0.977,1.432 -1.465,2.098c-0.222,0.267 -0.477,0.478 -0.766,0.633c-0.289,0.156 -0.522,0.389 -0.7,0.7c-0.088,0.133 -0.155,0.277 -0.199,0.433c-0.045,0.155 -0.111,0.299 -0.2,0.432c-0.533,0.844 -1.133,1.666 -1.799,2.465c-0.666,0.799 -1.243,1.643 -1.732,2.531c-0.222,0.311 -0.399,0.633 -0.533,0.966c-0.133,0.333 -0.288,0.655 -0.466,0.966c-0.177,0.267 -0.433,0.644 -0.766,1.133c-0.333,0.488 -0.666,0.988 -0.999,1.498c-0.333,0.511 -0.622,0.999 -0.866,1.466c-0.244,0.466 -0.366,0.855 -0.366,1.165c0.044,0.223 0.333,0.667 0.866,1.333c0.533,0.666 1.121,1.376 1.765,2.131c0.644,0.755 1.265,1.466 1.865,2.132c0.599,0.666 0.988,1.088 1.166,1.266Z" style="fill:#f2dad9;fill-rule:nonzero;"/><path d="M233.677,83.166c-0.088,0.178 -0.122,0.355 -0.1,0.533c0.023,0.178 0.034,0.377 0.034,0.599c-0.089,0.533 -0.089,0.8 -0,0.8c0.089,-0 0.133,0.044 0.133,0.133l-0.466,0.666c-0,0.267 -0.056,0.511 -0.167,0.733c-0.111,0.222 -0.144,0.488 -0.1,0.799c-0.133,0.222 -0.255,0.444 -0.366,0.666c-0.111,0.222 -0.278,0.444 -0.5,0.666l-0.866,0c-0.488,0 -1.01,0.034 -1.565,0.1c-0.555,0.067 -1.099,0.1 -1.632,0.1c-0.089,0 -0.6,-0.066 -0.733,-0.066c-0.089,-0 -0.621,0.066 -0.799,0.066c-0.666,0 -1.321,-0.033 -1.965,-0.1c-0.644,-0.066 -1.321,-0.1 -2.032,-0.1l-0.533,0c-0.177,0 -0.377,0.023 -0.599,0.067c-0.045,0.755 -0.078,1.521 -0.1,2.298c-0.022,0.777 -0.033,1.566 -0.033,2.365c-0,0.222 -0.134,1.177 -0.134,1.399c-0.044,0.577 -0.077,1.132 -0.1,1.665c-0.022,0.533 -0.033,1.088 -0.033,1.665c0,1.244 0.011,2.487 0.033,3.731c0.023,1.243 0.056,2.509 0.1,3.796c0.045,0.667 0.089,1.311 0.134,1.932c0.044,0.622 0.066,1.266 0.066,1.932c0,1.51 -0.022,3.009 -0.066,4.496c-0.045,1.488 -0.067,2.987 -0.067,4.497c-0,0.488 -0.022,0.943 -0.067,1.365c-0.044,0.422 -0.066,0.877 -0.066,1.366c-0,1.021 0.022,2.042 0.066,3.064c0.045,1.021 0.067,2.043 0.067,3.064c-0,0.488 -0.067,2.442 -0.067,2.931c-0.222,0.355 -0.377,0.666 -0.466,0.932c-0.089,0.267 -0.355,0.4 -0.799,0.4c-0.311,-0.089 -0.455,-0.189 -0.433,-0.3c0.022,-0.111 -0.011,-0.211 -0.1,-0.299c-0.4,-0.045 -0.7,-0.011 -0.899,0.1c-0.2,0.111 -0.433,0.21 -0.7,0.299c-0.133,-0.044 -0.277,-0.066 -0.433,-0.066c-0.155,-0 -0.3,-0 -0.433,-0c-0.089,-0 -0.177,0.033 -0.266,0.1c-0.089,0.066 -0.289,0.1 -0.6,0.1c-0.266,0.044 -0.422,-0 -0.466,-0.134c-0.044,-0.133 -0.178,-0.2 -0.4,-0.2c-0.222,0.134 -0.477,0.234 -0.766,0.3c-0.288,0.067 -0.566,0.1 -0.832,0.1c-0.267,-0.178 -0.389,-0.344 -0.367,-0.499c0.022,-0.156 -0.011,-0.322 -0.1,-0.5c-0.044,-0.089 -0.122,-0.211 -0.233,-0.366c-0.111,-0.156 -0.211,-0.278 -0.3,-0.367c0.089,-0.621 0.156,-1.177 0.2,-1.665c0.045,-0.489 0.067,-1.021 0.067,-1.599c-0,-1.154 -0.045,-2.287 -0.133,-3.397c-0.089,-1.11 -0.134,-2.243 -0.134,-3.397c0,-0.355 0.045,-0.733 0.134,-1.133c0.088,-0.399 0.133,-0.821 0.133,-1.265c-0.089,-0.355 -0.111,-0.566 -0.067,-0.633c0.045,-0.067 0.067,-0.144 0.067,-0.233c-0,-0.267 -0.067,-1.332 -0.067,-1.599c0,-0.533 0.067,-2.664 0.067,-3.197c-0,-0.222 -0.067,-1.177 -0.067,-1.399c-0.044,-0.4 -0.055,-0.822 -0.033,-1.266c0.022,-0.444 0.033,-0.888 0.033,-1.332c0,-2.132 -0.033,-4.241 -0.1,-6.328c-0.066,-2.087 -0.1,-4.197 -0.1,-6.328c0,-1.066 0.056,-2.121 0.167,-3.164c0.111,-1.044 0.166,-2.099 0.166,-3.164c0,-0.134 -0.044,-0.311 -0.133,-0.533c-0.089,-0.222 -0.177,-0.378 -0.266,-0.467c-0.222,0 -1.044,-0.066 -1.266,-0.066c-0.488,-0 -0.955,0.066 -1.399,0.2c-0.843,0.044 -1.654,0.1 -2.431,0.166c-0.777,0.067 -1.565,0.122 -2.365,0.167c-0.533,-0.045 -0.855,-0.056 -0.966,-0.034c-0.111,0.023 -0.233,0.034 -0.366,0.034c-0.355,-0 -0.622,-0.089 -0.799,-0.267l-0,-0.866c-0.267,-0.533 -0.378,-0.821 -0.333,-0.866c0.044,-0.044 0.066,-0.111 0.066,-0.199c0,-0.134 -0.122,-0.278 -0.366,-0.433c-0.244,-0.156 -0.367,-0.411 -0.367,-0.766c-0.044,-0.356 -0.133,-0.622 -0.266,-0.8c-0.133,-0.177 -0.2,-0.355 -0.2,-0.533c0,-0.311 0.067,-0.666 0.2,-1.065c0.4,-0.223 0.788,-0.378 1.166,-0.467c0.377,-0.089 0.81,-0.2 1.299,-0.333c0.266,-0.089 0.51,-0.177 0.732,-0.266c0.222,-0.089 0.467,-0.156 0.733,-0.2c0.311,-0.045 1.554,-0.089 1.865,-0.133c0.666,-0.134 1.366,-0.245 2.099,-0.333c0.732,-0.089 1.432,-0.134 2.098,-0.134c0.622,0 1.243,0.078 1.865,0.234c0.622,0.155 1.177,0.233 1.665,0.233c0.711,-0 1.388,0.044 2.032,0.133c0.644,0.089 1.321,0.133 2.032,0.133c0.088,0 0.233,0.033 0.433,0.1c0.199,0.067 0.433,0.1 0.699,0.1l6.461,-0c0.356,0.089 0.611,0.111 0.766,0.067c0.156,-0.045 0.3,-0.067 0.433,-0.067c0.356,-0 1.643,0.133 1.999,0.133c0.311,0 0.555,-0.022 0.732,-0.066c0.356,0.044 0.689,0.144 1,0.299c0.31,0.156 0.666,0.233 1.065,0.233c0.178,0.134 0.311,0.3 0.4,0.5c0.089,0.2 0.244,0.344 0.466,0.433Z" style="fill:#f2dad9;fill-rule:nonzero;"/></svg>